amirilatin-italic.sfdir
StartChar: exclam
Encoding: 33 33 0
Width: 468
VWidth: 0
Flags: W
LayerCount: 2
Fore
SplineSet
40 72 m 27,0,1
 40 128 40 128 78 166 c 128,-1,2
 116 204 116 204 172 204 c 0,3,4
 207 204 207 204 232.5 176.5 c 128,-1,5
 258 149 258 149 258 112 c 0,6,7
 258 54 258 54 221 13 c 128,-1,8
 184 -28 184 -28 128 -28 c 0,9,10
 90 -28 90 -28 65 2 c 128,-1,11
 40 32 40 32 40 72 c 27,0,1
384 1262 m 3,12,13
 414 1262 414 1262 430 1236.5 c 128,-1,14
 446 1211 446 1211 446 1176 c 0,15,16
 446 1152 446 1152 413 1028.5 c 128,-1,17
 380 905 380 905 322 693.5 c 128,-1,18
 264 482 264 482 228 340 c 0,19,20
 224 322 224 322 203 309 c 128,-1,21
 182 296 182 296 172 296 c 0,22,23
 160 296 160 296 160 332 c 0,24,25
 160 337 160 337 177.5 476.5 c 128,-1,26
 195 616 195 616 221 818 c 128,-1,27
 247 1020 247 1020 266 1154 c 0,28,29
 271 1188 271 1188 305.5 1225 c 128,-1,30
 340 1262 340 1262 384 1262 c 3,12,13
EndSplineSet
Substitution2: "'smcp' Lowercase to Small Capitals in Latin lookup 3-1" exclam.sc
EndChar
StartChar: quotedbl
Encoding: 34 34 1
Width: 662
VWidth: 0
Flags: W
LayerCount: 2
Fore
SplineSet
648 1396 m 27,0,1
 667 1396 667 1396 678 1394 c 128,-1,2
 689 1392 689 1392 698 1384.5 c 128,-1,3
 707 1377 707 1377 710 1362.5 c 128,-1,4
 713 1348 713 1348 712 1324.5 c 128,-1,5
 711 1301 711 1301 704 1266 c 0,6,7
 692 1204 692 1204 646.5 1078 c 128,-1,8
 601 952 601 952 586 898 c 0,9,10
 582 884 582 884 569 876 c 128,-1,11
 556 868 556 868 544 868 c 128,-1,12
 532 868 532 868 522.5 875.5 c 128,-1,13
 513 883 513 883 514 894 c 0,14,15
 522 974 522 974 522 1044.5 c 128,-1,16
 522 1115 522 1115 518 1180 c 128,-1,17
 514 1245 514 1245 514 1272 c 1,18,19
 520 1307 520 1307 560 1351.5 c 128,-1,20
 600 1396 600 1396 648 1396 c 27,0,1
348 1396 m 27,21,22
 367 1396 367 1396 378 1394 c 128,-1,23
 389 1392 389 1392 398 1384.5 c 128,-1,24
 407 1377 407 1377 410 1362.5 c 128,-1,25
 413 1348 413 1348 412 1324.5 c 128,-1,26
 411 1301 411 1301 404 1266 c 0,27,28
 392 1204 392 1204 346.5 1078 c 128,-1,29
 301 952 301 952 286 898 c 0,30,31
 282 884 282 884 269 876 c 128,-1,32
 256 868 256 868 244 868 c 128,-1,33
 232 868 232 868 222.5 875.5 c 128,-1,34
 213 883 213 883 214 894 c 0,35,36
 222 974 222 974 222 1044.5 c 128,-1,37
 222 1115 222 1115 218 1180 c 128,-1,38
 214 1245 214 1245 214 1272 c 1,39,40
 220 1307 220 1307 260 1351.5 c 128,-1,41
 300 1396 300 1396 348 1396 c 27,21,22
EndSplineSet
EndChar
StartChar: percent
Encoding: 37 37 4
Width: 1260
VWidth: 0
Flags: W
LayerCount: 2
Fore
SplineSet
916 600 m 3,0,1
 826 600 826 600 762 494 c 128,-1,2
 698 388 698 388 698 264 c 0,3,4
 698 223 698 223 705 185.5 c 128,-1,5
 712 148 712 148 726.5 114.5 c 128,-1,6
 741 81 741 81 767.5 60.5 c 128,-1,7
 794 40 794 40 828 40 c 0,8,9
 888 40 888 40 936 95 c 128,-1,10
 984 150 984 150 1008 229.5 c 128,-1,11
 1032 309 1032 309 1032 390 c 0,12,13
 1032 428 1032 428 1026.5 463 c 128,-1,14
 1021 498 1021 498 1008.5 530 c 128,-1,15
 996 562 996 562 972 581 c 128,-1,16
 948 600 948 600 916 600 c 3,0,1
936 654 m 3,17,18
 1045 654 1045 654 1103.5 577 c 128,-1,19
 1162 500 1162 500 1162 390 c 0,20,21
 1162 294 1162 294 1114 200.5 c 128,-1,22
 1066 107 1066 107 982 45.5 c 128,-1,23
 898 -16 898 -16 804 -16 c 0,24,25
 695 -16 695 -16 633.5 60.5 c 128,-1,26
 572 137 572 137 572 246 c 0,27,28
 572 344 572 344 619.5 438 c 128,-1,29
 667 532 667 532 752.5 593 c 128,-1,30
 838 654 838 654 936 654 c 3,17,18
492 1292 m 3,31,32
 402 1292 402 1292 338 1186 c 128,-1,33
 274 1080 274 1080 274 956 c 0,34,35
 274 915 274 915 281 877.5 c 128,-1,36
 288 840 288 840 302.5 806.5 c 128,-1,37
 317 773 317 773 343.5 752.5 c 128,-1,38
 370 732 370 732 404 732 c 0,39,40
 464 732 464 732 512 787 c 128,-1,41
 560 842 560 842 584 921.5 c 128,-1,42
 608 1001 608 1001 608 1082 c 0,43,44
 608 1120 608 1120 602.5 1155 c 128,-1,45
 597 1190 597 1190 584.5 1222 c 128,-1,46
 572 1254 572 1254 548 1273 c 128,-1,47
 524 1292 524 1292 492 1292 c 3,31,32
512 1346 m 3,48,49
 621 1346 621 1346 679.5 1269 c 128,-1,50
 738 1192 738 1192 738 1082 c 0,51,52
 738 986 738 986 690 892.5 c 128,-1,53
 642 799 642 799 558 737.5 c 128,-1,54
 474 676 474 676 380 676 c 0,55,56
 271 676 271 676 209.5 752.5 c 128,-1,57
 148 829 148 829 148 938 c 0,58,59
 148 1036 148 1036 195.5 1130 c 128,-1,60
 243 1224 243 1224 328.5 1285 c 128,-1,61
 414 1346 414 1346 512 1346 c 3,48,49
1294 1300 m 9,62,-1
 102 0 l 2,63,64
 95 -7 95 -7 74 -15.5 c 128,-1,65
 53 -24 53 -24 34 -24 c 0,66,67
 10 -24 10 -24 4 -2 c 1,68,-1
 1196 1304 l 1,69,70
 1218 1326 1218 1326 1240 1326 c 0,71,72
 1284 1326 1284 1326 1294 1300 c 9,62,-1
EndSplineSet
EndChar
StartChar: quotesingle
Encoding: 39 39 6
Width: 362
VWidth: 0
Flags: W
LayerCount: 2
Fore
SplineSet
348 1396 m 27,0,1
 367 1396 367 1396 378 1394 c 128,-1,2
 389 1392 389 1392 398 1384.5 c 128,-1,3
 407 1377 407 1377 410 1362.5 c 128,-1,4
 413 1348 413 1348 412 1324.5 c 128,-1,5
 411 1301 411 1301 404 1266 c 0,6,7
 392 1204 392 1204 346.5 1078 c 128,-1,8
 301 952 301 952 286 898 c 0,9,10
 282 884 282 884 269 876 c 128,-1,11
 256 868 256 868 244 868 c 128,-1,12
 232 868 232 868 222.5 875.5 c 128,-1,13
 213 883 213 883 214 894 c 0,14,15
 222 974 222 974 222 1044.5 c 128,-1,16
 222 1115 222 1115 218 1180 c 128,-1,17
 214 1245 214 1245 214 1272 c 1,18,19
 220 1307 220 1307 260 1351.5 c 128,-1,20
 300 1396 300 1396 348 1396 c 27,0,1
EndSplineSet
EndChar
StartChar: comma
Encoding: 44 44 11
Width: 400
VWidth: 0
Flags: W
LayerCount: 2
Fore
SplineSet
-56 -178 m 1,0,1
 -18 -160 -18 -160 31 -111.5 c 128,-1,2
 80 -63 80 -63 80 -4 c 0,3,4
 80 49 80 49 63 89 c 128,-1,5
 46 129 46 129 46 158 c 0,6,7
 46 203 46 203 78.5 230.5 c 128,-1,8
 111 258 111 258 156 258 c 0,9,10
 196 258 196 258 212 238 c 1,11,12
 218 223 218 223 218 190 c 0,13,14
 218 62 218 62 146 -56 c 0,15,16
 108 -118 108 -118 57 -161.5 c 128,-1,17
 6 -205 6 -205 -28 -218 c 1,18,19
 -34 -218 -34 -218 -45 -203.5 c 128,-1,20
 -56 -189 -56 -189 -56 -178 c 1,0,1
EndSplineSet
EndChar
StartChar: hyphen
Encoding: 45 45 12
Width: 742
VWidth: 0
Flags: W
LayerCount: 2
Fore
SplineSet
148 522 m 2,0,-1
 602 546 l 2,1,2
 614 546 614 546 614 522 c 0,3,4
 614 500 614 500 598 460.5 c 128,-1,5
 582 421 582 421 568 420 c 2,6,-1
 116 398 l 2,7,8
 106 398 106 398 106 428 c 0,9,10
 106 449 106 449 119.5 485 c 128,-1,11
 133 521 133 521 148 522 c 2,0,-1
EndSplineSet
EndChar
StartChar: zero
Encoding: 48 48 15
Width: 998
Flags: W
LayerCount: 2
Fore
SplineSet
258 640 m 1,0,1
 229 479 229 479 231.5 351 c 128,-1,2
 234 223 234 223 273.5 143.5 c 128,-1,3
 313 64 313 64 380 64 c 0,4,5
 460 64 460 64 533.5 146 c 128,-1,6
 607 228 607 228 659.5 358.5 c 128,-1,7
 712 489 712 489 744 650 c 1,8,9
 773 810 773 810 770 935 c 128,-1,10
 767 1060 767 1060 727.5 1136 c 128,-1,11
 688 1212 688 1212 620 1212 c 0,12,13
 544 1212 544 1212 471.5 1134 c 128,-1,14
 399 1056 399 1056 344 927 c 128,-1,15
 289 798 289 798 258 640 c 1,0,1
94 638 m 1,16,17
 120 769 120 769 170 885.5 c 128,-1,18
 220 1002 220 1002 288 1090.5 c 128,-1,19
 356 1179 356 1179 443.5 1230.5 c 128,-1,20
 531 1282 531 1282 624 1282 c 0,21,22
 719 1282 719 1282 787 1230.5 c 128,-1,23
 855 1179 855 1179 887 1090.5 c 128,-1,24
 919 1002 919 1002 925.5 885 c 128,-1,25
 932 768 932 768 904 638 c 1,26,27
 878 507 878 507 828 390.5 c 128,-1,28
 778 274 778 274 710 185.5 c 128,-1,29
 642 97 642 97 554.5 45.5 c 128,-1,30
 467 -6 467 -6 374 -6 c 0,31,32
 282 -6 282 -6 214.5 45.5 c 128,-1,33
 147 97 147 97 114 185.5 c 128,-1,34
 81 274 81 274 73.5 391 c 128,-1,35
 66 508 66 508 94 638 c 1,16,17
EndSplineSet
Substitution2: "'pnum' Proportional Numbers lookup 12-1" zero.prop
Substitution2: "'onum' Oldstyle Figures in Latin lookup 5-1" zero.onum
EndChar
StartChar: one
Encoding: 49 49 16
Width: 998
Flags: W
LayerCount: 2
Fore
SplineSet
412 1068 m 1,0,1
 390 1081 390 1081 394 1108 c 1,2,3
 394 1118 394 1118 400 1120 c 0,4,5
 747 1284 747 1284 756 1284 c 2,6,-1
 760 1284 l 2,7,8
 768 1284 768 1284 772 1270.5 c 128,-1,9
 776 1257 776 1257 776 1246 c 1,10,11
 744 1180 744 1180 720 1058 c 2,12,-1
 568 270 l 1,13,14
 546 148 546 148 548 92 c 0,15,16
 549 78 549 78 597 65 c 128,-1,17
 645 52 645 52 664 52 c 0,18,19
 669 52 669 52 664 16 c 0,20,21
 661 -1 661 -1 658 -6 c 1,22,23
 473 4 473 4 438 4 c 0,24,25
 412 4 412 4 222 -6 c 1,26,27
 216 2 216 2 221 27 c 128,-1,28
 226 52 226 52 234 52 c 0,29,30
 258 52 258 52 311.5 65 c 128,-1,31
 365 78 365 78 372 92 c 0,32,33
 387 125 387 125 404 206 c 1,34,-1
 544 926 l 2,35,36
 554 978 554 978 559 1006 c 128,-1,37
 564 1034 564 1034 565 1060.5 c 128,-1,38
 566 1087 566 1087 560 1097.5 c 128,-1,39
 554 1108 554 1108 540 1108 c 0,40,41
 528 1108 528 1108 482.5 1094.5 c 128,-1,42
 437 1081 437 1081 412 1068 c 1,0,1
EndSplineSet
Substitution2: "'pnum' Proportional Numbers lookup 12-1" one.prop
Substitution2: "'onum' Oldstyle Figures in Latin lookup 5-1" one.onum
EndChar
StartChar: three
Encoding: 51 51 18
Width: 998
Flags: W
LayerCount: 2
Fore
SplineSet
695 1284 m 0,0,1
 774 1284 774 1284 835.5 1226.5 c 128,-1,2
 897 1169 897 1169 897 1066 c 0,3,4
 897 975 897 975 826.5 892 c 128,-1,5
 756 809 756 809 665 758 c 1,6,7
 747 748 747 748 809 664 c 128,-1,8
 871 580 871 580 871 488 c 0,9,10
 871 400 871 400 831.5 318.5 c 128,-1,11
 792 237 792 237 730.5 179 c 128,-1,12
 669 121 669 121 596 77 c 128,-1,13
 523 33 523 33 453 11.5 c 128,-1,14
 383 -10 383 -10 329 -10 c 0,15,16
 191 -10 191 -10 119 40 c 1,17,18
 101 62 101 62 101 96 c 0,19,20
 101 141 101 141 126.5 176.5 c 128,-1,21
 152 212 152 212 185 212 c 0,22,23
 215 212 215 212 233 198 c 128,-1,24
 251 184 251 184 267 155 c 128,-1,25
 283 126 283 126 289 118 c 0,26,27
 312 89 312 89 342.5 79.5 c 128,-1,28
 373 70 373 70 417 70 c 128,-1,29
 461 70 461 70 510 96.5 c 128,-1,30
 559 123 559 123 602 168.5 c 128,-1,31
 645 214 645 214 673 285.5 c 128,-1,32
 701 357 701 357 701 438 c 0,33,34
 701 539 701 539 649.5 596.5 c 128,-1,35
 598 654 598 654 507 654 c 0,36,37
 469 654 469 654 389 634 c 1,38,39
 381 647 381 647 381 662 c 0,40,41
 381 687 381 687 387 696 c 1,42,43
 471 711 471 711 552 753.5 c 128,-1,44
 633 796 633 796 692 869.5 c 128,-1,45
 751 943 751 943 751 1026 c 0,46,47
 751 1104 751 1104 708.5 1140 c 128,-1,48
 666 1176 666 1176 597 1176 c 0,49,50
 556 1176 556 1176 515 1158.5 c 128,-1,51
 474 1141 474 1141 449.5 1122 c 128,-1,52
 425 1103 425 1103 401 1080.5 c 128,-1,53
 377 1058 377 1058 375 1056 c 1,54,55
 367 1056 367 1056 364 1073 c 128,-1,56
 361 1090 361 1090 365 1104 c 1,57,58
 514 1284 514 1284 695 1284 c 0,0,1
EndSplineSet
Substitution2: "'pnum' Proportional Numbers lookup 12-1" three.prop
Substitution2: "'onum' Oldstyle Figures in Latin lookup 5-1" three.onum
EndChar
StartChar: four
Encoding: 52 52 19
Width: 998
Flags: W
LayerCount: 2
Fore
SplineSet
904 1288 m 0,0,1
 917 1288 917 1288 925 1276 c 128,-1,2
 933 1264 933 1264 930 1252 c 2,3,-1
 776 462 l 1,4,-1
 888 462 l 2,5,6
 897 462 897 462 900.5 437 c 128,-1,7
 904 412 904 412 898 380 c 0,8,9
 894 364 894 364 884 348 c 1,10,-1
 754 348 l 1,11,-1
 686 -2 l 1,12,13
 672 -12 672 -12 600 -12 c 0,14,15
 582 -12 582 -12 570.5 -11.5 c 128,-1,16
 559 -11 559 -11 550 -9.5 c 128,-1,17
 541 -8 541 -8 537 -4.5 c 128,-1,18
 533 -1 533 -1 534 4 c 2,19,-1
 602 348 l 1,20,-1
 78 348 l 1,21,22
 63 358 63 358 68 386 c 1,23,-1
 838 1238 l 2,24,25
 851 1253 851 1253 873 1270.5 c 128,-1,26
 895 1288 895 1288 904 1288 c 0,0,1
738 1048 m 25,27,-1
 210 462 l 1,28,-1
 624 462 l 1,29,-1
 738 1048 l 25,27,-1
EndSplineSet
Substitution2: "'pnum' Proportional Numbers lookup 12-1" four.prop
Substitution2: "'onum' Oldstyle Figures in Latin lookup 5-1" four.onum
EndChar
StartChar: seven
Encoding: 55 55 22
Width: 998
Flags: W
LayerCount: 2
Fore
SplineSet
56 28 m 1,0,1
 173 176 173 176 355.5 447.5 c 128,-1,2
 538 719 538 719 662 916.5 c 2,3,-1
 786 1114 l 1,4,-1
 322 1114 l 2,5,6
 296 1114 296 1114 271 1100 c 128,-1,7
 246 1086 246 1086 224.5 1059.5 c 128,-1,8
 203 1033 203 1033 189.5 1012 c 128,-1,9
 176 991 176 991 158 960 c 0,10,11
 155 954 155 954 144 954 c 0,12,13
 119 954 119 954 102 964 c 1,14,15
 106 974 106 974 164 1099 c 128,-1,16
 222 1224 222 1224 234 1266 c 1,17,-1
 806 1266 l 2,18,19
 834 1266 834 1266 882 1269 c 128,-1,20
 930 1272 930 1272 932 1272 c 0,21,22
 944 1272 944 1272 940 1254 c 0,23,24
 938 1245 938 1245 929.5 1229 c 128,-1,25
 921 1213 921 1213 912.5 1199.5 c 128,-1,26
 904 1186 904 1186 886.5 1159.5 c 128,-1,27
 869 1133 869 1133 860 1120 c 2,28,-1
 152 -6 l 1,29,30
 146 -12 146 -12 132 -12 c 0,31,32
 109 -12 109 -12 81 1.5 c 128,-1,33
 53 15 53 15 56 28 c 1,0,1
EndSplineSet
Substitution2: "'pnum' Proportional Numbers lookup 12-1" seven.prop
Substitution2: "'onum' Oldstyle Figures in Latin lookup 5-1" seven.onum
EndChar
StartChar: eight
Encoding: 56 56 23
Width: 998
Flags: W
LayerCount: 2
Fore
SplineSet
652 1286 m 0,0,1
 781 1286 781 1286 852.5 1203 c 128,-1,2
 924 1120 924 1120 898 982 c 0,3,4
 869 831 869 831 632 688 c 1,5,6
 621 685 621 685 630 676 c 1,7,8
 716 616 716 616 771.5 524.5 c 128,-1,9
 827 433 827 433 808 334 c 0,10,11
 780 187 780 187 653 84.5 c 128,-1,12
 526 -18 526 -18 384 -18 c 0,13,14
 231 -18 231 -18 152.5 72.5 c 128,-1,15
 74 163 74 163 102 308 c 0,16,17
 111 355 111 355 136 399.5 c 128,-1,18
 161 444 161 444 190 475.5 c 128,-1,19
 219 507 219 507 259 538.5 c 128,-1,20
 299 570 299 570 327 588 c 128,-1,21
 355 606 355 606 388.62390799 625.516438555 c 0,22,23
 401 633 401 633 406 636 c 0,24,25
 418 644 418 644 410 648 c 1,26,27
 346 695 346 695 303.5 777.5 c 128,-1,28
 261 860 261 860 280 960 c 1,29,30
 306 1088 306 1088 418 1187 c 128,-1,31
 530 1286 530 1286 652 1286 c 0,0,1
628 1216 m 0,32,33
 559 1216 559 1216 501 1151.5 c 128,-1,34
 443 1087 443 1087 422 984 c 1,35,36
 396 849 396 849 566 728 c 1,37,38
 574 724 574 724 576 724 c 0,39,40
 582 724 582 724 588 728 c 0,41,42
 731 818 731 818 762 972 c 0,43,44
 773 1031 773 1031 762.5 1086.5 c 128,-1,45
 752 1142 752 1142 716.5 1179 c 128,-1,46
 681 1216 681 1216 628 1216 c 0,32,33
402 54 m 0,47,48
 494 54 494 54 560.5 114 c 128,-1,49
 627 174 627 174 646 276 c 0,50,51
 655 323 655 323 640.5 371.5 c 128,-1,52
 626 420 626 420 604.5 453 c 128,-1,53
 583 486 583 486 548 521 c 128,-1,54
 513 556 513 556 499.5 566.5 c 128,-1,55
 486 577 486 577 468 590 c 1,56,57
 460 594 460 594 458 594 c 0,58,59
 452 594 452 594 450 592 c 0,60,61
 362 539 362 539 315 474 c 128,-1,62
 268 409 268 409 250 314 c 0,63,64
 227 197 227 197 275 125.5 c 128,-1,65
 323 54 323 54 402 54 c 0,47,48
EndSplineSet
Substitution2: "'pnum' Proportional Numbers lookup 12-1" eight.prop
Substitution2: "'onum' Oldstyle Figures in Latin lookup 5-1" eight.onum
EndChar
StartChar: nine
Encoding: 57 57 24
Width: 998
VWidth: 0
Flags: W
LayerCount: 2
Fore
SplineSet
426 514 m 0,0,1
 313 514 313 514 239.5 602 c 128,-1,2
 166 690 166 690 166 814 c 0,3,4
 166 927 166 927 233.5 1037.5 c 128,-1,5
 301 1148 301 1148 407 1217 c 128,-1,6
 513 1286 513 1286 620 1286 c 0,7,8
 753 1286 753 1286 833.5 1190 c 128,-1,9
 914 1094 914 1094 914 928 c 0,10,11
 914 801 914 801 851.5 643.5 c 128,-1,12
 789 486 789 486 666 346 c 0,13,14
 576 244 576 244 422 145 c 128,-1,15
 268 46 268 46 98 -12 c 1,16,17
 90 -12 90 -12 86 7 c 128,-1,18
 82 26 82 26 84 38 c 1,19,20
 516 222 516 222 666 574 c 0,21,22
 750 772 750 772 750 954 c 0,23,24
 750 1021 750 1021 736.5 1078 c 128,-1,25
 723 1135 723 1135 687 1177.5 c 128,-1,26
 651 1220 651 1220 596 1220 c 0,27,28
 555 1220 555 1220 508 1191 c 128,-1,29
 461 1162 461 1162 420.5 1112.5 c 128,-1,30
 380 1063 380 1063 353 986.5 c 128,-1,31
 326 910 326 910 326 826 c 0,32,33
 326 727 326 727 373 667.5 c 128,-1,34
 420 608 420 608 518 608 c 0,35,36
 564 608 564 608 614 636 c 1,37,38
 626 628 626 628 626 616 c 0,39,40
 626 596 626 596 550 555 c 128,-1,41
 474 514 474 514 426 514 c 0,0,1
EndSplineSet
Substitution2: "'pnum' Proportional Numbers lookup 12-1" nine.prop
Substitution2: "'onum' Oldstyle Figures in Latin lookup 5-1" nine.onum
EndChar
StartChar: semicolon
Encoding: 59 59 26
Width: 504
VWidth: 0
Flags: W
LayerCount: 2
Fore
SplineSet
198 734 m 0,0,1
 198 790 198 790 241 833 c 0,2,3
 284 876 284 876 336 876 c 0,4,5
 376 876 376 876 401 849.5 c 0,6,7
 426 823 426 823 426 782 c 0,8,9
 426 726 426 726 383.5 681 c 0,10,11
 341 636 341 636 290 636 c 0,12,13
 250 636 250 636 224 664 c 0,14,15
 198 692 198 692 198 734 c 0,0,1
EndSplineSet
Refer: 11 44 N 1 0 0 1 22 0 2
Substitution2: "'smcp' Lowercase to Small Capitals in Latin lookup 3-1" semicolon.sc
EndChar
StartChar: less
Encoding: 60 60 27
Width: 894
VWidth: 0
Flags: W
LayerCount: 2
Fore
SplineSet
174 418 m 1,0,-1
 722 82 l 2,1,2
 726 80 726 80 726 72 c 0,3,4
 726 53 726 53 705 12.5 c 128,-1,5
 684 -28 684 -28 676 -28 c 0,6,7
 672 -28 672 -28 668 -26 c 2,8,-1
 44 354 l 2,9,10
 24 367 24 367 24 406 c 0,11,12
 24 458 24 458 70 482 c 1,13,-1
 832 856 l 2,14,15
 836 858 836 858 840 858 c 128,-1,16
 844 858 844 858 849 833.5 c 128,-1,17
 854 809 854 809 854 788 c 0,18,19
 854 753 854 753 844 748 c 2,20,-1
 174 418 l 1,0,-1
EndSplineSet
Substitution2: "'smcp' Lowercase to Small Capitals in Latin lookup 3-1" less.sc
EndChar
StartChar: question
Encoding: 63 63 30
Width: 640
VWidth: 0
Flags: W
LayerCount: 2
Fore
SplineSet
80 64 m 0,0,1
 80 120 80 120 120 162 c 128,-1,2
 160 204 160 204 210 204 c 0,3,4
 249 204 249 204 274.5 177.5 c 128,-1,5
 300 151 300 151 300 112 c 0,6,7
 300 58 300 58 257 15 c 128,-1,8
 214 -28 214 -28 164 -28 c 0,9,10
 126 -28 126 -28 103 -2 c 128,-1,11
 80 24 80 24 80 64 c 0,0,1
350 394 m 1,12,13
 350 388 350 388 343.5 377 c 128,-1,14
 337 366 337 366 330 362 c 1,15,16
 284 362 284 362 208 426.5 c 128,-1,17
 132 491 132 491 132 566 c 0,18,19
 132 624 132 624 158 662 c 128,-1,20
 184 700 184 700 230 732 c 0,21,22
 394 844 394 844 462 892 c 0,23,24
 554 956 554 956 554 1044 c 0,25,26
 554 1101 554 1101 525 1132.5 c 128,-1,27
 496 1164 496 1164 450 1164 c 0,28,29
 421 1164 421 1164 398 1149.5 c 128,-1,30
 375 1135 375 1135 363.5 1118 c 128,-1,31
 352 1101 352 1101 331.5 1086.5 c 128,-1,32
 311 1072 311 1072 286 1072 c 0,33,34
 248 1072 248 1072 233 1105 c 128,-1,35
 218 1138 218 1138 218 1176 c 1,36,37
 226 1201 226 1201 281.5 1231.5 c 128,-1,38
 337 1262 337 1262 390 1262 c 0,39,40
 499 1262 499 1262 577.5 1181.5 c 128,-1,41
 656 1101 656 1101 656 1004 c 0,42,43
 656 878 656 878 567 796 c 0,44,45
 546 776 546 776 513.5 754.5 c 128,-1,46
 481 733 481 733 429.5 701 c 128,-1,47
 378 669 378 669 338 642 c 0,48,49
 301 617 301 617 286.5 590 c 128,-1,50
 272 563 272 563 272 522 c 0,51,52
 272 484 272 484 298.5 448 c 128,-1,53
 325 412 325 412 350 394 c 1,12,13
EndSplineSet
Substitution2: "'smcp' Lowercase to Small Capitals in Latin lookup 3-1" question.sc
EndChar
StartChar: D
Encoding: 68 68 35
Width: 1368
Flags: W
LayerCount: 2
Fore
SplineSet
504 1092 m 2,0,-1
 334 224 l 2,1,2
 328 195 328 195 321 141.5 c 128,-1,3
 314 88 314 88 318 80 c 0,4,5
 331 52 331 52 464 52 c 0,6,7
 573 52 573 52 673.5 87.5 c 128,-1,8
 774 123 774 123 859.5 192 c 128,-1,9
 945 261 945 261 1008 372.5 c 128,-1,10
 1071 484 1071 484 1099 626 c 1,11,12
 1129 796 1129 796 1113 916.5 c 128,-1,13
 1097 1037 1097 1037 1035 1113.5 c 128,-1,14
 973 1190 973 1190 883.5 1226 c 128,-1,15
 794 1262 794 1262 676 1262 c 0,16,17
 553 1262 553 1262 542 1240 c 0,18,19
 526 1208 526 1208 504 1092 c 2,0,-1
737 1316 m 0,20,21
 864 1316 864 1316 967 1284 c 128,-1,22
 1070 1252 1070 1252 1138.5 1194.5 c 128,-1,23
 1207 1137 1207 1137 1250.5 1056 c 128,-1,24
 1294 975 1294 975 1302 877.5 c 128,-1,25
 1310 780 1310 780 1291 668 c 1,26,27
 1270 561 1270 561 1231.5 467 c 128,-1,28
 1193 373 1193 373 1125 285 c 128,-1,29
 1057 197 1057 197 966.5 134 c 128,-1,30
 876 71 876 71 745 33 c 128,-1,31
 614 -5 614 -5 457 -6 c 1,32,-1
 -9 -6 l 1,33,34
 -15 2 -15 2 -10 23 c 128,-1,35
 -5 44 -5 44 3 52 c 1,36,37
 31 52 31 52 81 61 c 128,-1,38
 131 70 131 70 137 84 c 0,39,40
 151 112 151 112 175 232 c 2,41,-1
 341 1086 l 1,42,43
 365 1204 365 1204 361 1234 c 0,44,45
 360 1248 360 1248 313.5 1257 c 128,-1,46
 267 1266 267 1266 239 1266 c 1,47,48
 234 1273 234 1273 237 1295 c 128,-1,49
 240 1317 240 1317 249 1324 c 1,50,51
 439 1314 439 1314 467 1314 c 0,52,53
 502 1314 502 1314 598.5 1315 c 128,-1,54
 695 1316 695 1316 737 1316 c 0,20,21
EndSplineSet
EndChar
StartChar: F
Encoding: 70 70 37
Width: 1016
Flags: W
LayerCount: 2
Fore
SplineSet
466 1314 m 0,0,1
 550 1314 550 1314 756 1321 c 128,-1,2
 962 1328 962 1328 1066 1328 c 1,3,4
 1062 1303 1062 1303 1065 1188 c 128,-1,5
 1068 1073 1068 1073 1068 1056 c 1,6,7
 1058 1046 1058 1046 1032 1046 c 0,8,9
 1010 1046 1010 1046 1010 1060 c 0,10,11
 1003 1173 1003 1173 958.5 1216.5 c 128,-1,12
 914 1260 914 1260 834 1260 c 2,13,-1
 674 1260 l 2,14,15
 553 1260 553 1260 542 1238 c 0,16,17
 521 1196 521 1196 502 1094 c 2,18,-1
 428 710 l 2,19,20
 427 706 427 706 433.5 703.5 c 128,-1,21
 440 701 440 701 451.5 700 c 128,-1,22
 463 699 463 699 476 698.5 c 128,-1,23
 489 698 489 698 506 698 c 2,24,-1
 604 698 l 2,25,26
 650 698 650 698 676 699 c 128,-1,27
 702 700 702 700 725.5 705 c 128,-1,28
 749 710 749 710 761 717.5 c 128,-1,29
 773 725 773 725 785 740 c 128,-1,30
 797 755 797 755 806 774 c 128,-1,31
 815 793 815 793 827.845623473 823.341505471 c 0,32,33
 833 835 833 835 836 842 c 0,34,35
 842 856 842 856 868 856 c 0,36,37
 889 856 889 856 896 846 c 1,38,-1
 824 468 l 1,39,40
 816 460 816 460 792 460 c 0,41,42
 769 460 769 460 766 476 c 1,43,44
 762 557 762 557 756.5 581.5 c 128,-1,45
 751 606 751 606 740 616 c 1,46,47
 719 632 719 632 546 632 c 0,48,49
 412 632 412 632 408 614 c 2,50,-1
 334 232 l 2,51,52
 312 120 312 120 316 84 c 0,53,54
 317 70 317 70 371.5 61 c 128,-1,55
 426 52 426 52 456 52 c 1,56,57
 461 45 461 45 457 23 c 128,-1,58
 453 1 453 1 444 -6 c 1,59,60
 254 4 254 4 210 4 c 0,61,62
 164 4 164 4 94 -1 c 128,-1,63
 24 -6 24 -6 -10 -6 c 1,64,65
 -16 2 -16 2 -12 23 c 128,-1,66
 -8 44 -8 44 0 52 c 1,67,68
 28 52 28 52 79 61 c 128,-1,69
 130 70 130 70 136 84 c 0,70,71
 150 112 150 112 174 232 c 2,72,-1
 340 1086 l 2,73,74
 362 1198 362 1198 358 1234 c 0,75,76
 357 1248 357 1248 310.5 1257 c 128,-1,77
 264 1266 264 1266 236 1266 c 1,78,79
 231 1273 231 1273 235 1295 c 128,-1,80
 239 1317 239 1317 248 1324 c 1,81,82
 438 1314 438 1314 466 1314 c 0,0,1
EndSplineSet
EndChar
StartChar: J
Encoding: 74 74 41
Width: 626
Flags: W
LayerCount: 2
Fore
SplineSet
327 1086 m 2,0,1
 349 1204 349 1204 345 1234 c 0,2,3
 344 1248 344 1248 297.5 1257 c 128,-1,4
 251 1266 251 1266 223 1266 c 1,5,6
 218 1273 218 1273 222 1295 c 128,-1,7
 226 1317 226 1317 235 1324 c 1,8,9
 425 1314 425 1314 453 1314 c 0,10,11
 478 1314 478 1314 673 1324 c 1,12,13
 679 1316 679 1316 674 1295 c 128,-1,14
 669 1274 669 1274 661 1266 c 1,15,16
 633 1266 633 1266 583 1257 c 128,-1,17
 533 1248 533 1248 527 1234 c 0,18,19
 510 1200 510 1200 489 1086 c 2,20,-1
 328 232 l 2,21,22
 299 80 299 80 249 -43 c 128,-1,23
 199 -166 199 -166 142 -242.5 c 128,-1,24
 85 -319 85 -319 20 -371.5 c 128,-1,25
 -45 -424 -45 -424 -102 -445 c 128,-1,26
 -159 -466 -159 -466 -210 -466 c 1,27,28
 -216 -457 -216 -457 -216 -440 c 1,29,-1
 -214 -428 l 1,30,31
 -52 -377 -52 -377 30.5 -230 c 128,-1,32
 113 -83 113 -83 168 218 c 2,33,-1
 327 1086 l 2,0,1
EndSplineSet
EndChar
StartChar: L
Encoding: 76 76 43
Width: 1060
Flags: W
LayerCount: 2
Fore
SplineSet
332 224 m 2,0,1
 305 91 305 91 316 80 c 0,2,3
 330 66 330 66 354 63 c 128,-1,4
 378 60 378 60 444 60 c 2,5,-1
 550 60 l 2,6,7
 670 60 670 60 766 114 c 0,8,9
 864 170 864 170 937 324 c 0,10,11
 943 336 943 336 967 336 c 0,12,13
 1003 336 1003 336 1011 324 c 1,14,15
 998 299 998 299 954 218 c 128,-1,16
 910 137 910 137 884 84.5 c 128,-1,17
 858 32 858 32 845 -8 c 1,18,19
 750 -8 750 -8 546.5 -4 c 128,-1,20
 343 0 343 0 213 0 c 0,21,22
 167 0 167 0 96 -3 c 128,-1,23
 25 -6 25 -6 -9 -6 c 1,24,25
 -15 2 -15 2 -10 23 c 128,-1,26
 -5 44 -5 44 3 52 c 1,27,28
 31 52 31 52 81 61 c 128,-1,29
 131 70 131 70 137 84 c 0,30,31
 151 112 151 112 175 232 c 2,32,-1
 341 1086 l 1,33,34
 365 1204 365 1204 361 1234 c 0,35,36
 360 1248 360 1248 313.5 1257 c 128,-1,37
 267 1266 267 1266 239 1266 c 1,38,39
 234 1273 234 1273 237 1295 c 128,-1,40
 240 1317 240 1317 249 1324 c 1,41,42
 439 1314 439 1314 467 1314 c 0,43,44
 492 1314 492 1314 687 1324 c 1,45,46
 693 1316 693 1316 688 1295 c 128,-1,47
 683 1274 683 1274 675 1266 c 1,48,49
 647 1266 647 1266 597 1257 c 128,-1,50
 547 1248 547 1248 541 1234 c 0,51,52
 524 1200 524 1200 503 1086 c 1,53,-1
 332 224 l 2,0,1
EndSplineSet
EndChar
StartChar: N
Encoding: 78 78 45
Width: 1464
Flags: W
LayerCount: 2
Fore
SplineSet
1256 1082 m 2,0,1
 1276 1187 1276 1187 1262 1226 c 0,2,3
 1255 1244 1255 1244 1208 1255 c 128,-1,4
 1161 1266 1161 1266 1128 1266 c 1,5,6
 1124 1277 1124 1277 1126.5 1296.5 c 128,-1,7
 1129 1316 1129 1316 1134 1324 c 1,8,9
 1282 1316 1282 1316 1338 1316 c 0,10,11
 1374 1316 1374 1316 1546 1324 c 1,12,13
 1557 1296 1557 1296 1538 1266 c 1,14,15
 1512 1266 1512 1266 1456 1255 c 128,-1,16
 1400 1244 1400 1244 1388 1228 c 0,17,18
 1372 1206 1372 1206 1363.5 1179 c 128,-1,19
 1355 1152 1355 1152 1344 1092 c 2,20,-1
 1186 278 l 2,21,22
 1149 85 1149 85 1136 -2 c 1,23,24
 1128 -10 1128 -10 1102 -10 c 0,25,26
 1089 -10 1089 -10 1073.5 3 c 128,-1,27
 1058 16 1058 16 1048 36 c 2,28,-1
 448 1138 l 1,29,-1
 272 230 l 2,30,31
 260 169 260 169 258 146 c 128,-1,32
 256 123 256 123 264 92 c 1,33,34
 269 78 269 78 320 65 c 128,-1,35
 371 52 371 52 398 52 c 1,36,37
 402 40 402 40 398.5 22.5 c 128,-1,38
 395 5 395 5 390 -6 c 1,39,40
 205 4 205 4 182 4 c 0,41,42
 144 4 144 4 113 2.5 c 128,-1,43
 82 1 82 1 44.5 -2 c 128,-1,44
 7 -5 7 -5 -24 -6 c 1,45,46
 -28 0 -28 0 -25 18.5 c 128,-1,47
 -22 37 -22 37 -12 52 c 1,48,49
 14 52 14 52 71 64 c 128,-1,50
 128 76 128 76 140 92 c 0,51,52
 168 130 168 130 186 228 c 2,53,-1
 354 1096 l 2,54,55
 365 1157 365 1157 367 1181 c 128,-1,56
 369 1205 369 1205 362 1232 c 0,57,58
 357 1248 357 1248 306 1257 c 128,-1,59
 255 1266 255 1266 226 1266 c 1,60,61
 217 1300 217 1300 236 1324 c 1,62,63
 404 1316 404 1316 406 1316 c 0,64,65
 466 1316 466 1316 570 1324 c 1,66,67
 601 1246 601 1246 817 864.5 c 128,-1,68
 1033 483 1033 483 1108 324 c 1,69,-1
 1256 1082 l 2,0,1
EndSplineSet
EndChar
StartChar: P
Encoding: 80 80 47
Width: 1022
Flags: W
LayerCount: 2
Fore
SplineSet
1045 1016 m 0,0,1
 1045 891 1045 891 979.5 786.5 c 128,-1,2
 914 682 914 682 807 623 c 128,-1,3
 700 564 700 564 579 564 c 0,4,5
 550 564 550 564 524.5 570.5 c 128,-1,6
 499 577 499 577 490 584 c 1,7,8
 474 600 474 600 474 616 c 0,9,10
 474 620 474 620 482 624 c 1,11,12
 498 616 498 616 548 616 c 0,13,14
 604 616 604 616 660.5 643 c 128,-1,15
 717 670 717 670 763 717.5 c 128,-1,16
 809 765 809 765 838 836 c 128,-1,17
 867 907 867 907 867 988 c 0,18,19
 867 1260 867 1260 636 1260 c 0,20,21
 551 1260 551 1260 540 1240 c 0,22,23
 528 1219 528 1219 502 1090 c 2,24,-1
 333 232 l 1,25,26
 311 114 311 114 315 84 c 0,27,28
 316 70 316 70 362.5 61 c 128,-1,29
 409 52 409 52 437 52 c 1,30,31
 442 45 442 45 438 23 c 128,-1,32
 434 1 434 1 425 -6 c 1,33,34
 235 4 235 4 209 4 c 0,35,36
 184 4 184 4 -11 -6 c 1,37,38
 -17 2 -17 2 -13 23 c 128,-1,39
 -9 44 -9 44 -1 52 c 1,40,41
 27 52 27 52 78 61 c 128,-1,42
 129 70 129 70 135 84 c 0,43,44
 149 112 149 112 173 232 c 2,45,-1
 339 1086 l 2,46,47
 361 1198 361 1198 357 1234 c 0,48,49
 356 1248 356 1248 309.5 1257 c 128,-1,50
 263 1266 263 1266 235 1266 c 1,51,52
 230 1273 230 1273 234 1295 c 128,-1,53
 238 1317 238 1317 247 1324 c 1,54,55
 437 1314 437 1314 469 1314 c 0,56,57
 500 1314 500 1314 562 1316 c 128,-1,58
 624 1318 624 1318 684 1318 c 0,59,60
 844 1318 844 1318 944.5 1235 c 128,-1,61
 1045 1152 1045 1152 1045 1016 c 0,0,1
EndSplineSet
EndChar
StartChar: Q
Encoding: 81 81 48
Width: 1420
Flags: W
LayerCount: 2
Fore
SplineSet
830 1330 m 0,0,1
 984 1330 984 1330 1102 1255 c 128,-1,2
 1220 1180 1220 1180 1282 1052 c 128,-1,3
 1344 924 1344 924 1344 764 c 0,4,5
 1344 613 1344 613 1300 479 c 128,-1,6
 1256 345 1256 345 1179 246.5 c 128,-1,7
 1102 148 1102 148 997.5 81.5 c 128,-1,8
 893 15 893 15 772 -9 c 1,9,10
 806 -29 806 -29 864.5 -67 c 128,-1,11
 923 -105 923 -105 950.5 -119.5 c 128,-1,12
 978 -134 978 -134 1031 -148 c 128,-1,13
 1084 -162 1084 -162 1149 -162 c 0,14,15
 1241 -162 1241 -162 1332 -136 c 1,16,17
 1342 -136 1342 -136 1356 -146 c 128,-1,18
 1370 -156 1370 -156 1370 -162 c 1,19,20
 1154 -272 1154 -272 1018 -272 c 0,21,22
 951 -272 951 -272 879 -239 c 128,-1,23
 807 -206 807 -206 750.5 -163.5 c 128,-1,24
 694 -121 694 -121 612 -69.5 c 128,-1,25
 530 -18 530 -18 456 8 c 0,26,27
 299 64 299 64 210.5 209.5 c 128,-1,28
 122 355 122 355 122 546 c 0,29,30
 122 714 122 714 181.5 862 c 128,-1,31
 241 1010 241 1010 339 1111.5 c 128,-1,32
 437 1213 437 1213 565.5 1271.5 c 128,-1,33
 694 1330 694 1330 830 1330 c 0,0,1
812 1270 m 0,34,35
 718 1270 718 1270 627.5 1213.5 c 128,-1,36
 537 1157 537 1157 466.5 1061 c 128,-1,37
 396 965 396 965 353 827 c 128,-1,38
 310 689 310 689 310 536 c 0,39,40
 310 462 310 462 319.5 395 c 128,-1,41
 329 328 329 328 353.5 261 c 128,-1,42
 378 194 378 194 415.5 145.5 c 128,-1,43
 453 97 453 97 515 66.5 c 128,-1,44
 577 36 577 36 656 36 c 0,45,46
 767 36 767 36 862.5 102.5 c 128,-1,47
 958 169 958 169 1021 276.5 c 128,-1,48
 1084 384 1084 384 1120 517.5 c 128,-1,49
 1156 651 1156 651 1156 786 c 0,50,51
 1156 850 1156 850 1147.5 911 c 128,-1,52
 1139 972 1139 972 1115.5 1039 c 128,-1,53
 1092 1106 1092 1106 1055 1155.5 c 128,-1,54
 1018 1205 1018 1205 955.5 1237.5 c 128,-1,55
 893 1270 893 1270 812 1270 c 0,34,35
EndSplineSet
EndChar
StartChar: T
Encoding: 84 84 51
Width: 1174
Flags: W
LayerCount: 2
Fore
SplineSet
1100 1310 m 2,0,1
 1121 1310 1121 1310 1160 1320 c 128,-1,2
 1199 1330 1199 1330 1218 1340 c 0,3,4
 1241 1352 1241 1352 1254 1344 c 1,5,6
 1236 1124 1236 1124 1236 1000 c 1,7,8
 1219 983 1219 983 1196 986 c 1,9,10
 1175 986 1175 986 1172 996 c 1,11,12
 1174 1107 1174 1107 1142 1173.5 c 128,-1,13
 1110 1240 1110 1240 1044 1240 c 2,14,-1
 808 1240 l 1,15,-1
 610 232 l 2,16,17
 586 114 586 114 590 84 c 0,18,19
 591 70 591 70 637.5 61 c 128,-1,20
 684 52 684 52 712 52 c 1,21,22
 717 45 717 45 714 23 c 128,-1,23
 711 1 711 1 702 -6 c 1,24,25
 512 4 512 4 486 4 c 0,26,27
 459 4 459 4 264 -6 c 1,28,29
 258 2 258 2 263 23 c 128,-1,30
 268 44 268 44 276 52 c 1,31,32
 304 52 304 52 354 61 c 128,-1,33
 404 70 404 70 410 84 c 0,34,35
 424 112 424 112 448 232 c 2,36,-1
 646 1240 l 1,37,-1
 406 1240 l 2,38,39
 340 1240 340 1240 281.5 1173.5 c 128,-1,40
 223 1107 223 1107 180 996 c 1,41,42
 173 986 173 986 152 986 c 1,43,44
 129 983 129 983 118 1000 c 1,45,46
 175 1143 175 1143 234 1344 c 1,47,48
 250 1352 250 1352 274 1338 c 0,49,50
 290 1328 290 1328 321.5 1319 c 128,-1,51
 353 1310 353 1310 374 1310 c 2,52,-1
 1100 1310 l 2,0,1
EndSplineSet
EndChar
StartChar: Y
Encoding: 89 89 56
Width: 1112
Flags: W
LayerCount: 2
Fore
SplineSet
422 232 m 2,0,-1
 480 534 l 1,1,2
 485 567 485 567 478 590 c 2,3,-1
 312 1096 l 2,4,5
 295 1150 295 1150 273.5 1179.5 c 128,-1,6
 252 1209 252 1209 216 1234 c 0,7,8
 196 1248 196 1248 166.5 1257 c 128,-1,9
 137 1266 137 1266 118 1266 c 1,10,11
 114 1268 114 1268 114 1279 c 128,-1,12
 114 1290 114 1290 119 1304.5 c 128,-1,13
 124 1319 124 1319 130 1324 c 1,14,15
 161 1323 161 1323 205 1320 c 128,-1,16
 249 1317 249 1317 284 1315.5 c 128,-1,17
 319 1314 319 1314 360 1314 c 0,18,19
 410 1314 410 1314 600 1324 c 1,20,21
 602 1313 602 1313 597.5 1289.5 c 128,-1,22
 593 1266 593 1266 586 1266 c 0,23,24
 568 1266 568 1266 544 1261.5 c 128,-1,25
 520 1257 520 1257 493.5 1241.5 c 128,-1,26
 467 1226 467 1226 462 1202 c 0,27,28
 458 1187 458 1187 472 1142 c 1,29,-1
 633 661 l 1,30,31
 727 793 727 793 842.5 965.5 c 128,-1,32
 958 1138 958 1138 984 1184 c 0,33,34
 993 1198 993 1198 996 1214 c 0,35,36
 997 1222 997 1222 988 1232.5 c 128,-1,37
 979 1243 979 1243 948 1253.5 c 128,-1,38
 917 1264 917 1264 870 1264 c 1,39,40
 866 1269 866 1269 869.5 1292.5 c 128,-1,41
 873 1316 873 1316 878 1322 c 1,42,43
 1048 1312 1048 1312 1064 1312 c 0,44,45
 1107 1312 1107 1312 1139 1313.5 c 128,-1,46
 1171 1315 1171 1315 1208 1318 c 128,-1,47
 1245 1321 1245 1321 1270 1322 c 1,48,49
 1270 1315 1270 1315 1264 1289.5 c 128,-1,50
 1258 1264 1258 1264 1254 1264 c 0,51,52
 1241 1264 1241 1264 1227 1262.5 c 128,-1,53
 1213 1261 1213 1261 1183.5 1254.5 c 128,-1,54
 1154 1248 1154 1248 1125 1230 c 128,-1,55
 1096 1212 1096 1212 1076 1184 c 2,56,-1
 666 602 l 2,57,58
 659 592 659 592 655.5 582.5 c 128,-1,59
 652 573 652 573 649 557 c 128,-1,60
 646 541 646 541 646 540 c 2,61,-1
 584 232 l 2,62,63
 560 114 560 114 564 84 c 0,64,65
 565 70 565 70 611.5 61 c 128,-1,66
 658 52 658 52 686 52 c 1,67,68
 691 45 691 45 688 23 c 128,-1,69
 685 1 685 1 676 -6 c 1,70,71
 486 4 486 4 460 4 c 0,72,73
 433 4 433 4 238 -6 c 1,74,75
 232 2 232 2 237 23 c 128,-1,76
 242 44 242 44 250 52 c 1,77,78
 278 52 278 52 328 61 c 128,-1,79
 378 70 378 70 384 84 c 0,80,81
 398 112 398 112 422 232 c 2,0,-1
EndSplineSet
EndChar
StartChar: Z
Encoding: 90 90 57
Width: 1204
Flags: W
LayerCount: 2
Fore
SplineSet
559 1258 m 2,0,1
 467 1257 467 1257 387 1183.5 c 128,-1,2
 307 1110 307 1110 251 984 c 1,3,4
 246 976 246 976 229 976 c 0,5,6
 217 976 217 976 201.5 981.5 c 128,-1,7
 186 987 186 987 183 992 c 1,8,9
 247 1111 247 1111 311 1338 c 1,10,11
 412 1322 412 1322 461 1322 c 2,12,-1
 823 1322 l 2,13,14
 954 1322 954 1322 1217 1342 c 1,15,16
 1224 1340 1224 1340 1234 1324.5 c 128,-1,17
 1244 1309 1244 1309 1241 1298 c 0,18,19
 1238 1289 1238 1289 1071 1086.5 c 128,-1,20
 904 884 904 884 650.5 583 c 128,-1,21
 397 282 397 282 206 64 c 1,22,-1
 695 64 l 2,23,24
 815 64 815 64 914 171 c 0,25,26
 961 222 961 222 1027 344 c 0,27,28
 1030 350 1030 350 1053 350 c 0,29,30
 1082 350 1082 350 1095 332 c 1,31,32
 1001 136 1001 136 949 0 c 1,33,-1
 9 0 l 2,34,35
 -6 0 -6 0 -16.5 9.5 c 128,-1,36
 -27 19 -27 19 -19 28 c 2,37,-1
 1017 1260 l 1,38,-1
 559 1258 l 2,0,1
EndSplineSet
EndChar
StartChar: bracketleft
Encoding: 91 91 58
Width: 520
Flags: W
LayerCount: 2
Fore
SplineSet
323 1434 m 2,0,1
 323 1437 323 1437 327 1447 c 128,-1,2
 331 1457 331 1457 342.5 1468.5 c 128,-1,3
 354 1480 354 1480 369 1480 c 0,4,5
 459 1480 459 1480 564 1489 c 2,6,-1
 669 1498 l 2,7,8
 679 1498 679 1498 679 1486 c 0,9,10
 679 1476 679 1476 675.5 1465.5 c 128,-1,11
 672 1455 672 1455 667 1447.5 c 128,-1,12
 662 1440 662 1440 655.5 1433 c 128,-1,13
 649 1426 649 1426 644 1422 c 128,-1,14
 639 1418 639 1418 635 1415 c 2,15,-1
 631 1412 l 1,16,17
 539 1390 539 1390 439 1390 c 0,18,19
 434 1390 434 1390 430 1386 c 128,-1,20
 426 1382 426 1382 424.5 1378 c 2,21,-1
 423 1374 l 1,22,-1
 135 -98 l 2,23,24
 133 -113 133 -113 145 -114 c 0,25,26
 195 -120 195 -120 253 -136 c 128,-1,27
 311 -152 311 -152 331 -164 c 0,28,29
 337 -168 337 -168 347 -181 c 128,-1,30
 357 -194 357 -194 357 -206 c 0,31,32
 357 -216 357 -216 353.5 -223.5 c 128,-1,33
 350 -231 350 -231 346.5 -233.5 c 2,34,-1
 343 -236 l 1,35,36
 181 -204 181 -204 29 -204 c 0,37,38
 22 -204 22 -204 17.5 -198 c 128,-1,39
 13 -192 13 -192 15 -182 c 2,40,-1
 323 1434 l 2,0,1
EndSplineSet
Substitution2: "'smcp' Lowercase to Small Capitals in Latin lookup 3-1" bracketleft.sc
EndChar
StartChar: bracketright
Encoding: 93 93 60
Width: 516
Flags: W
LayerCount: 2
Back
SplineSet
62 -228 m 0,0,1
 54.5234375 -222.990625 54.5234375 -222.990625 54.5234375 -210.265625 c 0,2,3
 54.5234375 -179.58125 54.5234375 -179.58125 94 -148 c 1,4,5
 186 -114 186 -114 286 -114 c 0,6,7
 291 -114 291 -114 295.5 -110 c 0,8,9
 300 -106 300 -106 302 -102 c 2,10,-1
 304 -98 l 1
EndSplineSet
Fore
SplineSet
218 1498 m 2,0,1
 235 1496 l 2,2,3
 252 1494 252 1494 280.5 1491.5 c 128,-1,4
 309 1489 309 1489 344 1486.5 c 128,-1,5
 379 1484 379 1484 425 1482 c 128,-1,6
 471 1480 471 1480 514 1480 c 0,7,8
 540 1480 540 1480 540 1450 c 0,9,10
 540 1440 540 1440 538 1434 c 2,11,-1
 230 -158 l 2,12,13
 230 -161 230 -161 226.5 -171 c 128,-1,14
 223 -181 223 -181 212 -192.5 c 128,-1,15
 201 -204 201 -204 186 -204 c 0,16,17
 118 -204 118 -204 44.5 -210 c 128,-1,18
 -29 -216 -29 -216 -68.5 -222 c 2,19,-1
 -108 -228 l 1,20,21
 -116 -222 -116 -222 -116 -210 c 0,22,23
 -116 -202 -116 -202 -113 -193.5 c 128,-1,24
 -110 -185 -110 -185 -104.5 -177.5 c 128,-1,25
 -99 -170 -99 -170 -94.5 -165.5 c 128,-1,26
 -90 -161 -90 -161 -83.5 -155 c 128,-1,27
 -77 -149 -77 -149 -76 -148 c 0,28,29
 22 -114 22 -114 116 -114 c 0,30,31
 121 -114 121 -114 125.5 -110 c 128,-1,32
 130 -106 130 -106 132 -102 c 2,33,-1
 134 -98 l 1,34,-1
 420 1374 l 1,35,36
 422 1390 422 1390 410 1390 c 0,37,38
 366 1390 366 1390 320 1395.5 c 128,-1,39
 274 1401 274 1401 250 1406.5 c 2,40,-1
 226 1412 l 1,41,-1
 222.5 1415 l 2,42,43
 219 1418 219 1418 216 1421 c 128,-1,44
 213 1424 213 1424 209.5 1428.5 c 128,-1,45
 206 1433 206 1433 204 1440.5 c 128,-1,46
 202 1448 202 1448 202 1456 c 0,47,48
 202 1471 202 1471 206.5 1484.5 c 128,-1,49
 211 1498 211 1498 218 1498 c 2,0,1
EndSplineSet
Substitution2: "'smcp' Lowercase to Small Capitals in Latin lookup 3-1" bracketright.sc
EndChar
StartChar: asciicircum
Encoding: 94 94 61
Width: 606
Flags: W
LayerCount: 2
Fore
SplineSet
26 998 m 1,0,1
 31 1006 31 1006 64.5 1035.5 c 128,-1,2
 98 1065 98 1065 140.5 1102.5 c 128,-1,3
 183 1140 183 1140 241.5 1208.5 c 128,-1,4
 300 1277 300 1277 348 1354 c 0,5,6
 351 1359 351 1359 354.5 1366 c 128,-1,7
 358 1373 358 1373 359.5 1375 c 128,-1,8
 361 1377 361 1377 364 1378.5 c 128,-1,9
 367 1380 367 1380 372 1380 c 0,10,11
 385 1380 385 1380 391.5 1375 c 128,-1,12
 398 1370 398 1370 403.5 1354.5 c 128,-1,13
 409 1339 409 1339 415 1319 c 128,-1,14
 421 1299 421 1299 436.5 1259.5 c 128,-1,15
 452 1220 452 1220 474 1176 c 0,16,17
 487 1150 487 1150 516.5 1108 c 128,-1,18
 546 1066 546 1066 568.5 1035 c 128,-1,19
 591 1004 591 1004 592 1000 c 1,20,21
 588 985 588 985 577.5 967.5 c 128,-1,22
 567 950 567 950 558 950 c 0,23,24
 531 950 531 950 453.5 1042.5 c 128,-1,25
 376 1135 376 1135 344 1194 c 1,26,27
 277 1116 277 1116 169.5 1033 c 128,-1,28
 62 950 62 950 42 950 c 0,29,30
 26 950 26 950 26 998 c 1,0,1
EndSplineSet
Substitution2: "'smcp' Lowercase to Small Capitals in Latin lookup 3-1" asciicircum.sc
EndChar
StartChar: underscore
Encoding: 95 95 62
Width: 950
Flags: W
LayerCount: 2
Fore
SplineSet
-78 -74 m 0,0,1
 -78 -63 -78 -63 -59.5 -18.5 c 128,-1,2
 -41 26 -41 26 -30 26 c 2,3,-1
 798 26 l 2,4,5
 810 26 810 26 810 18 c 0,6,7
 810 5 810 5 774 -74 c 0,8,9
 771 -79 771 -79 768 -82 c 128,-1,10
 765 -85 765 -85 763.5 -85.5 c 2,11,-1
 762 -86 l 1,12,-1
 -68 -86 l 2,13,14
 -78 -86 -78 -86 -78 -74 c 0,0,1
EndSplineSet
EndChar
StartChar: a
Encoding: 97 97 64
Width: 898
Flags: W
LayerCount: 2
Fore
SplineSet
610 870 m 0,0,1
 695 870 695 870 766 844 c 1,2,-1
 644 212 l 2,3,4
 641 201 641 201 638.5 184 c 128,-1,5
 636 167 636 167 635 146.5 c 128,-1,6
 634 126 634 126 639.5 112 c 128,-1,7
 645 98 645 98 656 98 c 0,8,9
 666 98 666 98 680.5 106.5 c 128,-1,10
 695 115 695 115 709.5 127 c 128,-1,11
 724 139 724 139 739.5 154 c 128,-1,12
 755 169 755 169 766 181 c 128,-1,13
 777 193 777 193 786.5 203.5 c 2,14,-1
 796 214 l 1,15,16
 801 214 801 214 808.5 199.5 c 128,-1,17
 816 185 816 185 816 176 c 1,18,19
 791 134 791 134 703.5 61 c 128,-1,20
 616 -12 616 -12 554 -12 c 0,21,22
 523 -12 523 -12 504.5 17 c 128,-1,23
 486 46 486 46 486 92 c 0,24,25
 486 124 486 124 500 198 c 1,26,27
 508 246 508 246 510 260 c 1,28,29
 492 227 492 227 462.5 186.5 c 128,-1,30
 433 146 433 146 392.5 99 c 128,-1,31
 352 52 352 52 304.5 21 c 128,-1,32
 257 -10 257 -10 216 -10 c 0,33,34
 135 -10 135 -10 86.5 55 c 128,-1,35
 38 120 38 120 38 226 c 0,36,37
 38 351 38 351 93 472.5 c 128,-1,38
 148 594 148 594 232.5 679.5 c 128,-1,39
 317 765 317 765 418 817.5 c 128,-1,40
 519 870 519 870 610 870 c 0,0,1
518 790 m 0,41,42
 443 790 443 790 365 716.5 c 128,-1,43
 287 643 287 643 236.5 528.5 c 128,-1,44
 186 414 186 414 186 302 c 0,45,46
 186 106 186 106 288 106 c 0,47,48
 336 106 336 106 395.5 176.5 c 128,-1,49
 455 247 455 247 502 349.5 c 128,-1,50
 549 452 549 452 568 548 c 2,51,-1
 610 760 l 1,52,53
 598 774 598 774 569.5 782 c 128,-1,54
 541 790 541 790 518 790 c 0,41,42
EndSplineSet
Substitution2: "'smcp' Lowercase to Small Capitals in Latin lookup 3-1" a.sc
EndChar
StartChar: f
Encoding: 102 102 69
Width: 592
Flags: W
LayerCount: 2
Fore
SplineSet
672 1370 m 0,0,1
 753 1370 753 1370 780 1320 c 1,2,3
 780 1317 780 1317 779.5 1311 c 128,-1,4
 779 1305 779 1305 779 1302 c 0,5,6
 776 1263 776 1263 761.5 1235.5 c 128,-1,7
 747 1208 747 1208 720 1208 c 0,8,9
 704 1208 704 1208 689.5 1215.5 c 128,-1,10
 675 1223 675 1223 667 1230.5 c 128,-1,11
 659 1238 659 1238 644 1254 c 0,12,13
 614 1284 614 1284 586 1284 c 0,14,15
 530 1284 530 1284 493 1182.5 c 128,-1,16
 456 1081 456 1081 406 826 c 1,17,-1
 606 826 l 2,18,19
 616 826 616 826 616 802 c 0,20,21
 616 781 616 781 598 752 c 1,22,-1
 392 752 l 1,23,24
 322 338 322 338 274 86 c 1,25,26
 227 -153 227 -153 105.5 -309.5 c 128,-1,27
 -16 -466 -16 -466 -140 -466 c 0,28,29
 -221 -466 -221 -466 -248 -416 c 1,30,31
 -248 -406 -248 -406 -246 -384 c 1,32,33
 -234 -304 -234 -304 -188 -304 c 0,34,35
 -172 -304 -172 -304 -157.5 -311.5 c 128,-1,36
 -143 -319 -143 -319 -135 -326.5 c 128,-1,37
 -127 -334 -127 -334 -112 -350 c 0,38,39
 -82 -380 -82 -380 -54 -380 c 0,40,41
 2 -380 2 -380 39 -278.5 c 128,-1,42
 76 -177 76 -177 126 78 c 1,43,-1
 246 752 l 1,44,-1
 76 752 l 2,45,46
 72 752 72 752 72 758 c 0,47,48
 72 775 72 775 102 800.5 c 128,-1,49
 132 826 132 826 164 826 c 2,50,-1
 258 826 l 1,51,52
 305 1064 305 1064 426 1217 c 128,-1,53
 547 1370 547 1370 672 1370 c 0,0,1
EndSplineSet
Substitution2: "'smcp' Lowercase to Small Capitals in Latin lookup 3-1" f.sc
EndChar
StartChar: i
Encoding: 105 105 72
Width: 524
Flags: W
LayerCount: 2
Fore
SplineSet
222 646 m 1,0,1
 230 694 230 694 230 710 c 0,2,3
 230 760 230 760 210 760 c 0,4,5
 200 760 200 760 185.5 751.5 c 128,-1,6
 171 743 171 743 156.5 731 c 128,-1,7
 142 719 142 719 126.5 704 c 128,-1,8
 111 689 111 689 100 677 c 128,-1,9
 89 665 89 665 79.5 654.5 c 2,10,-1
 70 644 l 1,11,12
 65 644 65 644 57.5 658.5 c 128,-1,13
 50 673 50 673 50 682 c 1,14,15
 76 726 76 726 158.5 798 c 128,-1,16
 241 870 241 870 302 870 c 0,17,18
 334 870 334 870 357 840 c 128,-1,19
 380 810 380 810 380 766 c 0,20,21
 380 734 380 734 366 660 c 1,22,-1
 264 212 l 1,23,24
 256 172 256 172 256 148 c 0,25,26
 256 98 256 98 276 98 c 0,27,28
 286 98 286 98 300.5 106.5 c 128,-1,29
 315 115 315 115 329.5 127 c 128,-1,30
 344 139 344 139 359.5 154 c 128,-1,31
 375 169 375 169 386 181 c 128,-1,32
 397 193 397 193 406.5 203.5 c 2,33,-1
 416 214 l 1,34,35
 421 214 421 214 428.5 199.5 c 128,-1,36
 436 185 436 185 436 176 c 1,37,38
 411 134 411 134 323.5 61 c 128,-1,39
 236 -12 236 -12 174 -12 c 0,40,41
 143 -12 143 -12 124.5 17 c 128,-1,42
 106 46 106 46 106 92 c 0,43,44
 106 124 106 124 120 198 c 1,45,-1
 222 646 l 1,0,1
336 1292 m 0,46,47
 367 1292 367 1292 387.5 1268 c 128,-1,48
 408 1244 408 1244 408 1212 c 0,49,50
 408 1164 408 1164 376.5 1128 c 128,-1,51
 345 1092 345 1092 300 1092 c 0,52,53
 269 1092 269 1092 250.5 1117.5 c 128,-1,54
 232 1143 232 1143 232 1178 c 0,55,56
 232 1224 232 1224 262 1258 c 128,-1,57
 292 1292 292 1292 336 1292 c 0,46,47
EndSplineSet
Substitution2: "'ccmp' Turkish i-1" i.TRK
Substitution2: "'smcp' Lowercase to Small Capitals in Latin lookup 3-1" i.sc
EndChar
StartChar: j
Encoding: 106 106 73
Width: 498
Flags: W
LayerCount: 2
Fore
SplineSet
234 646 m 1,0,1
 242 694 242 694 242 710 c 0,2,3
 242 760 242 760 222 760 c 0,4,5
 212 760 212 760 197.5 751.5 c 128,-1,6
 183 743 183 743 168.5 731 c 128,-1,7
 154 719 154 719 138.5 704 c 128,-1,8
 123 689 123 689 112 677 c 128,-1,9
 101 665 101 665 91.5 654.5 c 2,10,-1
 82 644 l 1,11,12
 77 644 77 644 69.5 658.5 c 128,-1,13
 62 673 62 673 62 682 c 1,14,15
 88 726 88 726 170.5 798 c 128,-1,16
 253 870 253 870 314 870 c 0,17,18
 346 870 346 870 369 840 c 128,-1,19
 392 810 392 810 392 766 c 0,20,21
 392 734 392 734 378 660 c 2,22,-1
 268 90 l 2,23,24
 253 15 253 15 218 -78.5 c 128,-1,25
 183 -172 183 -172 126 -248 c 0,26,27
 68 -324 68 -324 -12 -385 c 128,-1,28
 -92 -446 -92 -446 -152 -470 c 1,29,30
 -158 -465 -158 -465 -164 -452.5 c 128,-1,31
 -170 -440 -170 -440 -170 -430 c 1,32,33
 -69 -373 -69 -373 6 -247.5 c 128,-1,34
 81 -122 81 -122 114 44 c 2,35,-1
 234 646 l 1,0,1
370 1292 m 0,36,37
 401 1292 401 1292 421.5 1268 c 128,-1,38
 442 1244 442 1244 442 1212 c 0,39,40
 442 1164 442 1164 410.5 1128 c 128,-1,41
 379 1092 379 1092 334 1092 c 0,42,43
 303 1092 303 1092 284.5 1117.5 c 128,-1,44
 266 1143 266 1143 266 1178 c 0,45,46
 266 1224 266 1224 296 1258 c 128,-1,47
 326 1292 326 1292 370 1292 c 0,36,37
EndSplineSet
Substitution2: "'smcp' Lowercase to Small Capitals in Latin lookup 3-1" j.sc
EndChar
StartChar: k
Encoding: 107 107 74
Width: 920
Flags: W
LayerCount: 2
Fore
SplineSet
650 870 m 0,0,1
 710 870 710 870 755 830.5 c 128,-1,2
 800 791 800 791 800 734 c 0,3,4
 800 668 800 668 766 614 c 128,-1,5
 732 560 732 560 671.5 523 c 128,-1,6
 611 486 611 486 538.5 461.5 c 128,-1,7
 466 437 466 437 378 422 c 1,8,9
 510 225 510 225 570 163.5 c 128,-1,10
 630 102 630 102 692 102 c 0,11,12
 714 102 714 102 759 142.5 c 128,-1,13
 804 183 804 183 828 214 c 1,14,15
 832 214 832 214 840 199 c 128,-1,16
 848 184 848 184 848 176 c 1,17,18
 827 139 827 139 744 65.5 c 128,-1,19
 661 -8 661 -8 604 -8 c 0,20,21
 566 -8 566 -8 529 12 c 128,-1,22
 492 32 492 32 464 60 c 128,-1,23
 436 88 436 88 404.5 134 c 128,-1,24
 373 180 373 180 353 216 c 128,-1,25
 333 252 333 252 304 304.5 c 128,-1,26
 275 357 275 357 260 382 c 1,27,-1
 186 0 l 1,28,29
 149 -10 149 -10 116 -10 c 0,30,31
 84 -10 84 -10 44 0 c 1,32,-1
 262 1118 l 1,33,34
 280 1199 280 1199 280 1224 c 0,35,36
 280 1262 280 1262 158 1262 c 1,37,38
 154 1268 154 1268 157 1283 c 128,-1,39
 160 1298 160 1298 166 1304 c 1,40,41
 276 1314 276 1314 430 1370 c 1,42,43
 442 1363 442 1363 442 1332 c 0,44,45
 442 1312 442 1312 416 1182 c 2,46,-1
 312 644 l 1,47,-1
 333.5 670 l 2,48,49
 355 696 355 696 386.5 727.5 c 128,-1,50
 418 759 418 759 458.5 792.5 c 128,-1,51
 499 826 499 826 550.5 848 c 128,-1,52
 602 870 602 870 650 870 c 0,0,1
578 776 m 0,53,54
 495 776 495 776 395 666.5 c 128,-1,55
 295 557 295 557 276 460 c 1,56,57
 318 460 318 460 366 469.5 c 128,-1,58
 414 479 414 479 463.5 499.5 c 128,-1,59
 513 520 513 520 553 548.5 c 128,-1,60
 593 577 593 577 618.5 618.5 c 128,-1,61
 644 660 644 660 644 708 c 0,62,63
 644 740 644 740 630 758 c 128,-1,64
 616 776 616 776 578 776 c 0,53,54
EndSplineSet
Substitution2: "'smcp' Lowercase to Small Capitals in Latin lookup 3-1" k.sc
EndChar
StartChar: r
Encoding: 114 114 81
Width: 712
Flags: W
LayerCount: 2
Fore
SplineSet
614 870 m 0,0,1
 674 870 674 870 712 828 c 1,2,3
 730 806 730 806 730 772 c 0,4,5
 730 732 730 732 711 708 c 128,-1,6
 692 684 692 684 658 684 c 0,7,8
 625 684 625 684 598 714 c 1,9,10
 585 730 585 730 558 730 c 0,11,12
 523 730 523 730 464 653 c 128,-1,13
 405 576 405 576 351.5 460 c 128,-1,14
 298 344 298 344 280 244 c 2,15,-1
 236 0 l 1,16,17
 203 -6 203 -6 168 -6 c 0,18,19
 130 -6 130 -6 94 0 c 1,20,-1
 214 646 l 2,21,22
 222 694 222 694 222 710 c 0,23,24
 222 760 222 760 202 760 c 0,25,26
 192 760 192 760 177.5 751.5 c 128,-1,27
 163 743 163 743 148.5 731 c 128,-1,28
 134 719 134 719 118.5 704 c 128,-1,29
 103 689 103 689 92 677 c 128,-1,30
 81 665 81 665 71.5 654.5 c 2,31,-1
 62 644 l 1,32,33
 57 644 57 644 49.5 658.5 c 128,-1,34
 42 673 42 673 42 682 c 1,35,36
 68 726 68 726 150.5 798 c 128,-1,37
 233 870 233 870 294 870 c 0,38,39
 326 870 326 870 349 840 c 128,-1,40
 372 810 372 810 372 766 c 0,41,42
 372 744 372 744 356 660 c 0,43,44
 346 606 346 606 322 492 c 1,45,46
 353 567 353 567 401 650 c 128,-1,47
 449 733 449 733 509.5 801.5 c 128,-1,48
 570 870 570 870 614 870 c 0,0,1
EndSplineSet
Substitution2: "'smcp' Lowercase to Small Capitals in Latin lookup 3-1" r.sc
EndChar
StartChar: u
Encoding: 117 117 84
Width: 982
Flags: W
LayerCount: 2
Fore
SplineSet
584 198 m 0,0,1
 589 228 589 228 595 255 c 128,-1,2
 601 282 601 282 608 315 c 128,-1,3
 615 348 615 348 620 372 c 1,4,5
 592 311 592 311 524 223.5 c 128,-1,6
 456 136 456 136 367.5 62 c 128,-1,7
 279 -12 279 -12 218 -12 c 0,8,9
 118 -12 118 -12 118 132 c 0,10,11
 118 203 118 203 146 338 c 2,12,-1
 212 646 l 1,13,14
 220 694 220 694 220 710 c 0,15,16
 220 760 220 760 200 760 c 0,17,18
 190 760 190 760 175.5 751.5 c 128,-1,19
 161 743 161 743 146.5 731 c 128,-1,20
 132 719 132 719 116.5 704 c 128,-1,21
 101 689 101 689 90 677 c 128,-1,22
 79 665 79 665 69.5 654.5 c 2,23,-1
 60 644 l 1,24,25
 55 644 55 644 47.5 658.5 c 128,-1,26
 40 673 40 673 40 682 c 1,27,28
 66 726 66 726 148.5 798 c 128,-1,29
 231 870 231 870 292 870 c 0,30,31
 324 870 324 870 347 840 c 128,-1,32
 370 810 370 810 370 766 c 0,33,34
 370 734 370 734 356 660 c 1,35,-1
 286 330 l 2,36,37
 272 267 272 267 272 222 c 0,38,39
 272 180 272 180 279.5 158 c 128,-1,40
 287 136 287 136 310 136 c 0,41,42
 337 136 337 136 389.5 180 c 128,-1,43
 442 224 442 224 497.5 292 c 128,-1,44
 553 360 553 360 602 455 c 128,-1,45
 651 550 651 550 668 638 c 0,46,47
 675 673 675 673 689 742.5 c 128,-1,48
 703 812 703 812 712 858 c 1,49,50
 739 866 739 866 774 866 c 0,51,52
 820 866 820 866 852 858 c 1,53,-1
 728 212 l 2,54,55
 720 172 720 172 720 148 c 0,56,57
 720 98 720 98 740 98 c 0,58,59
 750 98 750 98 764.5 106.5 c 128,-1,60
 779 115 779 115 793.5 127 c 128,-1,61
 808 139 808 139 823.5 154 c 128,-1,62
 839 169 839 169 850 181 c 128,-1,63
 861 193 861 193 870.5 203.5 c 2,64,-1
 880 214 l 1,65,66
 885 214 885 214 892.5 199.5 c 128,-1,67
 900 185 900 185 900 176 c 1,68,69
 875 134 875 134 787.5 61 c 128,-1,70
 700 -12 700 -12 638 -12 c 0,71,72
 607 -12 607 -12 588.5 17 c 128,-1,73
 570 46 570 46 570 92 c 0,74,75
 570 124 570 124 584 198 c 0,0,1
EndSplineSet
Substitution2: "'smcp' Lowercase to Small Capitals in Latin lookup 3-1" u.sc
EndChar
StartChar: v
Encoding: 118 118 85
Width: 878
Flags: W
LayerCount: 2
Fore
SplineSet
372 130 m 1,0,1
 473 217 473 217 525.5 285 c 128,-1,2
 578 353 578 353 628 452 c 0,3,4
 653 501 653 501 665.5 562.5 c 128,-1,5
 678 624 678 624 678 666 c 0,6,7
 678 740 678 740 626 792 c 1,8,9
 637 822 637 822 662 846 c 128,-1,10
 687 870 687 870 720 870 c 0,11,12
 775 870 775 870 802.5 826.5 c 128,-1,13
 830 783 830 783 830 710 c 0,14,15
 830 621 830 621 755.5 492 c 128,-1,16
 681 363 681 363 582 254 c 128,-1,17
 483 145 483 145 382 66.5 c 128,-1,18
 281 -12 281 -12 230 -12 c 1,19,20
 214 6 214 6 214 296 c 2,21,-1
 214 710 l 2,22,23
 214 760 214 760 194 760 c 0,24,25
 184 760 184 760 169.5 751.5 c 128,-1,26
 155 743 155 743 140.5 731 c 128,-1,27
 126 719 126 719 110.5 704 c 128,-1,28
 95 689 95 689 84 677 c 128,-1,29
 73 665 73 665 63.5 654.5 c 2,30,-1
 54 644 l 1,31,32
 49 644 49 644 41.5 658.5 c 128,-1,33
 34 673 34 673 34 682 c 1,34,35
 60 726 60 726 142.5 798 c 128,-1,36
 225 870 225 870 286 870 c 0,37,38
 318 870 318 870 341 838.5 c 128,-1,39
 364 807 364 807 364 762 c 2,40,-1
 364 656 l 1,41,-1
 364 352 l 2,42,43
 364 186 364 186 372 130 c 1,0,1
EndSplineSet
Substitution2: "'smcp' Lowercase to Small Capitals in Latin lookup 3-1" v.sc
EndChar
StartChar: w
Encoding: 119 119 86
Width: 1258
Flags: W
LayerCount: 2
Fore
SplineSet
770 750 m 1,0,1
 777 479 777 479 782 366 c 0,2,3
 790 187 790 187 812 152 c 1,4,5
 892 222 892 222 942 292.5 c 128,-1,6
 992 363 992 363 1026 458 c 0,7,8
 1054 534 1054 534 1054 666 c 0,9,10
 1054 740 1054 740 1002 792 c 1,11,12
 1013 822 1013 822 1038 846 c 128,-1,13
 1063 870 1063 870 1096 870 c 0,14,15
 1151 870 1151 870 1178.5 826.5 c 128,-1,16
 1206 783 1206 783 1206 710 c 0,17,18
 1206 620 1206 620 1142.5 491.5 c 128,-1,19
 1079 363 1079 363 994 253.5 c 128,-1,20
 909 144 909 144 818.5 66 c 128,-1,21
 728 -12 728 -12 678 -12 c 1,22,23
 669 -1 669 -1 654.5 121.5 c 128,-1,24
 640 244 640 244 638 300 c 2,25,-1
 634 428 l 1,26,27
 327 -12 327 -12 230 -12 c 1,28,29
 214 6 214 6 214 296 c 2,30,-1
 214 710 l 2,31,32
 214 760 214 760 194 760 c 0,33,34
 184 760 184 760 169.5 751.5 c 128,-1,35
 155 743 155 743 140.5 731 c 128,-1,36
 126 719 126 719 110.5 704 c 128,-1,37
 95 689 95 689 84 677 c 128,-1,38
 73 665 73 665 63.5 654.5 c 2,39,-1
 54 644 l 1,40,41
 49 644 49 644 41.5 658.5 c 128,-1,42
 34 673 34 673 34 682 c 1,43,44
 60 726 60 726 142.5 798 c 128,-1,45
 225 870 225 870 286 870 c 0,46,47
 318 870 318 870 341 838.5 c 128,-1,48
 364 807 364 807 364 762 c 2,49,-1
 364 656 l 1,50,-1
 364 352 l 2,51,52
 364 236 364 236 372 180 c 1,53,54
 473 288 473 288 598 510 c 1,55,56
 631 571 631 571 684 694 c 1,57,58
 696 709 696 709 723.5 727.5 c 128,-1,59
 751 746 751 746 770 750 c 1,0,1
EndSplineSet
Substitution2: "'smcp' Lowercase to Small Capitals in Latin lookup 3-1" w.sc
EndChar
StartChar: x
Encoding: 120 120 87
Width: 964
Flags: W
LayerCount: 2
Fore
SplineSet
590 178 m 2,0,1
 606 104 606 104 660 104 c 0,2,3
 683 104 683 104 734 145.5 c 128,-1,4
 785 187 785 187 806 214 c 1,5,6
 810 214 810 214 818 199 c 128,-1,7
 826 184 826 184 826 176 c 1,8,9
 805 139 805 139 722 65.5 c 128,-1,10
 639 -8 639 -8 582 -8 c 0,11,12
 535 -8 535 -8 497.5 38.5 c 128,-1,13
 460 85 460 85 444 164 c 2,14,-1
 409 336 l 1,15,16
 394 306 394 306 369.5 256.5 c 128,-1,17
 345 207 345 207 332 181.5 c 128,-1,18
 319 156 319 156 299 119 c 128,-1,19
 279 82 279 82 264 63.5 c 128,-1,20
 249 45 249 45 229.5 25.5 c 128,-1,21
 210 6 210 6 189.5 -2 c 128,-1,22
 169 -10 169 -10 146 -10 c 0,23,24
 90 -10 90 -10 52 14 c 1,25,26
 30 43 30 43 30 82 c 0,27,28
 30 119 30 119 50 144.5 c 128,-1,29
 70 170 70 170 104 170 c 0,30,31
 124 170 124 170 149.5 142 c 128,-1,32
 175 114 175 114 196 112 c 0,33,34
 228 110 228 110 256 158 c 0,35,36
 327 277 327 277 394 409 c 1,37,-1
 338 684 l 2,38,39
 322 760 322 760 274 760 c 0,40,41
 247 760 247 760 195.5 718.5 c 128,-1,42
 144 677 144 677 122 648 c 1,43,44
 118 648 118 648 110 663 c 128,-1,45
 102 678 102 678 102 686 c 1,46,47
 123 723 123 723 206 796.5 c 128,-1,48
 289 870 289 870 346 870 c 0,49,50
 393 870 393 870 430.5 824 c 128,-1,51
 468 778 468 778 484 698 c 2,52,-1
 512 562 l 1,53,54
 520 578 520 578 535.273334657 609.462762807 c 0,55,56
 564 668 564 668 578.5 696.5 c 128,-1,57
 593 725 593 725 617.5 765.5 c 128,-1,58
 642 806 642 806 660 824 c 128,-1,59
 678 842 678 842 703.5 856 c 128,-1,60
 729 870 729 870 756 870 c 0,61,62
 812 870 812 870 850 846 c 1,63,64
 872 817 872 817 872 778 c 0,65,66
 872 741 872 741 852 715.5 c 128,-1,67
 832 690 832 690 798 690 c 0,68,69
 778 690 778 690 752.5 718 c 128,-1,70
 727 746 727 746 706 748 c 0,71,72
 674 750 674 750 646 702 c 0,73,74
 573 577 573 577 527 488 c 1,75,-1
 590 178 l 2,0,1
EndSplineSet
Substitution2: "'smcp' Lowercase to Small Capitals in Latin lookup 3-1" x.sc
EndChar
StartChar: y
Encoding: 121 121 88
Width: 894
Flags: W
LayerCount: 2
Fore
SplineSet
264 870 m 0,0,1
 295 870 295 870 321 839.5 c 128,-1,2
 347 809 347 809 364.5 755 c 128,-1,3
 382 701 382 701 396 637.5 c 128,-1,4
 410 574 410 574 418 495 c 128,-1,5
 426 416 426 416 431 350 c 128,-1,6
 436 284 436 284 438.5 212 c 128,-1,7
 441 140 441 140 441.5 102 c 128,-1,8
 442 64 442 64 442 30 c 1,9,10
 475 70 475 70 509.5 123 c 128,-1,11
 544 176 544 176 583 249.5 c 128,-1,12
 622 323 622 323 647 408 c 128,-1,13
 672 493 672 493 672 570 c 0,14,15
 672 626 672 626 663 671.5 c 128,-1,16
 654 717 654 717 646 735 c 128,-1,17
 638 753 638 753 622 784 c 1,18,19
 634 824 634 824 660.5 847 c 128,-1,20
 687 870 687 870 722 870 c 0,21,22
 810 870 810 870 810 712 c 0,23,24
 810 599 810 599 761 462.5 c 128,-1,25
 712 326 712 326 633.5 198 c 128,-1,26
 555 70 555 70 455 -52 c 128,-1,27
 355 -174 355 -174 254.5 -265 c 128,-1,28
 154 -356 154 -356 59 -411 c 128,-1,29
 -36 -466 -36 -466 -102 -466 c 0,30,31
 -155 -466 -155 -466 -188.5 -442 c 128,-1,32
 -222 -418 -222 -418 -222 -384 c 0,33,34
 -222 -357 -222 -357 -210 -332.5 c 128,-1,35
 -198 -308 -198 -308 -176 -296 c 1,36,37
 -154 -309 -154 -309 -101.5 -321.5 c 128,-1,38
 -49 -334 -49 -334 -16 -334 c 0,39,40
 142 -334 142 -334 256 -168 c 0,41,42
 269 -149 269 -149 277.5 -122.5 c 128,-1,43
 286 -96 286 -96 289 -58 c 128,-1,44
 292 -20 292 -20 292.5 1 c 128,-1,45
 293 22 293 22 292.5 69.5 c 128,-1,46
 292 117 292 117 292 124 c 0,47,48
 292 222 292 222 286.5 321.5 c 128,-1,49
 281 421 281 421 269 525.5 c 128,-1,50
 257 630 257 630 232 695 c 128,-1,51
 207 760 207 760 172 760 c 0,52,53
 162 760 162 760 147.5 751.5 c 128,-1,54
 133 743 133 743 118.5 731 c 128,-1,55
 104 719 104 719 88.5 704 c 128,-1,56
 73 689 73 689 62 677 c 128,-1,57
 51 665 51 665 41.5 654.5 c 2,58,-1
 32 644 l 1,59,60
 27 644 27 644 19.5 658.5 c 128,-1,61
 12 673 12 673 12 682 c 1,62,63
 38 726 38 726 120.5 798 c 128,-1,64
 203 870 203 870 264 870 c 0,0,1
EndSplineSet
Substitution2: "'smcp' Lowercase to Small Capitals in Latin lookup 3-1" y.sc
EndChar
StartChar: z
Encoding: 122 122 89
Width: 774
Flags: W
LayerCount: 2
Fore
SplineSet
290 870 m 0,0,1
 307 870 307 870 322.5 868 c 128,-1,2
 338 866 338 866 355.5 861 c 128,-1,3
 373 856 373 856 384 852.5 c 128,-1,4
 395 849 395 849 415.5 841 c 128,-1,5
 436 833 436 833 444 830 c 0,6,7
 506 808 506 808 556 808 c 0,8,9
 600 808 600 808 667.5 839 c 128,-1,10
 735 870 735 870 736 870 c 0,11,12
 758 859 758 859 758 830 c 0,13,14
 758 820 758 820 669 718 c 128,-1,15
 580 616 580 616 473.5 499.5 c 128,-1,16
 367 383 367 383 276 284 c 128,-1,17
 185 185 185 185 184 184 c 1,18,19
 228 206 228 206 276 206 c 0,20,21
 328 206 328 206 400 172 c 0,22,23
 404 170 404 170 421.5 162.5 c 128,-1,24
 439 155 439 155 445.5 152.5 c 128,-1,25
 452 150 452 150 465 145.5 c 128,-1,26
 478 141 478 141 487.5 139.5 c 128,-1,27
 497 138 497 138 506 138 c 0,28,29
 524 138 524 138 544.5 157.5 c 128,-1,30
 565 177 565 177 578.5 197.5 c 128,-1,31
 592 218 592 218 606.5 244 c 128,-1,32
 621 270 621 270 622 272 c 1,33,34
 642 272 642 272 646 240 c 1,35,36
 629 203 629 203 611 169 c 128,-1,37
 593 135 593 135 564.5 93 c 128,-1,38
 536 51 536 51 502.5 25.5 c 128,-1,39
 469 0 469 0 436 0 c 0,40,41
 390 0 390 0 276 44 c 0,42,43
 223 64 223 64 134 64 c 0,44,45
 108 64 108 64 85.5 53 c 128,-1,46
 63 42 63 42 39 24 c 128,-1,47
 15 6 15 6 2 0 c 1,48,49
 -16 6 -16 6 -20 38 c 1,50,51
 -20 51 -20 51 130 216 c 128,-1,52
 280 381 280 381 431.5 542.5 c 128,-1,53
 583 704 583 704 584 706 c 1,54,55
 521 664 521 664 458 664 c 0,56,57
 417 664 417 664 336 698 c 1,58,59
 264 732 264 732 228 732 c 0,60,61
 209 732 209 732 187.5 712.5 c 128,-1,62
 166 693 166 693 152.5 671.5 c 128,-1,63
 139 650 139 650 125 624 c 128,-1,64
 111 598 111 598 110 596 c 1,65,66
 90 596 90 596 86 628 c 1,67,68
 92 646 92 646 111 683 c 128,-1,69
 130 720 130 720 157.5 763.5 c 128,-1,70
 185 807 185 807 221.5 838.5 c 128,-1,71
 258 870 258 870 290 870 c 0,0,1
EndSplineSet
Substitution2: "'smcp' Lowercase to Small Capitals in Latin lookup 3-1" z.sc
EndChar
StartChar: braceleft
Encoding: 123 123 90
Width: 420
Flags: W
LayerCount: 2
Fore
SplineSet
257 804 m 0,0,1
 260 819 260 819 260.5 833.5 c 128,-1,2
 261 848 261 848 259 866 c 128,-1,3
 257 884 257 884 255.5 893 c 128,-1,4
 254 902 254 902 249 925.5 c 128,-1,5
 244 949 244 949 243 954 c 0,6,7
 220 1053 220 1053 233 1120 c 0,8,9
 259 1252 259 1252 341.5 1349.5 c 128,-1,10
 424 1447 424 1447 501 1478 c 1,11,12
 512 1478 512 1478 520 1465.5 c 128,-1,13
 528 1453 528 1453 525 1440 c 1,14,15
 494 1425 494 1425 455 1393.5 c 128,-1,16
 416 1362 416 1362 379 1312.5 c 128,-1,17
 342 1263 342 1263 333 1216 c 0,18,19
 330 1202 330 1202 329 1188 c 128,-1,20
 328 1174 328 1174 327 1164 c 128,-1,21
 326 1154 326 1154 327.5 1139.5 c 128,-1,22
 329 1125 329 1125 329.5 1118 c 128,-1,23
 330 1111 330 1111 332.5 1095.5 c 128,-1,24
 335 1080 335 1080 336 1076 c 128,-1,25
 337 1072 337 1072 340.5 1054 c 128,-1,26
 344 1036 344 1036 345 1034 c 0,27,28
 369 936 369 936 351 848 c 0,29,30
 334 761 334 761 277 697 c 128,-1,31
 220 633 220 633 171 614 c 1,32,33
 214 595 214 595 246 531 c 128,-1,34
 278 467 278 467 261 380 c 0,35,36
 243 291 243 291 181 194 c 0,37,38
 179 191 179 191 168.5 174 c 128,-1,39
 158 157 158 157 155.5 152.5 c 128,-1,40
 153 148 153 148 144 132.5 c 128,-1,41
 135 117 135 117 132 110 c 128,-1,42
 129 103 129 103 122.5 89 c 128,-1,43
 116 75 116 75 112.5 64.5 c 128,-1,44
 109 54 109 54 105.5 40 c 128,-1,45
 102 26 102 26 99 12 c 0,46,47
 85 -57 85 -57 122.5 -122.5 c 128,-1,48
 160 -188 160 -188 203 -212 c 1,49,50
 200 -226 200 -226 188 -238 c 128,-1,51
 176 -250 176 -250 165 -250 c 1,52,53
 99 -220 99 -220 55 -122.5 c 128,-1,54
 11 -25 11 -25 37 108 c 0,55,56
 50 175 50 175 111 274 c 0,57,58
 114 279 114 279 123.5 295 c 128,-1,59
 133 311 133 311 137 317 c 128,-1,60
 141 323 141 323 148.5 337 c 128,-1,61
 156 351 156 351 160 359.5 c 128,-1,62
 164 368 164 368 169.5 380 c 128,-1,63
 175 392 175 392 178 402.5 c 128,-1,64
 181 413 181 413 183 424 c 0,65,66
 207 553 207 553 75 592 c 1,67,68
 71 599 71 599 75 614 c 0,69,70
 80 633 80 633 83 636 c 1,71,72
 233 675 233 675 257 804 c 0,0,1
EndSplineSet
Substitution2: "'smcp' Lowercase to Small Capitals in Latin lookup 3-1" braceleft.sc
EndChar
StartChar: braceright
Encoding: 125 125 92
Width: 424
Flags: W
LayerCount: 2
Fore
SplineSet
287 1478 m 1,0,1
 353 1448 353 1448 398 1350 c 128,-1,2
 443 1252 443 1252 417 1120 c 0,3,4
 404 1053 404 1053 343 954 c 0,5,6
 340 949 340 949 330.5 933 c 128,-1,7
 321 917 321 917 317 911 c 128,-1,8
 313 905 313 905 305.5 891 c 128,-1,9
 298 877 298 877 294 868.5 c 128,-1,10
 290 860 290 860 284.5 848 c 128,-1,11
 279 836 279 836 276 825.5 c 128,-1,12
 273 815 273 815 271 804 c 0,13,14
 247 675 247 675 379 636 c 1,15,16
 383 629 383 629 379 614 c 0,17,18
 376 600 376 600 371 592 c 1,19,20
 221 553 221 553 197 424 c 0,21,22
 194 409 194 409 193.5 394.5 c 128,-1,23
 193 380 193 380 195 362 c 128,-1,24
 197 344 197 344 198.5 335 c 128,-1,25
 200 326 200 326 205 302.5 c 128,-1,26
 210 279 210 279 211 274 c 0,27,28
 234 175 234 175 221 108 c 0,29,30
 195 -24 195 -24 112 -121.5 c 128,-1,31
 29 -219 29 -219 -49 -250 c 1,32,33
 -60 -250 -60 -250 -67 -237.5 c 128,-1,34
 -74 -225 -74 -225 -71 -212 c 1,35,36
 -40 -197 -40 -197 -1 -165.5 c 128,-1,37
 38 -134 38 -134 75 -84.5 c 128,-1,38
 112 -35 112 -35 121 12 c 0,39,40
 124 26 124 26 125 40 c 128,-1,41
 126 54 126 54 127 64 c 128,-1,42
 128 74 128 74 126.5 88.5 c 128,-1,43
 125 103 125 103 124.5 110 c 128,-1,44
 124 117 124 117 121.5 132.5 c 128,-1,45
 119 148 119 148 118 152 c 128,-1,46
 117 156 117 156 113.5 174 c 128,-1,47
 110 192 110 192 109 194 c 0,48,49
 85 292 85 292 103 380 c 0,50,51
 120 467 120 467 177 531 c 128,-1,52
 234 595 234 595 283 614 c 1,53,54
 240 633 240 633 208 697 c 128,-1,55
 176 761 176 761 193 848 c 0,56,57
 211 937 211 937 273 1034 c 0,58,59
 275 1037 275 1037 285.5 1054 c 128,-1,60
 296 1071 296 1071 298.5 1075.5 c 128,-1,61
 301 1080 301 1080 310 1095.5 c 128,-1,62
 319 1111 319 1111 322 1118 c 128,-1,63
 325 1125 325 1125 331.5 1139 c 128,-1,64
 338 1153 338 1153 341.5 1163.5 c 128,-1,65
 345 1174 345 1174 348.5 1188 c 128,-1,66
 352 1202 352 1202 355 1216 c 0,67,68
 369 1285 369 1285 331.5 1350.5 c 128,-1,69
 294 1416 294 1416 251 1440 c 1,70,71
 254 1454 254 1454 265.5 1466 c 128,-1,72
 277 1478 277 1478 287 1478 c 1,0,1
EndSplineSet
Substitution2: "'smcp' Lowercase to Small Capitals in Latin lookup 3-1" braceright.sc
EndChar
StartChar: sterling
Encoding: 163 163 97
Width: 894
UnlinkRmOvrlpSave: 1
Flags: W
LayerCount: 2
Fore
SplineSet
134 638 m 1,0,1
 622 638 l 1,2,3
 625 635 625 635 622.5 620.5 c 128,-1,4
 620 606 620 606 609.5 586 c 128,-1,5
 599 566 599 566 588 560 c 1,6,-1
 100 560 l 1,7,8
 88 592 88 592 134 638 c 1,0,1
344 496 m 0,9,10
 308 310 308 310 174 176 c 1,11,12
 185 180 185 180 195 182.5 c 128,-1,13
 205 185 205 185 220 185.5 c 128,-1,14
 235 186 235 186 245 186.5 c 128,-1,15
 255 187 255 187 281 186.5 c 128,-1,16
 307 186 307 186 324 186 c 0,17,18
 378 186 378 186 475 154 c 128,-1,19
 572 122 572 122 604 122 c 0,20,21
 633 122 633 122 661 140.5 c 128,-1,22
 689 159 689 159 703 175.5 c 128,-1,23
 717 192 717 192 741 228 c 128,-1,24
 765 264 765 264 768 268 c 1,25,26
 774 268 774 268 780 258 c 128,-1,27
 786 248 786 248 786 234 c 0,28,29
 786 224 786 224 782 216 c 0,30,31
 657 -16 657 -16 518 -16 c 0,32,33
 454 -16 454 -16 337 21 c 128,-1,34
 220 58 220 58 178 58 c 0,35,36
 114 58 114 58 24 -18 c 1,37,38
 8 -18 8 -18 1 -5 c 128,-1,39
 -6 8 -6 8 -4 20 c 1,40,41
 20 54 20 54 59 99.5 c 128,-1,42
 98 145 98 145 112 164 c 1,43,44
 161 267 161 267 202 474 c 0,45,46
 210 513 210 513 217.5 640.5 c 128,-1,47
 225 768 225 768 238 834 c 0,48,49
 275 1022 275 1022 401 1146 c 128,-1,50
 527 1270 527 1270 678 1270 c 0,51,52
 775 1270 775 1270 806 1196 c 1,53,54
 806 1154 806 1154 784 1116 c 128,-1,55
 762 1078 762 1078 728 1078 c 0,56,57
 703 1078 703 1078 685 1095 c 128,-1,58
 667 1112 667 1112 658 1132 c 128,-1,59
 649 1152 649 1152 631 1169 c 128,-1,60
 613 1186 613 1186 588 1186 c 0,61,62
 543 1186 543 1186 508 1161.5 c 128,-1,63
 473 1137 473 1137 450 1092.5 c 128,-1,64
 427 1048 427 1048 413 1003 c 128,-1,65
 399 958 399 958 388 900 c 0,66,67
 376 839 376 839 364.5 690.5 c 128,-1,68
 353 542 353 542 344 496 c 0,9,10
EndSplineSet
EndChar
StartChar: currency
Encoding: 164 164 98
Width: 1008
Flags: W
LayerCount: 2
Fore
SplineSet
474 304 m 0,0,1
 540 304 540 304 599 360 c 128,-1,2
 658 416 658 416 692 503.5 c 128,-1,3
 726 591 726 591 726 682 c 0,4,5
 726 788 726 788 680.5 857 c 128,-1,6
 635 926 635 926 562 926 c 0,7,8
 496 926 496 926 436.5 869.5 c 128,-1,9
 377 813 377 813 342.5 725 c 128,-1,10
 308 637 308 637 308 546 c 0,11,12
 308 440 308 440 354.5 372 c 128,-1,13
 401 304 401 304 474 304 c 0,0,1
784 910 m 1,14,-1
 916 1020 l 2,15,16
 918 1022 918 1022 924 1022 c 0,17,18
 939 1022 939 1022 956 992.5 c 128,-1,19
 973 963 973 963 976 932 c 1,20,-1
 842 820 l 1,21,22
 864 760 864 760 864 694 c 0,23,24
 864 606 864 606 830.5 529 c 128,-1,25
 797 452 797 452 752 398 c 1,26,-1
 830 282 l 2,27,28
 830 281 830 281 831 280 c 128,-1,29
 832 279 832 279 832 278 c 0,30,31
 832 263 832 263 798 236 c 128,-1,32
 764 209 764 209 732 200 c 1,33,-1
 658 310 l 1,34,35
 556 240 556 240 446 240 c 0,36,37
 327 240 327 240 250 320 c 1,38,-1
 132 220 l 2,39,40
 130 218 130 218 124 218 c 0,41,42
 109 218 109 218 92 247.5 c 128,-1,43
 75 277 75 277 72 308 c 1,44,-1
 192 410 l 1,45,46
 168 467 168 467 168 536 c 0,47,48
 168 623 168 623 203.5 705.5 c 128,-1,49
 239 788 239 788 292 846 c 1,50,-1
 218 958 l 2,51,52
 218 959 218 959 217 960 c 128,-1,53
 216 961 216 961 216 962 c 0,54,55
 216 977 216 977 250 1004 c 128,-1,56
 284 1031 284 1031 316 1040 c 1,57,-1
 390 930 l 1,58,59
 486 992 486 992 592 992 c 0,60,61
 708 992 708 992 784 910 c 1,14,-1
EndSplineSet
EndChar
StartChar: yen
Encoding: 165 165 99
Width: 1184
Flags: W
LayerCount: 2
Fore
SplineSet
347 432 m 2,0,1
 339 432 339 432 339 448 c 0,2,3
 339 460 339 460 347 480 c 128,-1,4
 355 500 355 500 365 508 c 1,5,-1
 857 508 l 2,6,7
 863 508 863 508 863 494 c 0,8,9
 863 456 863 456 839 432 c 1,10,-1
 347 432 l 2,0,1
317 276 m 2,11,12
 309 276 309 276 309 292 c 0,13,14
 309 304 309 304 317 324 c 128,-1,15
 325 344 325 344 335 352 c 1,16,-1
 827 352 l 2,17,18
 833 352 833 352 833 338 c 0,19,20
 833 300 833 300 809 276 c 1,21,-1
 317 276 l 2,11,12
467 222 m 1,22,-1
 523 510 l 1,23,24
 528 542 528 542 521 564 c 2,25,-1
 361 1046 l 2,26,27
 343 1098 343 1098 323.5 1126.5 c 128,-1,28
 304 1155 304 1155 271 1178 c 1,29,30
 253 1192 253 1192 224.5 1200 c 128,-1,31
 196 1208 196 1208 177 1208 c 1,32,33
 173 1210 173 1210 172.5 1220.5 c 128,-1,34
 172 1231 172 1231 176.5 1245 c 128,-1,35
 181 1259 181 1259 187 1264 c 1,36,37
 217 1263 217 1263 258.5 1260 c 128,-1,38
 300 1257 300 1257 334 1255.5 c 128,-1,39
 368 1254 368 1254 407 1254 c 0,40,41
 457 1254 457 1254 637 1264 c 1,42,43
 639 1253 639 1253 634.5 1230.5 c 128,-1,44
 630 1208 630 1208 623 1208 c 0,45,46
 591 1208 591 1208 551 1194 c 128,-1,47
 511 1180 511 1180 505 1148 c 0,48,49
 501 1132 501 1132 515 1090 c 2,50,-1
 667 632 l 1,51,52
 754 754 754 754 864 919.5 c 128,-1,53
 974 1085 974 1085 999 1130 c 1,54,55
 1009 1145 1009 1145 1011 1158 c 0,56,57
 1012 1166 1012 1166 1004 1176 c 128,-1,58
 996 1186 996 1186 966.5 1196 c 128,-1,59
 937 1206 937 1206 891 1206 c 1,60,61
 887 1211 887 1211 890.5 1233.5 c 128,-1,62
 894 1256 894 1256 899 1262 c 1,63,64
 1059 1252 1059 1252 1079 1252 c 0,65,66
 1120 1252 1120 1252 1151 1253.5 c 128,-1,67
 1182 1255 1182 1255 1218 1258 c 128,-1,68
 1254 1261 1254 1261 1277 1262 c 1,69,70
 1277 1255 1277 1255 1271 1230.5 c 128,-1,71
 1265 1206 1265 1206 1261 1206 c 0,72,73
 1147 1206 1147 1206 1091 1130 c 1,74,-1
 699 574 l 2,75,76
 692 564 692 564 688.5 555 c 128,-1,77
 685 546 685 546 683.5 532.5 c 128,-1,78
 682 519 682 519 681 516 c 2,79,-1
 621 222 l 2,80,81
 599 113 599 113 603 80 c 0,82,83
 604 66 604 66 647 58 c 128,-1,84
 690 50 690 50 719 50 c 1,85,86
 724 43 724 43 721 22 c 128,-1,87
 718 1 718 1 709 -6 c 1,88,89
 529 4 529 4 503 4 c 0,90,91
 476 4 476 4 291 -6 c 1,92,93
 285 2 285 2 290 22 c 128,-1,94
 295 42 295 42 303 50 c 1,95,96
 332 50 332 50 378.5 58 c 128,-1,97
 425 66 425 66 431 80 c 1,98,99
 442 100 442 100 467 222 c 1,22,-1
EndSplineSet
EndChar
StartChar: brokenbar
Encoding: 166 166 100
Width: 422
VWidth: 0
Flags: W
LayerCount: 2
Fore
SplineSet
340 1508 m 1,0,1
 372 1540 372 1540 428 1540 c 0,2,3
 439 1540 439 1540 449 1536 c 128,-1,4
 459 1532 459 1532 458 1526 c 2,5,-1
 320 800 l 1,6,7
 309 787 309 787 283 776.5 c 128,-1,8
 257 766 257 766 230 766 c 0,9,10
 219 766 219 766 209 770.5 c 128,-1,11
 199 775 199 775 200 782 c 2,12,-1
 340 1508 l 1,0,1
144 496 m 1,13,14
 176 528 176 528 232 528 c 0,15,16
 243 528 243 528 253 524 c 128,-1,17
 263 520 263 520 262 514 c 2,18,-1
 124 -212 l 1,19,20
 113 -225 113 -225 86 -235.5 c 128,-1,21
 59 -246 59 -246 32 -246 c 0,22,23
 22 -246 22 -246 12.5 -241.5 c 128,-1,24
 3 -237 3 -237 4 -230 c 2,25,-1
 144 496 l 1,13,14
EndSplineSet
EndChar
StartChar: section
Encoding: 167 167 101
Width: 790
UnlinkRmOvrlpSave: 1
Flags: W
LayerCount: 2
Fore
SplineSet
699 1306 m 0,0,1
 547 1306 547 1306 436.5 1221.5 c 128,-1,2
 326 1137 326 1137 301 1014 c 0,3,4
 297 993 297 993 297 971.5 c 128,-1,5
 297 950 297 950 299 931.5 c 128,-1,6
 301 913 301 913 308 892.5 c 128,-1,7
 315 872 315 872 321.5 856.5 c 128,-1,8
 328 841 328 841 340 821 c 128,-1,9
 352 801 352 801 360 788 c 128,-1,10
 368 775 368 775 383 755.5 c 128,-1,11
 398 736 398 736 406.5 726 c 128,-1,12
 415 716 415 716 431 697 c 128,-1,13
 447 678 447 678 453 670 c 0,14,15
 621 466 621 466 583 270 c 0,16,17
 578 245 578 245 571 224 c 128,-1,18
 564 203 564 203 550 180.5 c 128,-1,19
 536 158 536 158 529 147 c 128,-1,20
 522 136 522 136 499.5 106.5 c 128,-1,21
 477 77 477 77 469 66 c 1,22,23
 419 28 419 28 393 -6 c 0,24,25
 386 -16 386 -16 382 -25.5 c 128,-1,26
 378 -35 378 -35 374.5 -49 c 128,-1,27
 371 -63 371 -63 369 -70 c 1,28,29
 446 -20 446 -20 564 119.5 c 128,-1,30
 682 259 682 259 701 358 c 1,31,32
 707 404 707 404 708 441 c 128,-1,33
 709 478 709 478 698 518.5 c 128,-1,34
 687 559 687 559 675 590.5 c 128,-1,35
 663 622 663 622 642.5 656 c 128,-1,36
 622 690 622 690 604.5 714.5 c 128,-1,37
 587 739 587 739 565 766 c 0,38,39
 382 991 382 991 403 1098 c 0,40,41
 413 1150 413 1150 466.5 1178 c 128,-1,42
 520 1206 520 1206 573 1206 c 0,43,44
 603 1206 603 1206 631 1190 c 0,45,46
 634 1188 634 1188 640.5 1183.5 c 128,-1,47
 647 1179 647 1179 651 1177 c 128,-1,48
 655 1175 655 1175 661.5 1172 c 128,-1,49
 668 1169 668 1169 676 1167.5 c 128,-1,50
 684 1166 684 1166 693 1166 c 0,51,52
 715 1166 715 1166 741.5 1191 c 128,-1,53
 768 1216 768 1216 773 1238 c 0,54,55
 779 1271 779 1271 773 1290 c 1,56,57
 741 1306 741 1306 699 1306 c 0,0,1
337 1084 m 1,58,59
 387 1122 387 1122 413 1156 c 0,60,61
 420 1166 420 1166 424 1175.5 c 128,-1,62
 428 1185 428 1185 431.5 1199 c 128,-1,63
 435 1213 435 1213 437 1220 c 1,64,65
 360 1170 360 1170 242 1030.5 c 128,-1,66
 124 891 124 891 105 792 c 1,67,68
 99 746 99 746 98 709 c 128,-1,69
 97 672 97 672 108 631.5 c 128,-1,70
 119 591 119 591 131 559.5 c 128,-1,71
 143 528 143 528 163.5 494 c 128,-1,72
 184 460 184 460 201.5 435.5 c 128,-1,73
 219 411 219 411 241 384 c 0,74,75
 424 159 424 159 403 52 c 0,76,77
 393 0 393 0 338.5 -28 c 128,-1,78
 284 -56 284 -56 231 -56 c 0,79,80
 203 -56 203 -56 175 -40 c 0,81,82
 172 -38 172 -38 165.5 -33.5 c 128,-1,83
 159 -29 159 -29 155 -27 c 128,-1,84
 151 -25 151 -25 144.5 -22 c 128,-1,85
 138 -19 138 -19 130 -17.5 c 128,-1,86
 122 -16 122 -16 113 -16 c 0,87,88
 91 -16 91 -16 64.5 -41 c 128,-1,89
 38 -66 38 -66 33 -88 c 0,90,91
 27 -121 27 -121 33 -140 c 1,92,93
 65 -156 65 -156 107 -156 c 0,94,95
 259 -156 259 -156 369.5 -71.5 c 128,-1,96
 480 13 480 13 505 136 c 0,97,98
 509 157 509 157 509 178.5 c 128,-1,99
 509 200 509 200 507 218.5 c 128,-1,100
 505 237 505 237 498 257.5 c 128,-1,101
 491 278 491 278 484.5 293.5 c 128,-1,102
 478 309 478 309 466 329 c 128,-1,103
 454 349 454 349 446 362 c 128,-1,104
 438 375 438 375 423 394.5 c 128,-1,105
 408 414 408 414 399.5 424 c 128,-1,106
 391 434 391 434 375 453 c 128,-1,107
 359 472 359 472 353 480 c 0,108,109
 185 684 185 684 223 880 c 0,110,111
 228 905 228 905 235 926 c 128,-1,112
 242 947 242 947 256 969.5 c 128,-1,113
 270 992 270 992 277 1003 c 128,-1,114
 284 1014 284 1014 306.5 1043.5 c 128,-1,115
 329 1073 329 1073 337 1084 c 1,58,59
EndSplineSet
EndChar
StartChar: copyright
Encoding: 169 169 103
Width: 1206
Flags: W
LayerCount: 2
Fore
SplineSet
684 966 m 0,0,1
 799 966 799 966 884 928 c 1,2,3
 888 920 888 920 888 912 c 0,4,5
 890 884 890 884 890 812 c 0,6,7
 890 788 890 788 858 788 c 0,8,9
 850 788 850 788 846 792 c 1,10,11
 846 805 846 805 840 820 c 128,-1,12
 834 835 834 835 820 854 c 128,-1,13
 806 873 806 873 773 885.5 c 128,-1,14
 740 898 740 898 694 898 c 0,15,16
 609 898 609 898 538.5 818.5 c 128,-1,17
 468 739 468 739 468 630 c 0,18,19
 468 546 468 546 515 500 c 128,-1,20
 562 454 562 454 624 454 c 0,21,22
 667 454 667 454 699 462 c 128,-1,23
 731 470 731 470 749.5 484.5 c 128,-1,24
 768 499 768 499 778 510 c 128,-1,25
 788 521 788 521 796.5 538.5 c 128,-1,26
 805 556 805 556 806 558 c 1,27,28
 810 560 810 560 814 560 c 0,29,30
 819 560 819 560 826 558 c 128,-1,31
 833 556 833 556 837.5 554 c 2,32,-1
 842 552 l 1,33,34
 837 537 837 537 813 484.5 c 128,-1,35
 789 432 789 432 780 428 c 0,36,37
 686 390 686 390 576 390 c 0,38,39
 479 390 479 390 418.5 453 c 128,-1,40
 358 516 358 516 358 614 c 0,41,42
 358 700 358 700 402 781.5 c 128,-1,43
 446 863 446 863 522.5 914.5 c 128,-1,44
 599 966 599 966 684 966 c 0,0,1
738 1230 m 0,45,46
 920 1230 920 1230 1035 1107 c 128,-1,47
 1150 984 1150 984 1150 796 c 0,48,49
 1150 669 1150 669 1096.5 547.5 c 128,-1,50
 1043 426 1043 426 956.5 336.5 c 128,-1,51
 870 247 870 247 755.5 192.5 c 128,-1,52
 641 138 641 138 524 138 c 0,53,54
 343 138 343 138 228.5 261 c 128,-1,55
 114 384 114 384 114 572 c 0,56,57
 114 673 114 673 148 772.5 c 128,-1,58
 182 872 182 872 242.5 953.5 c 128,-1,59
 303 1035 303 1035 380.5 1097.5 c 128,-1,60
 458 1160 458 1160 551 1195 c 128,-1,61
 644 1230 644 1230 738 1230 c 0,45,46
726 1168 m 0,62,63
 624 1168 624 1168 523 1119.5 c 128,-1,64
 422 1071 422 1071 345.5 992 c 128,-1,65
 269 913 269 913 221.5 805 c 128,-1,66
 174 697 174 697 174 584 c 0,67,68
 174 419 174 419 276 309.5 c 128,-1,69
 378 200 378 200 538 200 c 0,70,71
 675 200 675 200 803.5 281 c 128,-1,72
 932 362 932 362 1012 497.5 c 128,-1,73
 1092 633 1092 633 1092 782 c 0,74,75
 1092 948 1092 948 989.5 1058 c 128,-1,76
 887 1168 887 1168 726 1168 c 0,62,63
EndSplineSet
EndChar
StartChar: logicalnot
Encoding: 172 172 106
Width: 1080
VWidth: 0
Flags: W
LayerCount: 2
Fore
SplineSet
140 714 m 2,0,-1
 986 714 l 1,1,-1
 892 230 l 1,2,3
 886 224 886 224 863.5 215 c 128,-1,4
 841 206 841 206 822 206 c 0,5,6
 811 206 811 206 802 210 c 128,-1,7
 793 214 793 214 794 222 c 2,8,-1
 868 628 l 1,9,-1
 104 628 l 1,10,11
 98 644 98 644 98 656 c 0,12,13
 98 680 98 680 111.5 697 c 128,-1,14
 125 714 125 714 140 714 c 2,0,-1
EndSplineSet
EndChar
StartChar: registered
Encoding: 174 174 107
Width: 1206
Flags: W
LayerCount: 2
Fore
SplineSet
689 1058 m 27,0,1
 649 1058 649 1058 636 1053 c 128,-1,2
 623 1048 623 1048 621 1038 c 2,3,-1
 593 888 l 2,4,5
 593 886 593 886 591 883.5 c 128,-1,6
 589 881 589 881 589 880 c 0,7,8
 589 856 589 856 665 856 c 0,9,10
 709 856 709 856 737 894.5 c 128,-1,11
 765 933 765 933 765 982 c 0,12,13
 765 1058 765 1058 689 1058 c 27,0,1
709 1108 m 27,14,15
 770 1108 770 1108 813.5 1076 c 128,-1,16
 857 1044 857 1044 857 986 c 0,17,18
 857 886 857 886 741 828 c 0,19,20
 739 826 739 826 739 822 c 2,21,-1
 739 820 l 1,22,23
 746 775 746 775 803 666 c 0,24,25
 820 632 820 632 830 615.5 c 128,-1,26
 840 599 840 599 857.5 585.5 c 128,-1,27
 875 572 875 572 897 572 c 1,28,29
 897 558 897 558 893 550 c 1,30,31
 881 544 881 544 857 544 c 0,32,33
 820 544 820 544 795.5 551.5 c 128,-1,34
 771 559 771 559 751.5 572 c 128,-1,35
 732 585 732 585 713 618.5 c 128,-1,36
 694 652 694 652 678 688.5 c 128,-1,37
 662 725 662 725 635 796 c 1,38,39
 627 814 627 814 601 814 c 0,40,41
 578 814 578 814 575 798 c 2,42,-1
 541 620 l 1,43,-1
 541 598 l 2,44,45
 541 585 541 585 547 582 c 0,46,47
 571 570 571 570 585 570 c 0,48,49
 587 570 587 570 587 564 c 0,50,51
 587 560 587 560 583 544 c 1,52,53
 507 548 507 548 483 548 c 0,54,55
 457 548 457 548 373 544 c 1,56,57
 373 547 373 547 372 552 c 128,-1,58
 371 557 371 557 371 560 c 0,59,60
 371 562 371 562 373.5 565.5 c 128,-1,61
 376 569 376 569 377 570 c 0,62,63
 400 573 400 573 411.5 575.5 c 128,-1,64
 423 578 423 578 430.5 586.5 c 128,-1,65
 438 595 438 595 439.5 600 c 128,-1,66
 441 605 441 605 444.5 625.5 c 128,-1,67
 448 646 448 646 451 660 c 2,68,-1
 517 998 l 2,69,70
 525 1042 525 1042 525 1056 c 0,71,72
 525 1068 525 1068 509.5 1075 c 128,-1,73
 494 1082 494 1082 481 1082 c 0,74,75
 477 1082 477 1082 477 1086 c 128,-1,76
 477 1090 477 1090 478 1093 c 128,-1,77
 479 1096 479 1096 480.5 1099.5 c 128,-1,78
 482 1103 482 1103 483 1106 c 1,79,80
 493 1105 493 1105 521 1102.5 c 128,-1,81
 549 1100 549 1100 569 1100 c 0,82,83
 596 1100 596 1100 639 1104 c 128,-1,84
 682 1108 682 1108 709 1108 c 27,14,15
763 1360 m 128,-1,86
 901 1360 901 1360 1004 1287 c 128,-1,87
 1107 1214 1107 1214 1151.5 1088 c 128,-1,88
 1196 962 1196 962 1167 814 c 0,89,90
 1139 666 1139 666 1045.5 539.5 c 128,-1,91
 952 413 952 413 820.5 339.5 c 128,-1,92
 689 266 689 266 551 266 c 128,-1,93
 413 266 413 266 310.5 339.5 c 128,-1,94
 208 413 208 413 164 539 c 128,-1,95
 120 665 120 665 149 814 c 0,96,97
 178 962 178 962 270.5 1088 c 128,-1,98
 363 1214 363 1214 494 1287 c 128,-1,85
 625 1360 625 1360 763 1360 c 128,-1,86
753 1296 m 128,-1,100
 631 1296 631 1296 515.5 1231.5 c 128,-1,101
 400 1167 400 1167 318.5 1056 c 128,-1,102
 237 945 237 945 211 814 c 128,-1,103
 185 683 185 683 223.5 571.5 c 128,-1,104
 262 460 262 460 352.5 395 c 128,-1,105
 443 330 443 330 565 330 c 128,-1,106
 687 330 687 330 803.5 395 c 128,-1,107
 920 460 920 460 1001.5 571.5 c 128,-1,108
 1083 683 1083 683 1109 814 c 128,-1,109
 1135 945 1135 945 1096 1056 c 128,-1,110
 1057 1167 1057 1167 966 1231.5 c 128,-1,99
 875 1296 875 1296 753 1296 c 128,-1,100
EndSplineSet
EndChar
StartChar: degree
Encoding: 176 176 109
Width: 532
VWidth: 0
Flags: W
LayerCount: 2
Fore
SplineSet
252 1048 m 0,0,1
 252 1005 252 1005 277.5 976.5 c 128,-1,2
 303 948 303 948 344 948 c 0,3,4
 397 948 397 948 439.5 993 c 128,-1,5
 482 1038 482 1038 482 1096 c 0,6,7
 482 1139 482 1139 456.5 1166.5 c 128,-1,8
 431 1194 431 1194 390 1194 c 0,9,10
 336 1194 336 1194 294 1151 c 128,-1,11
 252 1108 252 1108 252 1048 c 0,0,1
180 1034 m 0,12,13
 180 1128 180 1128 250.5 1198 c 128,-1,14
 321 1268 321 1268 404 1268 c 0,15,16
 470 1268 470 1268 512 1223 c 128,-1,17
 554 1178 554 1178 554 1110 c 0,18,19
 554 1018 554 1018 484 946 c 128,-1,20
 414 874 414 874 330 874 c 0,21,22
 265 874 265 874 222.5 920 c 128,-1,23
 180 966 180 966 180 1034 c 0,12,13
EndSplineSet
EndChar
StartChar: uni00B3
Encoding: 179 179 112
Width: 632
Flags: W
LayerCount: 2
Fore
SplineSet
458 1296 m 0,0,1
 508 1296 508 1296 550 1261 c 128,-1,2
 592 1226 592 1226 592 1162 c 0,3,4
 592 1106 592 1106 545.5 1054.5 c 128,-1,5
 499 1003 499 1003 440 970 c 1,6,7
 504 966 504 966 554 913.5 c 128,-1,8
 604 861 604 861 604 804 c 0,9,10
 604 729 604 729 564.5 667 c 128,-1,11
 525 605 525 605 467.5 569 c 128,-1,12
 410 533 410 533 352.5 513.5 c 128,-1,13
 295 494 295 494 250 494 c 0,14,15
 144 494 144 494 102 524 c 1,16,17
 90 542 90 542 90 560 c 0,18,19
 90 588 90 588 111.5 616 c 128,-1,20
 133 644 133 644 154 644 c 0,21,22
 172 644 172 644 183 637 c 128,-1,23
 194 630 194 630 207.5 610 c 128,-1,24
 221 590 221 590 222 588 c 0,25,26
 249 556 249 556 310 556 c 0,27,28
 368 556 368 556 415 615 c 128,-1,29
 462 674 462 674 462 772 c 0,30,31
 462 834 462 834 428 869 c 128,-1,32
 394 904 394 904 336 904 c 0,33,34
 300 904 300 904 272 896 c 1,35,36
 264 908 264 908 264 910 c 0,37,38
 264 934 264 934 266 938 c 1,39,40
 349 953 349 953 415.5 1003.5 c 128,-1,41
 482 1054 482 1054 482 1120 c 0,42,43
 482 1158 482 1158 459.5 1187 c 128,-1,44
 437 1216 437 1216 400 1216 c 0,45,46
 375 1216 375 1216 350 1204 c 128,-1,47
 325 1192 325 1192 310.5 1178 c 128,-1,48
 296 1164 296 1164 283 1149.5 c 128,-1,49
 270 1135 270 1135 268 1134 c 1,50,51
 262 1134 262 1134 256 1146.5 c 128,-1,52
 250 1159 250 1159 252 1168 c 1,53,54
 343 1296 343 1296 458 1296 c 0,0,1
EndSplineSet
EndChar
StartChar: uni00B9
Encoding: 185 185 118
Width: 540
Flags: W
LayerCount: 2
Fore
SplineSet
211 1112 m 1,0,1
 201 1122 201 1122 201 1140 c 0,2,3
 201 1150 201 1150 207 1152 c 0,4,5
 256 1175 256 1175 328 1211.5 c 128,-1,6
 400 1248 400 1248 445.5 1272 c 128,-1,7
 491 1296 491 1296 493 1296 c 2,8,-1
 496 1296 l 2,9,10
 505 1296 505 1296 505 1273 c 1,11,12
 485 1232 485 1232 471 1158 c 2,13,-1
 378 684 l 2,14,15
 365 616 365 616 366 575 c 0,16,17
 367 567 367 567 407 559 c 128,-1,18
 447 551 447 551 461 551 c 0,19,20
 466 551 466 551 463 524 c 0,21,22
 462 515 462 515 457 506 c 1,23,24
 322 512 322 512 260 512 c 0,25,26
 251 512 251 512 110 506 c 1,27,28
 106 510 106 510 109.5 530.5 c 128,-1,29
 113 551 113 551 117 551 c 0,30,31
 133 551 133 551 174 559 c 128,-1,32
 215 567 215 567 219 575 c 0,33,34
 232 604 232 604 239 645 c 2,35,-1
 313 1024 l 2,36,37
 331.723066757 1122.96478143 331.723066757 1122.96478143 324.572225183 1135.53611259 c 0,38,39
 322.033070718 1140 322.033070718 1140 317 1140 c 0,40,41
 286 1140 286 1140 211 1112 c 1,0,1
EndSplineSet
EndChar
StartChar: onequarter
Encoding: 188 188 121
Width: 1274
VWidth: 0
Flags: W
LayerCount: 2
Fore
SplineSet
1159 810 m 0,0,1
 1168 810 1168 810 1175.5 799 c 128,-1,2
 1183 788 1183 788 1181 780 c 2,3,-1
 1087 304 l 1,4,-1
 1157 304 l 2,5,6
 1163 304 1163 304 1163.5 283 c 128,-1,7
 1164 262 1164 262 1161 242 c 0,8,9
 1158 227 1158 227 1151 212 c 1,10,-1
 1071 212 l 1,11,-1
 1031 2 l 1,12,13
 1003 -4 1003 -4 959 -4 c 0,14,15
 947 -4 947 -4 937 -3.5 c 128,-1,16
 927 -3 927 -3 918 -2 c 128,-1,17
 909 -1 909 -1 903.5 1 c 128,-1,18
 898 3 898 3 899 6 c 2,19,-1
 939 212 l 1,20,-1
 597 212 l 1,21,22
 584 219 584 219 589 240 c 1,23,-1
 1115 796 l 2,24,25
 1129 810 1129 810 1159 810 c 0,0,1
1025 628 m 25,26,-1
 719 304 l 1,27,-1
 957 304 l 1,28,-1
 1025 628 l 25,26,-1
179 1112 m 1,29,30
 169 1122 169 1122 169 1140 c 0,31,32
 169 1150 169 1150 175 1152 c 0,33,34
 224 1175 224 1175 296 1211.5 c 128,-1,35
 368 1248 368 1248 413.5 1272 c 128,-1,36
 459 1296 459 1296 461 1296 c 2,37,-1
 464 1296 l 2,38,39
 473 1296 473 1296 473 1273 c 1,40,41
 453 1232 453 1232 439 1158 c 2,42,-1
 346 684 l 2,43,44
 333 616 333 616 334 575 c 0,45,46
 335 567 335 567 375 559 c 128,-1,47
 415 551 415 551 429 551 c 0,48,49
 434 551 434 551 431 524 c 0,50,51
 430 515 430 515 425 506 c 1,52,53
 290 512 290 512 228 512 c 0,54,55
 219 512 219 512 78 506 c 1,56,57
 74 510 74 510 77.5 530.5 c 128,-1,58
 81 551 81 551 85 551 c 0,59,60
 101 551 101 551 142 559 c 128,-1,61
 183 567 183 567 187 575 c 0,62,63
 200 604 200 604 207 645 c 2,64,-1
 281 1024 l 2,65,66
 299.723066757 1122.96478143 299.723066757 1122.96478143 292.572225183 1135.53611259 c 0,67,68
 290.033070718 1140 290.033070718 1140 285 1140 c 0,69,70
 254 1140 254 1140 179 1112 c 1,29,30
1159 1252 m 2,71,-1
 267 -12 l 1,72,73
 217 -14 217 -14 217 8 c 0,74,75
 217 12 217 12 221 20 c 1,76,-1
 1115 1284 l 1,77,78
 1161 1284 1161 1284 1161 1262 c 0,79,80
 1161 1254 1161 1254 1159 1252 c 2,71,-1
EndSplineSet
EndChar
StartChar: onehalf
Encoding: 189 189 122
Width: 1378
VWidth: 0
Flags: W
LayerCount: 2
Fore
SplineSet
1299 622 m 0,0,1
 1299 547 1299 547 1258 485 c 128,-1,2
 1217 423 1217 423 1135 340 c 0,3,4
 1119 323 1119 323 1099 304.5 c 128,-1,5
 1079 286 1079 286 1059 269 c 128,-1,6
 1039 252 1039 252 1017.5 234.5 c 128,-1,7
 996 217 996 217 976.5 201.5 c 128,-1,8
 957 186 957 186 939 172.5 c 128,-1,9
 921 159 921 159 906 148 c 128,-1,10
 891 137 891 137 880 129 c 128,-1,11
 869 121 869 121 863.5 116.5 c 2,12,-1
 858 112 l 1,13,-1
 1095 112 l 2,14,15
 1169 112 1169 112 1215 213 c 1,16,17
 1218 222 1218 222 1233 222 c 0,18,19
 1236 222 1236 222 1248 215 c 128,-1,20
 1260 208 1260 208 1261 206 c 1,21,22
 1233 153 1233 153 1165 4 c 1,23,-1
 725 4 l 1,24,25
 723 6 723 6 720 18.5 c 128,-1,26
 717 31 717 31 717 36 c 1,27,28
 934 234 934 234 1031 344 c 0,29,30
 1143 471 1143 471 1143 584 c 0,31,32
 1143 633 1143 633 1108.5 665.5 c 128,-1,33
 1074 698 1074 698 1027 698 c 0,34,35
 996 698 996 698 968.5 687.5 c 128,-1,36
 941 677 941 677 919 656 c 128,-1,37
 897 635 897 635 889.5 626.5 c 128,-1,38
 882 618 882 618 868 599 c 1,39,40
 862 599 862 599 856 613 c 128,-1,41
 850 627 850 627 851 632 c 1,42,43
 868 671 868 671 942 729 c 128,-1,44
 1016 787 1016 787 1105 787 c 0,45,46
 1180 787 1180 787 1239.5 744 c 128,-1,47
 1299 701 1299 701 1299 622 c 0,0,1
181 1112 m 1,48,49
 171 1122 171 1122 171 1140 c 0,50,51
 171 1150 171 1150 177 1152 c 0,52,53
 226 1175 226 1175 298 1211.5 c 128,-1,54
 370 1248 370 1248 415.5 1272 c 128,-1,55
 461 1296 461 1296 463 1296 c 2,56,-1
 466 1296 l 2,57,58
 475 1296 475 1296 475 1273 c 1,59,60
 455 1232 455 1232 441 1158 c 2,61,-1
 348 684 l 2,62,63
 335 616 335 616 336 575 c 0,64,65
 337 567 337 567 377 559 c 128,-1,66
 417 551 417 551 431 551 c 0,67,68
 436 551 436 551 433 524 c 0,69,70
 432 515 432 515 427 506 c 1,71,72
 292 512 292 512 230 512 c 0,73,74
 221 512 221 512 80 506 c 1,75,76
 76 510 76 510 79.5 530.5 c 128,-1,77
 83 551 83 551 87 551 c 0,78,79
 103 551 103 551 144 559 c 128,-1,80
 185 567 185 567 189 575 c 0,81,82
 202 604 202 604 209 645 c 2,83,-1
 283 1024 l 2,84,85
 301.723066757 1122.96478143 301.723066757 1122.96478143 294.572225183 1135.53611259 c 0,86,87
 292.033070718 1140 292.033070718 1140 287 1140 c 0,88,89
 256 1140 256 1140 181 1112 c 1,48,49
1161 1252 m 2,90,-1
 269 -12 l 1,91,92
 219 -14 219 -14 219 8 c 0,93,94
 219 12 219 12 223 20 c 1,95,-1
 1117 1284 l 1,96,97
 1163 1284 1163 1284 1163 1262 c 0,98,99
 1163 1254 1163 1254 1161 1252 c 2,90,-1
EndSplineSet
EndChar
StartChar: questiondown
Encoding: 191 191 124
Width: 620
VWidth: 0
Flags: W
LayerCount: 2
Fore
SplineSet
510 780 m 0,0,1
 510 724 510 724 470 682 c 128,-1,2
 430 640 430 640 380 640 c 0,3,4
 341 640 341 640 315.5 666.5 c 128,-1,5
 290 693 290 693 290 732 c 0,6,7
 290 786 290 786 333 829 c 128,-1,8
 376 872 376 872 426 872 c 0,9,10
 464 872 464 872 487 846 c 128,-1,11
 510 820 510 820 510 780 c 0,0,1
240 450 m 1,12,13
 240 456 240 456 246.5 467 c 128,-1,14
 253 478 253 478 260 482 c 1,15,16
 306 482 306 482 382 417.5 c 128,-1,17
 458 353 458 353 458 278 c 0,18,19
 458 220 458 220 432 182 c 128,-1,20
 406 144 406 144 360 112 c 0,21,22
 196 -0 196 -0 128 -48 c 0,23,24
 36 -112 36 -112 36 -200 c 0,25,26
 36 -257 36 -257 65 -288.5 c 128,-1,27
 94 -320 94 -320 140 -320 c 0,28,29
 169 -320 169 -320 192 -305.5 c 128,-1,30
 215 -291 215 -291 226.5 -274 c 128,-1,31
 238 -257 238 -257 258.5 -242.5 c 128,-1,32
 279 -228 279 -228 304 -228 c 0,33,34
 342 -228 342 -228 357 -261 c 128,-1,35
 372 -294 372 -294 372 -332 c 1,36,37
 364 -357 364 -357 308.5 -387.5 c 128,-1,38
 253 -418 253 -418 200 -418 c 0,39,40
 91 -418 91 -418 12.5 -337.5 c 128,-1,41
 -66 -257 -66 -257 -66 -160 c 0,42,43
 -66 -34 -66 -34 22 48 c 0,44,45
 49 73 49 73 131 124 c 128,-1,46
 213 175 213 175 252 202 c 0,47,48
 289 227 289 227 303.5 254 c 128,-1,49
 318 281 318 281 318 322 c 0,50,51
 318 360 318 360 291.5 396 c 128,-1,52
 265 432 265 432 240 450 c 1,12,13
EndSplineSet
Substitution2: "'smcp' Lowercase to Small Capitals in Latin lookup 3-1" questiondown.sc
EndChar
StartChar: AE
Encoding: 198 198 131
Width: 1570
Flags: W
LayerCount: 2
Fore
SplineSet
776 614 m 1,0,-1
 486 614 l 1,1,-1
 244 262 l 1,2,3
 154 133 154 133 154 100 c 0,4,5
 154 79 154 79 199 63.5 c 128,-1,6
 244 48 244 48 268 48 c 1,7,8
 269 46 269 46 269 36 c 128,-1,9
 269 26 269 26 267 12.5 c 128,-1,10
 265 -1 265 -1 262 -6 c 1,11,12
 236 -5 236 -5 202 -2 c 128,-1,13
 168 1 168 1 139 2.5 c 128,-1,14
 110 4 110 4 74 4 c 0,15,16
 36 4 36 4 8.5 2.5 c 128,-1,17
 -19 1 -19 1 -52.5 -1.5 c 128,-1,18
 -86 -4 -86 -4 -118 -6 c 1,19,20
 -120 -4 -120 -4 -118.5 22 c 128,-1,21
 -117 48 -117 48 -112 48 c 0,22,23
 -90 48 -90 48 -46.5 60.5 c 128,-1,24
 -3 73 -3 73 16 90 c 0,25,26
 95 160 95 160 174 278 c 1,27,-1
 790 1172 l 1,28,29
 800 1192 800 1192 800 1202 c 0,30,31
 800 1221 800 1221 785 1235.5 c 128,-1,32
 770 1250 770 1250 740 1250 c 1,33,34
 734 1255 734 1255 734.5 1278.5 c 128,-1,35
 735 1302 735 1302 740 1312 c 1,36,-1
 936 1314 l 2,37,38
 1020 1314 1020 1314 1222 1321 c 128,-1,39
 1424 1328 1424 1328 1528 1328 c 1,40,41
 1529 1284 1529 1284 1533 1238.5 c 128,-1,42
 1537 1193 1537 1193 1543 1139.5 c 128,-1,43
 1549 1086 1549 1086 1552 1056 c 1,44,45
 1542 1046 1542 1046 1516 1046 c 0,46,47
 1492 1046 1492 1046 1492 1060 c 1,48,49
 1476 1173 1476 1173 1428 1216.5 c 128,-1,50
 1380 1260 1380 1260 1300 1260 c 2,51,-1
 1140 1260 l 2,52,53
 1019 1260 1019 1260 1010 1238 c 0,54,55
 994 1201 994 1201 982 1094 c 2,56,-1
 940 694 l 2,57,58
 939 690 939 690 945.5 687.5 c 128,-1,59
 952 685 952 685 963.5 684 c 128,-1,60
 975 683 975 683 988 682.5 c 128,-1,61
 1001 682 1001 682 1018 682 c 2,62,-1
 1116 682 l 2,63,64
 1162 682 1162 682 1188.5 683 c 128,-1,65
 1215 684 1215 684 1238 689.5 c 128,-1,66
 1261 695 1261 695 1272 701.5 c 128,-1,67
 1283 708 1283 708 1295 725 c 128,-1,68
 1307 742 1307 742 1313.5 759 c 128,-1,69
 1320 776 1320 776 1331.85446679 809.009753905 c 0,70,71
 1336 820 1336 820 1338 826 c 0,72,73
 1344 840 1344 840 1368 840 c 0,74,75
 1389 840 1389 840 1396 830 c 1,76,-1
 1356 452 l 1,77,78
 1348 444 1348 444 1324 444 c 0,79,80
 1301 444 1301 444 1298 460 c 0,81,82
 1287 539 1287 539 1279.5 564.5 c 128,-1,83
 1272 590 1272 590 1260 600 c 1,84,85
 1237 616 1237 616 1064 616 c 0,86,87
 932 616 932 616 930 598 c 2,88,-1
 892 218 l 1,89,90
 883 87 883 87 890 80 c 0,91,92
 905 66 905 66 929.5 63 c 128,-1,93
 954 60 954 60 1020 60 c 2,94,-1
 1108 60 l 2,95,96
 1257 60 1257 60 1346 122 c 0,97,98
 1429 179 1429 179 1486 324 c 1,99,100
 1492 336 1492 336 1514 336 c 0,101,102
 1552 336 1552 336 1560 324 c 1,103,104
 1550 302 1550 302 1511.5 219 c 128,-1,105
 1473 136 1473 136 1451.5 84 c 128,-1,106
 1430 32 1430 32 1420 -8 c 1,107,108
 1324 -8 1324 -8 1120 -4 c 128,-1,109
 916 0 916 0 788 0 c 1,110,-1
 540 -6 l 1,111,112
 537 2 537 2 541 30.5 c 128,-1,113
 545 59 545 59 552 62 c 1,114,115
 579 62 579 62 631.5 72.5 c 128,-1,116
 684 83 684 83 698 100 c 0,117,118
 720 126 720 126 728.5 157.5 c 128,-1,119
 737 189 737 189 742 248 c 2,120,-1
 776 614 l 1,0,-1
782 682 m 1,121,-1
 822 1100 l 1,122,-1
 534 682 l 1,123,-1
 782 682 l 1,121,-1
EndSplineSet
EndChar
StartChar: multiply
Encoding: 215 215 148
Width: 822
Flags: W
LayerCount: 2
Fore
SplineSet
54 136 m 0,0,1
 45 136 45 136 36.5 163.5 c 128,-1,2
 28 191 28 191 28 216 c 1,3,-1
 336 486 l 2,4,5
 340 490 340 490 340 492 c 0,6,7
 340 500 340 500 330 510 c 1,8,-1
 136 776 l 1,9,10
 136 795 136 795 158 818.5 c 128,-1,11
 180 842 180 842 190 842 c 0,12,13
 192 842 192 842 193 841 c 128,-1,14
 194 840 194 840 195.5 837.5 c 128,-1,15
 197 835 197 835 198 834 c 2,16,-1
 406 552 l 2,17,18
 410 548 410 548 414 548 c 1,19,-1
 418 550 l 1,20,-1
 734 832 l 2,21,22
 740 838 740 838 746 838 c 0,23,24
 756 838 756 838 764 811 c 128,-1,25
 772 784 772 784 772 756 c 1,26,-1
 466 484 l 1,27,-1
 462 480 l 1,28,29
 462 478 462 478 464 476 c 2,30,-1
 664 204 l 1,31,32
 664 184 664 184 647.5 160 c 128,-1,33
 631 136 631 136 620 136 c 128,-1,34
 609 136 609 136 606 142 c 1,35,-1
 400 422 l 2,36,37
 396 426 396 426 394 426 c 0,38,39
 390 426 390 426 386 422 c 2,40,-1
 64 142 l 2,41,42
 58 136 58 136 54 136 c 0,0,1
EndSplineSet
Substitution2: "'smcp' Lowercase to Small Capitals in Latin lookup 3-1" multiply.sc
EndChar
StartChar: Thorn
Encoding: 222 222 155
Width: 940
Flags: W
LayerCount: 2
Fore
SplineSet
468 916 m 10,0,1
 336 232 l 1,2,3
 312 114 312 114 316 84 c 0,4,5
 317 70 317 70 363.5 61 c 128,-1,6
 410 52 410 52 438 52 c 1,7,8
 443 45 443 45 439 23 c 128,-1,9
 435 1 435 1 426 -6 c 1,10,11
 236 4 236 4 212 4 c 0,12,13
 185 4 185 4 -10 -6 c 1,14,15
 -16 2 -16 2 -12 23 c 128,-1,16
 -8 44 -8 44 0 52 c 1,17,18
 28 52 28 52 79 61 c 128,-1,19
 130 70 130 70 136 84 c 0,20,21
 150 112 150 112 174 232 c 2,22,-1
 340 1086 l 2,23,24
 362 1198 362 1198 358 1234 c 0,25,26
 357 1248 357 1248 310.5 1257 c 128,-1,27
 264 1266 264 1266 236 1266 c 1,28,29
 231 1273 231 1273 235 1295 c 128,-1,30
 239 1317 239 1317 248 1324 c 1,31,32
 438 1314 438 1314 466 1314 c 0,33,34
 491 1314 491 1314 686 1324 c 1,35,36
 692 1316 692 1316 687 1295 c 128,-1,37
 682 1274 682 1274 674 1266 c 1,38,39
 646 1266 646 1266 596 1257 c 128,-1,40
 546 1248 546 1248 540 1234 c 0,41,42
 526 1206 526 1206 502 1086 c 1,43,-1
 484 1000 l 1,44,45
 540 1022 540 1022 626 1022 c 0,46,47
 786 1022 786 1022 887 939 c 128,-1,48
 988 856 988 856 988 720 c 0,49,50
 988 595 988 595 922.5 490.5 c 128,-1,51
 857 386 857 386 750 327 c 128,-1,52
 643 268 643 268 522 268 c 0,53,54
 493 268 493 268 467 274.5 c 128,-1,55
 441 281 441 281 432 288 c 1,56,57
 416 304 416 304 416 320 c 0,58,59
 416 324 416 324 424 328 c 1,60,61
 440 320 440 320 490 320 c 0,62,63
 546 320 546 320 602.5 347 c 128,-1,64
 659 374 659 374 705.5 421.5 c 128,-1,65
 752 469 752 469 781 540 c 128,-1,66
 810 611 810 611 810 692 c 0,67,68
 810 964 810 964 578 964 c 0,69,70
 566 964 566 964 552 962.5 c 128,-1,71
 538 961 538 961 518.5 956.5 c 128,-1,72
 499 952 499 952 485 941.5 c 128,-1,73
 471 931 471 931 468 916 c 10,0,1
EndSplineSet
EndChar
StartChar: ae
Encoding: 230 230 163
Width: 1118
VWidth: 0
Flags: W
LayerCount: 2
Fore
SplineSet
842 788 m 3,0,1
 783 788 783 788 731.5 735 c 128,-1,2
 680 682 680 682 651 609 c 128,-1,3
 622 536 622 536 612 460 c 1,4,5
 643 460 643 460 694 478.5 c 128,-1,6
 745 497 745 497 797 528 c 128,-1,7
 849 559 849 559 886.5 607.5 c 128,-1,8
 924 656 924 656 924 708 c 0,9,10
 924 744 924 744 899 766 c 128,-1,11
 874 788 874 788 842 788 c 3,0,1
434 216 m 2,12,-1
 464 402 l 1,13,14
 344 379 344 379 268 340 c 0,15,16
 164 286 164 286 164 202 c 0,17,18
 164 154 164 154 189.5 123 c 128,-1,19
 215 92 215 92 254 92 c 0,20,21
 297 92 297 92 364.5 145 c 128,-1,22
 432 198 432 198 434 216 c 2,12,-1
502 870 m 3,23,24
 561 870 561 870 600.5 829 c 128,-1,25
 640 788 640 788 646 732 c 1,26,27
 697 791 697 791 778 830.5 c 128,-1,28
 859 870 859 870 936 870 c 0,29,30
 974 870 974 870 1002 858.5 c 128,-1,31
 1030 847 1030 847 1043 833 c 128,-1,32
 1056 819 1056 819 1063 797.5 c 128,-1,33
 1070 776 1070 776 1071 765 c 128,-1,34
 1072 754 1072 754 1072 740 c 0,35,36
 1072 678 1072 678 1020 616 c 128,-1,37
 968 554 968 554 892 510 c 128,-1,38
 816 466 816 466 738 436 c 128,-1,39
 660 406 660 406 602 398 c 1,40,41
 594 350 594 350 594 316 c 0,42,43
 594 218 594 218 629 162 c 128,-1,44
 664 106 664 106 734 106 c 0,45,46
 749 106 749 106 766.5 111.5 c 128,-1,47
 784 117 784 117 800 126 c 128,-1,48
 816 135 816 135 833.5 147.5 c 128,-1,49
 851 160 851 160 864.5 172 c 128,-1,50
 878 184 878 184 892 197 c 128,-1,51
 906 210 906 210 914.5 219 c 128,-1,52
 923 228 923 228 930.5 236 c 2,53,-1
 938 244 l 1,54,55
 943 244 943 244 952 230 c 128,-1,56
 961 216 961 216 962 204 c 1,57,58
 903 120 903 120 815.5 54 c 128,-1,59
 728 -12 728 -12 656 -12 c 0,60,61
 591 -12 591 -12 529.5 29.5 c 128,-1,62
 468 71 468 71 448 140 c 1,63,64
 421 105 421 105 320 44.5 c 128,-1,65
 219 -16 219 -16 180 -16 c 0,66,67
 110 -16 110 -16 61 28.5 c 128,-1,68
 12 73 12 73 12 160 c 0,69,70
 12 222 12 222 49 276 c 128,-1,71
 86 330 86 330 130 360 c 0,72,73
 143 369 143 369 207 389.5 c 128,-1,74
 271 410 271 410 357 435.5 c 128,-1,75
 443 461 443 461 464 468 c 0,76,77
 469 469 469 469 472 473.5 c 128,-1,78
 475 478 475 478 476 482.5 c 128,-1,79
 477 487 477 487 478.5 497 c 128,-1,80
 480 507 480 507 482 514 c 2,81,-1
 504 634 l 1,82,83
 508 650 508 650 508 676 c 0,84,85
 508 717 508 717 477 755.5 c 128,-1,86
 446 794 446 794 396 794 c 0,87,88
 353 794 353 794 328 766 c 128,-1,89
 303 738 303 738 282 678 c 1,90,91
 248 588 248 588 180 588 c 0,92,93
 134 588 134 588 134 646 c 0,94,95
 134 677 134 677 156 712 c 1,96,97
 218 765 218 765 317 817.5 c 128,-1,98
 416 870 416 870 502 870 c 3,23,24
EndSplineSet
Substitution2: "'smcp' Lowercase to Small Capitals in Latin lookup 3-1" ae.sc
EndChar
StartChar: eth
Encoding: 240 240 173
Width: 874
VWidth: 0
UnlinkRmOvrlpSave: 1
Flags: W
LayerCount: 2
Back
SplineSet
504 806 m 0,0,1
 444 806 444 806 391.5 758 c 0,2,3
 339 710 339 710 305.5 636 c 0,4,5
 272 562 272 562 253 477.5 c 0,6,7
 234 393 234 393 234 316 c 0,2,3
 234 195 234 195 264 124.5 c 0,4,5
 294 54 294 54 348 54 c 0,4,5
 407 54 407 54 458.5 102.5 c 0,6,7
 510 151 510 151 542 225.5 c 0,8,9
 574 300 574 300 592 384.5 c 0,10,11
 610 469 610 469 610 546 c 0,6,7
 610 669 610 669 583.5 737.5 c 0,8,9
 557 806 557 806 504 806 c 0,0,1
532 870 m 0,8,9
 648 870 648 870 707 790.5 c 0,10,11
 766 711 766 711 766 576 c 0,10,11
 766 473 766 473 726.5 366.5 c 0,12,13
 687 260 687 260 624.5 177.5 c 0,14,15
 562 95 562 95 478 42.5 c 0,16,17
 394 -10 394 -10 310 -10 c 0,12,13
 194 -10 194 -10 136 66 c 0,14,15
 78 142 78 142 78 276 c 0,14,15
 78 379 78 379 117 486.5 c 0,16,17
 156 594 156 594 218.5 678 c 0,18,19
 281 762 281 762 364.5 816 c 0,20,21
 448 870 448 870 532 870 c 0,8,9
EndSplineSet
Fore
SplineSet
312 1018 m 17,0,1
 302 1026 302 1026 294.5 1048.5 c 128,-1,2
 287 1071 287 1071 294 1082 c 1,3,-1
 786 1408 l 1,4,5
 795 1399 795 1399 802.5 1376 c 128,-1,6
 810 1353 810 1353 806 1346 c 1,7,-1
 312 1018 l 17,0,1
518 870 m 0,8,9
 595 870 595 870 626 852 c 1,10,11
 628 914 628 914 605.5 988.5 c 128,-1,12
 583 1063 583 1063 540.5 1135 c 128,-1,13
 498 1207 498 1207 427 1265 c 128,-1,14
 356 1323 356 1323 270 1344 c 1,15,16
 272 1356 272 1356 279 1366 c 128,-1,17
 286 1376 286 1376 296 1376 c 1,18,19
 413 1356 413 1356 506 1292.5 c 128,-1,20
 599 1229 599 1229 657 1137 c 128,-1,21
 715 1045 715 1045 745.5 935 c 128,-1,22
 776 825 776 825 776 706 c 0,23,24
 776 579 776 579 749 464 c 128,-1,25
 722 349 722 349 675.5 264 c 128,-1,26
 629 179 629 179 569 116.5 c 128,-1,27
 509 54 509 54 441.5 22 c 128,-1,28
 374 -10 374 -10 306 -10 c 0,29,30
 255 -10 255 -10 214.5 7.5 c 128,-1,31
 174 25 174 25 149 53 c 128,-1,32
 124 81 124 81 107.5 119.5 c 128,-1,33
 91 158 91 158 84.5 197.5 c 128,-1,34
 78 237 78 237 78 280 c 0,35,36
 78 346 78 346 99 425.5 c 128,-1,37
 120 505 120 505 160.5 583 c 128,-1,38
 201 661 201 661 253 725.5 c 128,-1,39
 305 790 305 790 375 830 c 128,-1,40
 445 870 445 870 518 870 c 0,8,9
502 806 m 0,41,42
 437 806 437 806 375.5 740.5 c 128,-1,43
 314 675 314 675 274 560 c 128,-1,44
 234 445 234 445 234 316 c 0,45,46
 234 275 234 275 238.5 235.5 c 128,-1,47
 243 196 243 196 254 152 c 128,-1,48
 265 108 265 108 290 81 c 128,-1,49
 315 54 315 54 350 54 c 0,50,51
 449 54 449 54 529.5 199.5 c 128,-1,52
 610 345 610 345 610 546 c 0,53,54
 610 667 610 667 604 706 c 0,55,56
 598 746 598 746 567.5 776 c 128,-1,57
 537 806 537 806 502 806 c 0,41,42
EndSplineSet
Substitution2: "'smcp' Lowercase to Small Capitals in Latin lookup 3-1" eth.sc
EndChar
StartChar: oslash
Encoding: 248 248 181
Width: 828
VWidth: 0
Flags: W
LayerCount: 2
Fore
SplineSet
104 0 m 17,0,1
 90 7 90 7 75.5 19.5 c 0,2,3
 61 32 61 32 66 40 c 2,4,-1
 682 838 l 1,5,6
 690 834 690 834 699 828 c 0,7,8
 708 822 708 822 716 813.5 c 0,9,10
 724 805 724 805 720 800 c 2,11,-1
 104 0 l 17,0,1
EndSplineSet
Refer: 78 111 N 1 0 0 1 0 0 2
Substitution2: "'smcp' Lowercase to Small Capitals in Latin lookup 3-1" oslash.sc
EndChar
StartChar: thorn
Encoding: 254 254 187
Width: 898
Flags: W
LayerCount: 2
Fore
SplineSet
443 1184 m 1,0,1
 440 1163 440 1163 394 930 c 128,-1,2
 348 697 348 697 347 692 c 1,3,4
 539 870 539 870 643 870 c 0,5,6
 817 870 817 870 817 628 c 0,7,8
 817 477 817 477 742.5 327.5 c 128,-1,9
 668 178 668 178 550 84 c 128,-1,10
 432 -10 432 -10 313 -10 c 0,11,12
 237 -10 237 -10 221 16 c 1,13,-1
 155 -290 l 2,14,15
 149 -317 149 -317 149 -346 c 0,16,17
 149 -357 149 -357 156.5 -372.5 c 128,-1,18
 164 -388 164 -388 177 -392 c 0,19,20
 202 -398 202 -398 271 -398 c 1,21,22
 277 -399 277 -399 274.5 -425 c 128,-1,23
 272 -451 272 -451 265 -454 c 1,24,25
 252 -454 252 -454 229 -453 c 128,-1,26
 206 -452 206 -452 195 -452 c 0,27,28
 48 -452 48 -452 -101 -470 c 1,29,30
 -108 -468 -108 -468 -107.5 -442.5 c 128,-1,31
 -107 -417 -107 -417 -99 -412 c 1,32,33
 -45 -412 -45 -412 -19 -380 c 1,34,35
 -1 -356 -1 -356 13 -294 c 1,36,-1
 171 500 l 1,37,-1
 75 404 l 1,38,39
 63 419 63 419 63 444 c 0,40,41
 63 452 63 452 69 458 c 2,42,-1
 187 584 l 1,43,-1
 289 1120 l 2,44,45
 291 1132 291 1132 296 1156.5 c 128,-1,46
 301 1181 301 1181 304 1198.5 c 128,-1,47
 307 1216 307 1216 307 1226 c 0,48,49
 307 1264 307 1264 185 1264 c 1,50,51
 181 1270 181 1270 184 1285 c 128,-1,52
 187 1300 187 1300 193 1306 c 1,53,54
 303 1316 303 1316 457 1372 c 1,55,56
 469 1365 469 1365 469 1334 c 0,57,58
 469 1314 469 1314 443 1184 c 1,0,1
563 760 m 0,59,60
 515 760 515 760 442 709.5 c 128,-1,61
 369 659 369 659 327 600 c 1,62,-1
 261 262 l 2,63,64
 245 178 245 178 276 119 c 128,-1,65
 307 60 307 60 355 60 c 0,66,67
 436 60 436 60 510.5 147 c 128,-1,68
 585 234 585 234 627 360 c 128,-1,69
 669 486 669 486 669 606 c 0,70,71
 669 760 669 760 563 760 c 0,59,60
EndSplineSet
Substitution2: "'smcp' Lowercase to Small Capitals in Latin lookup 3-1" thorn.sc
EndChar
StartChar: Aogonek
Encoding: 260 260 302
Width: 1172
Flags: W
LayerCount: 2
Fore
SplineSet
975 120 m 0,0,1
 981 89 981 89 1023.5 70.5 c 128,-1,2
 1066 52 1066 52 1087 52 c 1,3,4
 1091 40 1091 40 1088 20 c 128,-1,5
 1085 -0 1085 -0 1081 -6 c 1,6,7
 1061 -5 1061 -5 1049.5 -4 c 128,-1,8
 1038 -3 1038 -3 1035.5 -2.5 c 128,-1,9
 1033 -2 1033 -2 1029 -1 c 128,-1,10
 1025 -0 1025 -0 1015.5 0 c 128,-1,11
 1006 0 1006 0 985 0 c 0,12,13
 908 0 908 0 835.5 -33.5 c 128,-1,14
 763 -67 763 -67 716.5 -113 c 128,-1,15
 670 -159 670 -159 641.5 -204.5 c 128,-1,16
 613 -250 613 -250 613 -278 c 0,17,18
 613 -342 613 -342 675 -342 c 0,19,20
 716 -342 716 -342 754.5 -323 c 128,-1,21
 793 -304 793 -304 815.5 -285 c 128,-1,22
 838 -266 838 -266 841 -266 c 0,23,24
 851 -268 851 -268 843.5 -293.5 c 128,-1,25
 836 -319 836 -319 829 -326 c 0,26,27
 709 -460 709 -460 607 -460 c 0,28,29
 563 -460 563 -460 534 -429 c 128,-1,30
 505 -398 505 -398 505 -356 c 0,31,32
 505 -305 505 -305 543.5 -238.5 c 128,-1,33
 582 -172 582 -172 622 -126.5 c 128,-1,34
 662 -81 662 -81 721 -22 c 0,35,36
 727 -16 727 -16 748.5 3.5 c 128,-1,37
 770 23 770 23 775.5 30.5 c 128,-1,38
 781 38 781 38 788 58.5 c 128,-1,39
 795 79 795 79 795 106 c 0,40,41
 795 182 795 182 790 212 c 2,42,-1
 745 512 l 1,43,-1
 348 512 l 1,44,45
 247 329 247 329 205 250 c 1,46,47
 148 139 148 139 148 100 c 0,48,49
 148 85 148 85 164.5 74.5 c 128,-1,50
 181 64 181 64 205 60 c 128,-1,51
 229 56 229 56 245.5 54 c 128,-1,52
 262 52 262 52 271 52 c 1,53,54
 274 48 274 48 271 25.5 c 128,-1,55
 268 3 268 3 263 -6 c 1,56,57
 236 -5 236 -5 205.5 -2 c 128,-1,58
 175 1 175 1 148 2.5 c 128,-1,59
 121 4 121 4 85 4 c 0,60,61
 47 4 47 4 18.5 2.5 c 128,-1,62
 -10 1 -10 1 -44.5 -2 c 128,-1,63
 -79 -5 -79 -5 -111 -6 c 1,64,65
 -114 -2 -114 -2 -109.5 19.5 c 128,-1,66
 -105 41 -105 41 -99 52 c 1,67,68
 -76 52 -76 52 -38.5 62.5 c 128,-1,69
 -1 73 -1 73 15 90 c 0,70,71
 63 141 63 141 139 278 c 2,72,-1
 691 1268 l 2,73,74
 703 1290 703 1290 730 1308 c 128,-1,75
 757 1326 757 1326 771 1326 c 0,76,77
 778 1326 778 1326 781 1320 c 1,78,-1
 953 252 l 1,79,80
 962 183 962 183 975 120 c 0,0,1
384 578 m 1,81,-1
 735 578 l 1,82,-1
 657 1070 l 1,83,-1
 384 578 l 1,81,-1
EndSplineSet
EndChar
StartChar: aogonek
Encoding: 261 261 303
Width: 898
Flags: W
LayerCount: 2
Fore
SplineSet
518 790 m 0,0,1
 443 790 443 790 365 716.5 c 128,-1,2
 287 643 287 643 236.5 528.5 c 128,-1,3
 186 414 186 414 186 302 c 0,4,5
 186 106 186 106 288 106 c 0,6,7
 336 106 336 106 395.5 176.5 c 128,-1,8
 455 247 455 247 502 349.5 c 128,-1,9
 549 452 549 452 568 548 c 2,10,-1
 610 760 l 1,11,12
 598 774 598 774 569.5 782 c 128,-1,13
 541 790 541 790 518 790 c 0,0,1
816 176 m 1,14,15
 807 160 807 160 768.5 121.5 c 128,-1,16
 730 83 730 83 690 50 c 0,17,18
 653 20 653 20 616 -14 c 128,-1,19
 579 -48 579 -48 531 -96.5 c 128,-1,20
 483 -145 483 -145 453.5 -193.5 c 128,-1,21
 424 -242 424 -242 424 -278 c 0,22,23
 424 -342 424 -342 486 -342 c 0,24,25
 527 -342 527 -342 565.5 -323 c 128,-1,26
 604 -304 604 -304 626.5 -285 c 128,-1,27
 649 -266 649 -266 652 -266 c 0,28,29
 662 -268 662 -268 654.5 -293.5 c 128,-1,30
 647 -319 647 -319 640 -326 c 0,31,32
 520 -460 520 -460 418 -460 c 0,33,34
 374 -460 374 -460 345 -430.5 c 128,-1,35
 316 -401 316 -401 316 -360 c 0,36,37
 316 -290 316 -290 382 -191 c 128,-1,38
 448 -92 448 -92 532 -8 c 1,39,40
 486 10 486 10 486 92 c 0,41,42
 486 124 486 124 500 198 c 1,43,44
 508 246 508 246 510 260 c 1,45,46
 492 227 492 227 462.5 186.5 c 128,-1,47
 433 146 433 146 392.5 99 c 128,-1,48
 352 52 352 52 304.5 21 c 128,-1,49
 257 -10 257 -10 216 -10 c 0,50,51
 135 -10 135 -10 86.5 55 c 128,-1,52
 38 120 38 120 38 226 c 0,53,54
 38 351 38 351 93 472.5 c 128,-1,55
 148 594 148 594 232.5 679.5 c 128,-1,56
 317 765 317 765 418 817.5 c 128,-1,57
 519 870 519 870 610 870 c 0,58,59
 695 870 695 870 766 844 c 1,60,-1
 644 212 l 1,61,62
 636 180 636 180 636 148 c 0,63,64
 636 98 636 98 656 98 c 0,65,66
 666 98 666 98 680.5 106.5 c 128,-1,67
 695 115 695 115 709.5 127 c 128,-1,68
 724 139 724 139 739.5 154 c 128,-1,69
 755 169 755 169 766 181 c 128,-1,70
 777 193 777 193 786.5 203.5 c 2,71,-1
 796 214 l 1,72,73
 801 214 801 214 808.5 199.5 c 128,-1,74
 816 185 816 185 816 176 c 1,14,15
EndSplineSet
Substitution2: "'smcp' Lowercase to Small Capitals in Latin lookup 3-1" aogonek.sc
EndChar
StartChar: dcroat
Encoding: 273 273 408
Width: 892
Flags: W
LayerCount: 2
Fore
SplineSet
512 1130 m 1,0,-1
 970 1130 l 2,1,2
 980 1130 980 1130 976 1114 c 0,3,4
 971 1089 971 1089 954 1062 c 1,5,-1
 494 1062 l 2,6,7
 490 1062 490 1062 489 1070 c 0,8,9
 488 1078 488 1078 490 1084 c 0,10,11
 495 1111 495 1111 512 1130 c 1,0,-1
EndSplineSet
Refer: 67 100 N 1 0 0 1 0 0 2
Substitution2: "'smcp' Lowercase to Small Capitals in Latin lookup 3-1" dcroat.sc
EndChar
StartChar: Eogonek
Encoding: 280 280 319
Width: 1108
Flags: W
LayerCount: 2
Fore
SplineSet
844 -8 m 1,0,1
 776 -8 776 -8 710 -36 c 128,-1,2
 644 -64 644 -64 599 -105.5 c 128,-1,3
 554 -147 554 -147 526.5 -193.5 c 128,-1,4
 499 -240 499 -240 499 -278 c 0,5,6
 499 -342 499 -342 561 -342 c 0,7,8
 602 -342 602 -342 640.5 -323 c 128,-1,9
 679 -304 679 -304 701.5 -285 c 128,-1,10
 724 -266 724 -266 727 -266 c 0,11,12
 737 -268 737 -268 729.5 -293.5 c 128,-1,13
 722 -319 722 -319 715 -326 c 0,14,15
 595 -460 595 -460 493 -460 c 0,16,17
 449 -460 449 -460 420 -430.5 c 128,-1,18
 391 -401 391 -401 391 -360 c 0,19,20
 391 -279 391 -279 470 -162.5 c 128,-1,21
 549 -46 549 -46 633 -6 c 1,22,23
 261 0 261 0 211 0 c 0,24,25
 165 0 165 0 94 -3 c 128,-1,26
 23 -6 23 -6 -11 -6 c 1,27,28
 -17 2 -17 2 -13 23 c 128,-1,29
 -9 44 -9 44 -1 52 c 1,30,31
 27 52 27 52 78 61 c 128,-1,32
 129 70 129 70 135 84 c 0,33,34
 149 112 149 112 173 232 c 2,35,-1
 339 1086 l 2,36,37
 361 1198 361 1198 357 1234 c 0,38,39
 356 1248 356 1248 309.5 1257 c 128,-1,40
 263 1266 263 1266 235 1266 c 1,41,42
 230 1273 230 1273 234 1295 c 128,-1,43
 238 1317 238 1317 247 1324 c 1,44,45
 437 1314 437 1314 466 1314 c 0,46,47
 550 1314 550 1314 756 1321 c 128,-1,48
 962 1328 962 1328 1066 1328 c 1,49,50
 1062 1303 1062 1303 1065 1188 c 128,-1,51
 1068 1073 1068 1073 1068 1056 c 1,52,53
 1058 1046 1058 1046 1032 1046 c 0,54,55
 1010 1046 1010 1046 1010 1060 c 0,56,57
 1003 1173 1003 1173 958.5 1216.5 c 128,-1,58
 914 1260 914 1260 834 1260 c 2,59,-1
 674 1260 l 2,60,61
 553 1260 553 1260 542 1238 c 0,62,63
 521 1196 521 1196 502 1094 c 2,64,-1
 428 710 l 2,65,66
 427 706 427 706 433.5 703.5 c 128,-1,67
 440 701 440 701 451.5 700 c 128,-1,68
 463 699 463 699 476 698.5 c 128,-1,69
 489 698 489 698 506 698 c 2,70,-1
 604 698 l 2,71,72
 650 698 650 698 676 699 c 128,-1,73
 702 700 702 700 725.5 705 c 128,-1,74
 749 710 749 710 761 717.5 c 128,-1,75
 773 725 773 725 785 740 c 128,-1,76
 797 755 797 755 806 774 c 128,-1,77
 815 793 815 793 827.845623473 823.341505471 c 0,78,79
 833 835 833 835 836 842 c 0,80,81
 842 856 842 856 868 856 c 0,82,83
 889 856 889 856 896 846 c 1,84,-1
 824 468 l 1,85,86
 816 460 816 460 792 460 c 0,87,88
 769 460 769 460 766 476 c 1,89,90
 762 557 762 557 756.5 581.5 c 128,-1,91
 751 606 751 606 740 616 c 1,92,93
 719 632 719 632 546 632 c 0,94,95
 412 632 412 632 408 614 c 2,96,-1
 330 218 l 2,97,98
 305 91 305 91 316 80 c 0,99,100
 330 66 330 66 354 63 c 128,-1,101
 378 60 378 60 444 60 c 2,102,-1
 532 60 l 2,103,104
 686 60 686 60 780 122 c 0,105,106
 869 181 869 181 936 324 c 0,107,108
 942 336 942 336 966 336 c 0,109,110
 1002 336 1002 336 1010 324 c 1,111,112
 997 299 997 299 953 218 c 128,-1,113
 909 137 909 137 883 84.5 c 128,-1,114
 857 32 857 32 844 -8 c 1,0,1
EndSplineSet
EndChar
StartChar: eogonek
Encoding: 281 281 320
Width: 726
Flags: W
LayerCount: 2
Fore
SplineSet
210 436 m 1,0,1
 241 436 241 436 293.5 458.5 c 128,-1,2
 346 481 346 481 400 516 c 128,-1,3
 454 551 454 551 493 603.5 c 128,-1,4
 532 656 532 656 532 708 c 0,5,6
 532 746 532 746 506 767 c 128,-1,7
 480 788 480 788 448 788 c 0,8,9
 399 788 399 788 354.5 748 c 128,-1,10
 310 708 310 708 280.5 650 c 128,-1,11
 251 592 251 592 232.5 535 c 128,-1,12
 214 478 214 478 210 436 c 1,0,1
40 -360 m 0,13,14
 39 -296 39 -296 127.5 -183.5 c 128,-1,15
 216 -71 216 -71 282 -12 c 1,16,-1
 266 -12 l 2,17,18
 160 -12 160 -12 103 63 c 128,-1,19
 46 138 46 138 46 278 c 0,20,21
 46 385 46 385 92.5 494.5 c 128,-1,22
 139 604 139 604 210.5 685.5 c 128,-1,23
 282 767 282 767 372.5 818.5 c 128,-1,24
 463 870 463 870 548 870 c 0,25,26
 618 870 618 870 649 834 c 128,-1,27
 680 798 680 798 680 746 c 0,28,29
 680 678 680 678 623.5 609.5 c 128,-1,30
 567 541 567 541 489 493.5 c 128,-1,31
 411 446 411 446 332.5 416 c 128,-1,32
 254 386 254 386 206 386 c 1,33,34
 202 374 202 374 202 322 c 0,35,36
 202 224 202 224 235.5 165 c 128,-1,37
 269 106 269 106 340 106 c 0,38,39
 356 106 356 106 374.5 112 c 128,-1,40
 393 118 393 118 409.5 127 c 128,-1,41
 426 136 426 136 443.5 148.5 c 128,-1,42
 461 161 461 161 474.5 173 c 128,-1,43
 488 185 488 185 501.5 198 c 128,-1,44
 515 211 515 211 523.5 220 c 128,-1,45
 532 229 532 229 539 236.5 c 2,46,-1
 546 244 l 1,47,48
 551 244 551 244 560.5 228.5 c 128,-1,49
 570 213 570 213 570 204 c 1,50,51
 552 172 552 172 488 108 c 0,52,53
 466 87 466 87 411.5 36 c 128,-1,54
 357 -15 357 -15 318.5 -53 c 128,-1,55
 280 -91 280 -91 236.5 -137 c 128,-1,56
 193 -183 193 -183 169.5 -219 c 128,-1,57
 146 -255 146 -255 146 -278 c 0,58,59
 146 -342 146 -342 208 -342 c 0,60,61
 249 -342 249 -342 287.5 -323 c 128,-1,62
 326 -304 326 -304 348.5 -285 c 128,-1,63
 371 -266 371 -266 374 -266 c 0,64,65
 384 -268 384 -268 376.5 -293.5 c 128,-1,66
 369 -319 369 -319 362 -326 c 0,67,68
 242 -460 242 -460 140 -460 c 0,69,70
 96 -460 96 -460 68 -431 c 128,-1,71
 40 -402 40 -402 40 -360 c 0,13,14
EndSplineSet
Substitution2: "'smcp' Lowercase to Small Capitals in Latin lookup 3-1" eogonek.sc
EndChar
StartChar: hbar
Encoding: 295 295 403
Width: 940
Flags: W
LayerCount: 2
Fore
SplineSet
178 1130 m 1,0,-1
 636 1130 l 2,1,2
 646 1130 646 1130 642 1114 c 0,3,4
 637 1089 637 1089 620 1062 c 1,5,-1
 160 1062 l 2,6,7
 156 1062 156 1062 155 1070 c 0,8,9
 154 1078 154 1078 156 1084 c 0,10,11
 161 1111 161 1111 178 1130 c 1,0,-1
EndSplineSet
Refer: 71 104 N 1 0 0 1 0 0 2
Substitution2: "'smcp' Lowercase to Small Capitals in Latin lookup 3-1" hbar.sc
EndChar
StartChar: Iogonek
Encoding: 302 302 339
Width: 626
Flags: W
LayerCount: 2
Fore
SplineSet
436 52 m 1,0,1
 439 47 439 47 433.5 24.5 c 128,-1,2
 428 2 428 2 424 -6 c 1,3,4
 382 -6 382 -6 330 -20 c 1,5,6
 227 -50 227 -50 152.5 -130.5 c 128,-1,7
 78 -211 78 -211 78 -278 c 0,8,9
 78 -342 78 -342 140 -342 c 0,10,11
 181 -342 181 -342 219.5 -323 c 128,-1,12
 258 -304 258 -304 280.5 -285 c 128,-1,13
 303 -266 303 -266 306 -266 c 0,14,15
 316 -268 316 -268 308.5 -293.5 c 128,-1,16
 301 -319 301 -319 294 -326 c 0,17,18
 174 -460 174 -460 72 -460 c 0,19,20
 28 -460 28 -460 0 -431 c 128,-1,21
 -28 -402 -28 -402 -28 -360 c 0,22,23
 -28 -268 -28 -268 50.5 -152.5 c 128,-1,24
 129 -37 129 -37 216 4 c 1,25,26
 183 4 183 4 -12 -6 c 1,27,28
 -18 2 -18 2 -14 23 c 128,-1,29
 -10 44 -10 44 -2 52 c 1,30,31
 26 52 26 52 77 61 c 128,-1,32
 128 70 128 70 134 84 c 0,33,34
 148 112 148 112 172 232 c 2,35,-1
 338 1086 l 2,36,37
 360 1198 360 1198 356 1234 c 0,38,39
 355 1248 355 1248 308.5 1257 c 128,-1,40
 262 1266 262 1266 234 1266 c 1,41,42
 229 1273 229 1273 233 1295 c 128,-1,43
 237 1317 237 1317 246 1324 c 1,44,45
 436 1314 436 1314 464 1314 c 0,46,47
 489 1314 489 1314 684 1324 c 1,48,49
 690 1316 690 1316 685 1295 c 128,-1,50
 680 1274 680 1274 672 1266 c 1,51,52
 644 1266 644 1266 594 1257 c 128,-1,53
 544 1248 544 1248 538 1234 c 0,54,55
 524 1206 524 1206 500 1086 c 2,56,-1
 334 232 l 1,57,58
 310 114 310 114 314 84 c 0,59,60
 315 70 315 70 361.5 61 c 128,-1,61
 408 52 408 52 436 52 c 1,0,1
EndSplineSet
EndChar
StartChar: dotlessi
Encoding: 305 305 233
Width: 524
Flags: W
LayerCount: 2
Fore
SplineSet
222 646 m 1,0,1
 230 694 230 694 230 710 c 0,2,3
 230 760 230 760 210 760 c 0,4,5
 200 760 200 760 185.5 751.5 c 128,-1,6
 171 743 171 743 156.5 731 c 128,-1,7
 142 719 142 719 126.5 704 c 128,-1,8
 111 689 111 689 100 677 c 128,-1,9
 89 665 89 665 79.5 654.5 c 2,10,-1
 70 644 l 1,11,12
 65 644 65 644 57.5 658.5 c 128,-1,13
 50 673 50 673 50 682 c 1,14,15
 76 726 76 726 158.5 798 c 128,-1,16
 241 870 241 870 302 870 c 0,17,18
 334 870 334 870 357 840 c 128,-1,19
 380 810 380 810 380 766 c 0,20,21
 380 734 380 734 366 660 c 1,22,-1
 264 212 l 1,23,24
 256 172 256 172 256 148 c 0,25,26
 256 98 256 98 276 98 c 0,27,28
 286 98 286 98 300.5 106.5 c 128,-1,29
 315 115 315 115 329.5 127 c 128,-1,30
 344 139 344 139 359.5 154 c 128,-1,31
 375 169 375 169 386 181 c 128,-1,32
 397 193 397 193 406.5 203.5 c 2,33,-1
 416 214 l 1,34,35
 421 214 421 214 428.5 199.5 c 128,-1,36
 436 185 436 185 436 176 c 1,37,38
 411 134 411 134 323.5 61 c 128,-1,39
 236 -12 236 -12 174 -12 c 0,40,41
 143 -12 143 -12 124.5 17 c 128,-1,42
 106 46 106 46 106 92 c 0,43,44
 106 124 106 124 120 198 c 1,45,-1
 222 646 l 1,0,1
EndSplineSet
Substitution2: "'smcp' Lowercase to Small Capitals in Latin lookup 3-1" dotlessi.sc
EndChar
StartChar: kgreenlandic
Encoding: 312 312 411
Width: 964
Flags: W
LayerCount: 2
Fore
SplineSet
214 646 m 1,0,1
 222 694 222 694 222 710 c 0,2,3
 222 760 222 760 202 760 c 0,4,5
 192 760 192 760 177.5 751.5 c 128,-1,6
 163 743 163 743 148.5 731 c 128,-1,7
 134 719 134 719 118.5 704 c 128,-1,8
 103 689 103 689 92 677 c 128,-1,9
 81 665 81 665 71.5 654.5 c 2,10,-1
 62 644 l 1,11,12
 57 644 57 644 49.5 658.5 c 128,-1,13
 42 673 42 673 42 682 c 1,14,15
 68 726 68 726 150.5 798 c 128,-1,16
 233 870 233 870 294 870 c 0,17,18
 326 870 326 870 349 840 c 128,-1,19
 372 810 372 810 372 766 c 0,20,21
 372 758 372 758 358 660 c 1,22,-1
 356 644 l 1,23,-1
 377.5 670 l 2,24,25
 399 696 399 696 430.5 727.5 c 128,-1,26
 462 759 462 759 502.5 792.5 c 128,-1,27
 543 826 543 826 594.5 848 c 128,-1,28
 646 870 646 870 694 870 c 0,29,30
 754 870 754 870 799 830.5 c 128,-1,31
 844 791 844 791 844 734 c 0,32,33
 844 668 844 668 810 614 c 128,-1,34
 776 560 776 560 715.5 523 c 128,-1,35
 655 486 655 486 582.5 461.5 c 128,-1,36
 510 437 510 437 422 422 c 1,37,38
 554 225 554 225 614 163.5 c 128,-1,39
 674 102 674 102 736 102 c 0,40,41
 758 102 758 102 803 142.5 c 128,-1,42
 848 183 848 183 872 214 c 1,43,44
 876 214 876 214 884 199 c 128,-1,45
 892 184 892 184 892 176 c 1,46,47
 871 139 871 139 788 65.5 c 128,-1,48
 705 -8 705 -8 648 -8 c 0,49,50
 610 -8 610 -8 573 12 c 128,-1,51
 536 32 536 32 508 60 c 128,-1,52
 480 88 480 88 448.5 134 c 128,-1,53
 417 180 417 180 397 216 c 128,-1,54
 377 252 377 252 348 304.5 c 128,-1,55
 319 357 319 357 304 382 c 1,56,-1
 230 0 l 1,57,58
 193 -10 193 -10 160 -10 c 0,59,60
 128 -10 128 -10 88 0 c 1,61,-1
 214 646 l 1,0,1
622 776 m 0,62,63
 539 776 539 776 439 666.5 c 128,-1,64
 339 557 339 557 320 460 c 1,65,66
 362 460 362 460 410 469.5 c 128,-1,67
 458 479 458 479 507.5 499.5 c 128,-1,68
 557 520 557 520 597 548.5 c 128,-1,69
 637 577 637 577 662.5 618.5 c 128,-1,70
 688 660 688 660 688 708 c 0,71,72
 688 740 688 740 674 758 c 128,-1,73
 660 776 660 776 622 776 c 0,62,63
EndSplineSet
Substitution2: "'smcp' Lowercase to Small Capitals in Latin lookup 3-1" kgreenlandic.sc
EndChar
StartChar: Lslash
Encoding: 321 321 404
Width: 1058
Flags: W
LayerCount: 2
Fore
SplineSet
130 414 m 2,0,-1
 876 894 l 1,1,2
 883 885 883 885 892 860.5 c 0,3,4
 901 836 901 836 896 832 c 2,5,-1
 150 356 l 1,6,7
 142 369 142 369 133.5 389.5 c 0,8,9
 125 410 125 410 130 414 c 2,0,-1
EndSplineSet
Refer: 43 76 N 1 0 0 1 -2 0 2
EndChar
StartChar: lslash
Encoding: 322 322 405
Width: 490
Flags: W
LayerCount: 2
Fore
SplineSet
84 576 m 2,0,-1
 480 846 l 1,1,2
 508 799 508 799 496 792 c 2,3,-1
 98 520 l 1,4,5
 90 532 90 532 83.5 552 c 0,6,7
 77 572 77 572 84 576 c 2,0,-1
EndSplineSet
Refer: 75 108 N 1 0 0 1 0 0 2
Substitution2: "'smcp' Lowercase to Small Capitals in Latin lookup 3-1" lslash.sc
EndChar
StartChar: Eng
Encoding: 330 330 412
Width: 1462
Flags: W
LayerCount: 2
Fore
SplineSet
1020 88 m 9,0,-1
 452 1138 l 1,1,-1
 276 230 l 2,2,3
 264 169 264 169 262 146 c 128,-1,4
 260 123 260 123 268 92 c 1,5,6
 273 78 273 78 324 65 c 128,-1,7
 375 52 375 52 402 52 c 1,8,9
 406 40 406 40 402.5 22.5 c 128,-1,10
 399 5 399 5 394 -6 c 1,11,12
 209 4 209 4 182 4 c 0,13,14
 144 4 144 4 113 2.5 c 128,-1,15
 82 1 82 1 44.5 -2 c 128,-1,16
 7 -5 7 -5 -24 -6 c 1,17,18
 -28 0 -28 0 -25 18.5 c 128,-1,19
 -22 37 -22 37 -12 52 c 1,20,21
 14 52 14 52 71 64 c 128,-1,22
 128 76 128 76 140 92 c 0,23,24
 168 130 168 130 186 228 c 2,25,-1
 354 1096 l 2,26,27
 365 1157 365 1157 367 1181 c 128,-1,28
 369 1205 369 1205 362 1232 c 0,29,30
 357 1248 357 1248 304.5 1260 c 128,-1,31
 252 1272 252 1272 226 1272 c 1,32,33
 217 1306 217 1306 236 1330 c 1,34,35
 262 1329 262 1329 327 1324.5 c 128,-1,36
 392 1320 392 1320 428 1320 c 0,37,38
 518 1320 518 1320 570 1324 c 1,39,40
 601 1247 601 1247 816 869 c 128,-1,41
 1031 491 1031 491 1106 332 c 1,42,-1
 1254 1090 l 2,43,44
 1266 1151 1266 1151 1268 1174 c 128,-1,45
 1270 1197 1270 1197 1262 1228 c 1,46,47
 1257 1242 1257 1242 1206 1255 c 128,-1,48
 1155 1268 1155 1268 1128 1268 c 1,49,50
 1124 1280 1124 1280 1127.5 1297.5 c 128,-1,51
 1131 1315 1131 1315 1136 1326 c 1,52,53
 1321 1316 1321 1316 1348 1316 c 0,54,55
 1386 1316 1386 1316 1416.5 1317.5 c 128,-1,56
 1447 1319 1447 1319 1484 1322 c 128,-1,57
 1521 1325 1521 1325 1552 1326 c 1,58,59
 1562 1300 1562 1300 1542 1268 c 1,60,61
 1516 1268 1516 1268 1458 1256 c 128,-1,62
 1400 1244 1400 1244 1388 1228 c 0,63,64
 1372 1206 1372 1206 1363.5 1179 c 128,-1,65
 1355 1152 1355 1152 1344 1092 c 2,66,-1
 1178 232 l 2,67,68
 1149 80 1149 80 1098.5 -43 c 128,-1,69
 1048 -166 1048 -166 991 -243 c 128,-1,70
 934 -320 934 -320 869 -372 c 128,-1,71
 804 -424 804 -424 747.5 -445 c 128,-1,72
 691 -466 691 -466 640 -466 c 1,73,74
 634 -457 634 -457 634 -440 c 1,75,-1
 636 -428 l 1,76,77
 708 -406 708 -406 771.5 -353.5 c 128,-1,78
 835 -301 835 -301 882 -230 c 128,-1,79
 929 -159 929 -159 963 -79.5 c 128,-1,80
 997 0 997 0 1020 88 c 9,0,-1
EndSplineSet
EndChar
StartChar: OE
Encoding: 338 338 413
Width: 1772
Flags: W
LayerCount: 2
Fore
SplineSet
1200 1314 m 1,0,1
 1284 1314 1284 1314 1483 1321 c 128,-1,2
 1682 1328 1682 1328 1786 1328 c 1,3,4
 1782 1303 1782 1303 1785 1188 c 128,-1,5
 1788 1073 1788 1073 1788 1056 c 1,6,7
 1778 1046 1778 1046 1752 1046 c 0,8,9
 1730 1046 1730 1046 1730 1060 c 0,10,11
 1723 1173 1723 1173 1678.5 1216.5 c 128,-1,12
 1634 1260 1634 1260 1554 1260 c 2,13,-1
 1394 1260 l 2,14,15
 1273 1260 1273 1260 1262 1238 c 0,16,17
 1241 1196 1241 1196 1222 1094 c 2,18,-1
 1148 710 l 2,19,20
 1147 706 1147 706 1153.5 703.5 c 128,-1,21
 1160 701 1160 701 1171.5 700 c 128,-1,22
 1183 699 1183 699 1196 698.5 c 128,-1,23
 1209 698 1209 698 1226 698 c 2,24,-1
 1324 698 l 2,25,26
 1370 698 1370 698 1396 699 c 128,-1,27
 1422 700 1422 700 1445.5 705 c 128,-1,28
 1469 710 1469 710 1481 717.5 c 128,-1,29
 1493 725 1493 725 1505 740 c 128,-1,30
 1517 755 1517 755 1526 774 c 128,-1,31
 1535 793 1535 793 1547.84562347 823.341505471 c 0,32,33
 1553 835 1553 835 1556 842 c 0,34,35
 1562 856 1562 856 1588 856 c 0,36,37
 1609 856 1609 856 1616 846 c 1,38,-1
 1544 468 l 1,39,40
 1536 460 1536 460 1512 460 c 0,41,42
 1489 460 1489 460 1486 476 c 1,43,44
 1482 557 1482 557 1476.5 581.5 c 128,-1,45
 1471 606 1471 606 1460 616 c 1,46,47
 1439 632 1439 632 1266 632 c 0,48,49
 1132 632 1132 632 1128 614 c 2,50,-1
 1050 218 l 2,51,52
 1025 91 1025 91 1036 80 c 0,53,54
 1050 66 1050 66 1074 63 c 128,-1,55
 1098 60 1098 60 1164 60 c 2,56,-1
 1252 60 l 2,57,58
 1406 60 1406 60 1500 122 c 0,59,60
 1589 181 1589 181 1656 324 c 0,61,62
 1662 336 1662 336 1686 336 c 0,63,64
 1722 336 1722 336 1730 324 c 1,65,66
 1717 299 1717 299 1673 218 c 128,-1,67
 1629 137 1629 137 1603 84.5 c 128,-1,68
 1577 32 1577 32 1564 -8 c 1,69,70
 1489 -8 1489 -8 1280 -3 c 128,-1,71
 1071 2 1071 2 932 0 c 0,72,73
 873 -1 873 -1 777 -11.5 c 128,-1,74
 681 -22 681 -22 650 -22 c 0,75,76
 543 -22 543 -22 454 8.5 c 128,-1,77
 365 39 365 39 303 92 c 128,-1,78
 241 145 241 145 198 217 c 128,-1,79
 155 289 155 289 134.5 372.5 c 128,-1,80
 114 456 114 456 114 548 c 0,81,82
 114 707 114 707 170 851.5 c 128,-1,83
 226 996 226 996 320.5 1101.5 c 128,-1,84
 415 1207 415 1207 547.5 1269.5 c 128,-1,85
 680 1332 680 1332 826 1332 c 0,86,87
 898 1332 898 1332 1017 1322.5 c 128,-1,88
 1136 1313 1136 1313 1200 1314 c 1,0,1
1060 1114 m 2,89,90
 1069 1159 1069 1159 1047 1191.5 c 128,-1,91
 1025 1224 1025 1224 983.5 1240.5 c 128,-1,92
 942 1257 942 1257 898 1264.5 c 128,-1,93
 854 1272 854 1272 808 1272 c 0,94,95
 699 1272 699 1272 602.5 1206.5 c 128,-1,96
 506 1141 506 1141 441.5 1036.5 c 128,-1,97
 377 932 377 932 339.5 802.5 c 128,-1,98
 302 673 302 673 302 544 c 0,99,100
 302 299 302 299 391.5 167.5 c 128,-1,101
 481 36 481 36 650 36 c 0,102,103
 702 36 702 36 743 46 c 128,-1,104
 784 56 784 56 806.5 72 c 128,-1,105
 829 88 829 88 841 100.5 c 128,-1,106
 853 113 853 113 858 124 c 0,107,108
 882 172 882 172 894 232 c 2,109,-1
 1060 1114 l 2,89,90
EndSplineSet
EndChar
StartChar: oe
Encoding: 339 339 414
Width: 1228
VWidth: 0
Flags: W
LayerCount: 2
Fore
SplineSet
712 436 m 1,0,1
 747 438 747 438 800.5 460.5 c 128,-1,2
 854 483 854 483 906.5 518.5 c 128,-1,3
 959 554 959 554 996.5 605.5 c 128,-1,4
 1034 657 1034 657 1034 708 c 0,5,6
 1034 746 1034 746 1008 767 c 128,-1,7
 982 788 982 788 950 788 c 0,8,9
 893 788 893 788 839.5 729 c 128,-1,10
 786 670 786 670 753.5 591 c 128,-1,11
 721 512 721 512 712 436 c 1,0,1
474 806 m 0,12,13
 414 806 414 806 361.5 758 c 128,-1,14
 309 710 309 710 275.5 636 c 128,-1,15
 242 562 242 562 223 477.5 c 128,-1,16
 204 393 204 393 204 316 c 0,17,18
 204 195 204 195 234 124.5 c 128,-1,19
 264 54 264 54 318 54 c 0,20,21
 419 54 419 54 499.5 199.5 c 128,-1,22
 580 345 580 345 580 546 c 0,23,24
 580 669 580 669 553.5 737.5 c 128,-1,25
 527 806 527 806 474 806 c 0,12,13
1050 870 m 0,26,27
 1120 870 1120 870 1151 834 c 128,-1,28
 1182 798 1182 798 1182 746 c 0,29,30
 1182 678 1182 678 1125.5 609.5 c 128,-1,31
 1069 541 1069 541 991 493.5 c 128,-1,32
 913 446 913 446 834.5 416 c 128,-1,33
 756 386 756 386 708 386 c 1,34,35
 704 374 704 374 704 322 c 0,36,37
 704 224 704 224 737.5 165 c 128,-1,38
 771 106 771 106 842 106 c 0,39,40
 858 106 858 106 876.5 112 c 128,-1,41
 895 118 895 118 911.5 127 c 128,-1,42
 928 136 928 136 945.5 148.5 c 128,-1,43
 963 161 963 161 976.5 173 c 128,-1,44
 990 185 990 185 1003.5 198 c 128,-1,45
 1017 211 1017 211 1025.5 220 c 128,-1,46
 1034 229 1034 229 1041 236.5 c 2,47,-1
 1048 244 l 1,48,49
 1053 244 1053 244 1062.5 228.5 c 128,-1,50
 1072 213 1072 213 1072 204 c 1,51,52
 1060 184 1060 184 1030 151 c 128,-1,53
 1000 118 1000 118 958 80 c 128,-1,54
 916 42 916 42 864 15 c 128,-1,55
 812 -12 812 -12 768 -12 c 0,56,57
 692 -12 692 -12 640.5 28.5 c 128,-1,58
 589 69 589 69 566 144 c 1,59,60
 502 72 502 72 428 31 c 128,-1,61
 354 -10 354 -10 280 -10 c 0,62,63
 164 -10 164 -10 106 66 c 128,-1,64
 48 142 48 142 48 276 c 0,65,66
 48 379 48 379 87 486.5 c 128,-1,67
 126 594 126 594 188.5 678 c 128,-1,68
 251 762 251 762 334.5 816 c 128,-1,69
 418 870 418 870 502 870 c 0,70,71
 589 870 589 870 644.5 824 c 128,-1,72
 700 778 700 778 722 696 c 1,73,74
 795 777 795 777 881 823.5 c 128,-1,75
 967 870 967 870 1050 870 c 0,26,27
EndSplineSet
Substitution2: "'smcp' Lowercase to Small Capitals in Latin lookup 3-1" oe.sc
EndChar
StartChar: Tbar
Encoding: 358 358 406
Width: 1176
Flags: W
LayerCount: 2
Fore
SplineSet
306 696 m 1,0,-1
 946 696 l 2,1,2
 958 696 958 696 954 676 c 0,3,4
 950 652 950 652 930 616 c 1,5,-1
 290 616 l 2,6,7
 279 616 279 616 284 642 c 1,8,9
 289 675 289 675 306 696 c 1,0,-1
EndSplineSet
Refer: 51 84 N 1 0 0 1 2 0 2
EndChar
StartChar: longs
Encoding: 383 383 866
Width: 592
Flags: W
LayerCount: 2
Back
SplineSet
392 752 m 1,0,1
 322 338 322 338 274 86 c 1,2,3
 227 -153 227 -153 105.5 -309.5 c 128,-1,4
 -16 -466 -16 -466 -140 -466 c 0,5,6
 -221 -466 -221 -466 -248 -416 c 1,7,8
 -248 -406 -248 -406 -246 -384 c 1,9,10
 -234 -304 -234 -304 -188 -304 c 0,11,12
 -172 -304 -172 -304 -157.5 -311.5 c 128,-1,13
 -143 -319 -143 -319 -135 -326.5 c 128,-1,14
 -127 -334 -127 -334 -112 -350 c 0,15,16
 -82 -380 -82 -380 -54 -380 c 0,17,18
 2 -380 2 -380 39 -278.5 c 128,-1,19
 76 -177 76 -177 126 78 c 1,20,-1
 246 752 l 1,21,-1
 258 826 l 5,22,23
 305 1064 305 1064 426 1217 c 128,-1,24
 547 1370 547 1370 672 1370 c 0,25,26
 753 1370 753 1370 780 1320 c 1,27,28
 780 1317 780 1317 779.5 1311 c 128,-1,29
 779 1305 779 1305 779 1302 c 0,30,31
 776 1263 776 1263 761.5 1235.5 c 128,-1,32
 747 1208 747 1208 720 1208 c 0,33,34
 704 1208 704 1208 689.5 1215.5 c 128,-1,35
 675 1223 675 1223 667 1230.5 c 128,-1,36
 659 1238 659 1238 644 1254 c 0,37,38
 614 1284 614 1284 586 1284 c 0,39,40
 527 1284 527 1284 482.5 1148 c 128,-1,41
 438 1012 438 1012 392 752 c 1,0,1
EndSplineSet
Fore
SplineSet
780 1320 m 1,0,1
 774 1208 774 1208 720 1208 c 0,2,3
 691 1208 691 1208 675 1223 c 128,-1,4
 659 1238 659 1238 636.5 1261 c 128,-1,5
 614 1284 614 1284 586 1284 c 0,6,7
 527 1284 527 1284 482.5 1148 c 128,-1,8
 438 1012 438 1012 392 752 c 2,9,-1
 274 86 l 2,10,11
 232 -154 232 -154 106 -310 c 0,12,13
 -16 -466 -16 -466 -140 -466 c 0,14,15
 -221 -466 -221 -466 -248 -416 c 1,16,17
 -248 -406 -248 -406 -246 -384 c 1,18,19
 -234 -304 -234 -304 -188 -304 c 0,20,21
 -159 -304 -159 -304 -143 -319 c 128,-1,22
 -127 -334 -127 -334 -104.5 -357 c 128,-1,23
 -82 -380 -82 -380 -54 -380 c 0,24,25
 2 -380 2 -380 39 -278 c 0,26,27
 81 -177 81 -177 126 78 c 2,28,-1
 257 826 l 2,29,30
 300 1065 300 1065 426 1217 c 1,31,32
 548 1370 548 1370 672 1370 c 0,33,34
 753 1370 753 1370 780 1320 c 1,0,1
EndSplineSet
EndChar
StartChar: Ohorn
Encoding: 416 416 817
Width: 1420
Flags: W
LayerCount: 2
Fore
SplineSet
812 1270 m 0,0,1
 718 1270 718 1270 627.5 1213.5 c 128,-1,2
 537 1157 537 1157 466.5 1061 c 128,-1,3
 396 965 396 965 353 827 c 128,-1,4
 310 689 310 689 310 536 c 0,5,6
 310 462 310 462 319.5 395 c 128,-1,7
 329 328 329 328 353.5 261 c 128,-1,8
 378 194 378 194 415.5 145.5 c 128,-1,9
 453 97 453 97 515 66.5 c 128,-1,10
 577 36 577 36 656 36 c 0,11,12
 767 36 767 36 862.5 102.5 c 128,-1,13
 958 169 958 169 1021 276.5 c 128,-1,14
 1084 384 1084 384 1120 517.5 c 128,-1,15
 1156 651 1156 651 1156 786 c 0,16,17
 1156 850 1156 850 1147.5 911 c 128,-1,18
 1139 972 1139 972 1115.5 1039 c 128,-1,19
 1092 1106 1092 1106 1055 1155.5 c 128,-1,20
 1018 1205 1018 1205 955.5 1237.5 c 128,-1,21
 893 1270 893 1270 812 1270 c 0,0,1
1290 1184 m 0,22,23
 1323 1184 1323 1184 1348.5 1204 c 128,-1,24
 1374 1224 1374 1224 1374 1254 c 0,25,26
 1374 1262 1374 1262 1370.5 1270 c 128,-1,27
 1367 1278 1367 1278 1362 1286.5 c 128,-1,28
 1357 1295 1357 1295 1356 1296 c 0,29,30
 1342 1324 1342 1324 1342 1340 c 0,31,32
 1342 1374 1342 1374 1374.5 1395 c 128,-1,33
 1407 1416 1407 1416 1440 1416 c 0,34,35
 1464 1416 1464 1416 1484 1408 c 1,36,37
 1504 1374 1504 1374 1504 1340 c 0,38,39
 1504 1281 1504 1281 1463 1229 c 128,-1,40
 1422 1177 1422 1177 1367.5 1149.5 c 128,-1,41
 1313 1122 1313 1122 1266 1122 c 0,42,43
 1254 1122 1254 1122 1239 1125 c 1,44,45
 1344 975 1344 975 1344 764 c 0,46,47
 1344 593 1344 593 1287.5 444.5 c 128,-1,48
 1231 296 1231 296 1135 194.5 c 128,-1,49
 1039 93 1039 93 910 35.5 c 128,-1,50
 781 -22 781 -22 638 -22 c 0,51,52
 480 -22 480 -22 361.5 54.5 c 128,-1,53
 243 131 243 131 182.5 259 c 128,-1,54
 122 387 122 387 122 546 c 0,55,56
 122 714 122 714 181.5 862 c 128,-1,57
 241 1010 241 1010 339 1111.5 c 128,-1,58
 437 1213 437 1213 565.5 1271.5 c 128,-1,59
 694 1330 694 1330 830 1330 c 0,60,61
 973 1330 973 1330 1088 1264 c 0,62,63
 1095 1260 1095 1260 1114.5 1248.5 c 128,-1,64
 1134 1237 1134 1237 1141.5 1233.5 c 128,-1,65
 1149 1230 1149 1230 1165.5 1221 c 128,-1,66
 1182 1212 1182 1212 1191 1208 c 128,-1,67
 1200 1204 1200 1204 1214.5 1198.5 c 128,-1,68
 1229 1193 1229 1193 1239.5 1190.5 c 128,-1,69
 1250 1188 1250 1188 1263.5 1186 c 128,-1,70
 1277 1184 1277 1184 1290 1184 c 0,22,23
EndSplineSet
EndChar
StartChar: Uhorn
Encoding: 431 431 818
Width: 1322
Flags: W
LayerCount: 2
Fore
SplineSet
1282 1226 m 0,0,1
 1248 1189 1248 1189 1230 1092 c 1,2,-1
 1124 552 l 2,3,4
 1067 259 1067 259 928 125.5 c 128,-1,5
 789 -8 789 -8 565 -8 c 0,6,7
 351 -8 351 -8 249 136 c 0,8,9
 151 276 151 276 195 502 c 2,10,-1
 309 1086 l 2,11,12
 333 1204 333 1204 329 1234 c 0,13,14
 328 1248 328 1248 281.5 1257 c 128,-1,15
 235 1266 235 1266 207 1266 c 1,16,17
 202 1273 202 1273 206 1295 c 128,-1,18
 210 1317 210 1317 219 1324 c 1,19,20
 409 1314 409 1314 435 1314 c 0,21,22
 460 1314 460 1314 655 1324 c 1,23,24
 661 1316 661 1316 656 1295 c 128,-1,25
 651 1274 651 1274 643 1266 c 1,26,27
 615 1266 615 1266 565 1257 c 128,-1,28
 515 1248 515 1248 509 1234 c 0,29,30
 495 1206 495 1206 471 1086 c 2,31,-1
 375 592 l 2,32,33
 330 356 330 356 387 240 c 0,34,35
 452 108 452 108 627 108 c 0,36,37
 703 108 703 108 763 129 c 128,-1,38
 823 150 823 150 877 198.5 c 128,-1,39
 931 247 931 247 971.5 334.5 c 128,-1,40
 1012 422 1012 422 1038 548 c 1,41,-1
 1144 1090 l 2,42,43
 1156 1151 1156 1151 1158 1174 c 128,-1,44
 1160 1197 1160 1197 1152 1228 c 1,45,46
 1147 1242 1147 1242 1100 1255 c 128,-1,47
 1053 1268 1053 1268 1026 1268 c 1,48,49
 1022 1280 1022 1280 1025.5 1297.5 c 128,-1,50
 1029 1315 1029 1315 1034 1326 c 1,51,52
 1058 1325 1058 1325 1096.5 1322 c 128,-1,53
 1135 1319 1135 1319 1166 1317.5 c 128,-1,54
 1197 1316 1197 1316 1234 1316 c 0,55,56
 1304 1316 1304 1316 1359 1328 c 128,-1,57
 1414 1340 1414 1340 1414 1368 c 0,58,59
 1414 1376 1414 1376 1410.5 1384 c 128,-1,60
 1407 1392 1407 1392 1402 1400.5 c 128,-1,61
 1397 1409 1397 1409 1396 1410 c 0,62,63
 1382 1438 1382 1438 1382 1454 c 0,64,65
 1382 1488 1382 1488 1414.5 1509 c 128,-1,66
 1447 1530 1447 1530 1480 1530 c 0,67,68
 1504 1530 1504 1530 1524 1522 c 1,69,70
 1544 1488 1544 1488 1544 1454 c 0,71,72
 1544 1382 1544 1382 1481 1326 c 128,-1,73
 1418 1270 1418 1270 1344 1254 c 0,74,75
 1299 1244 1299 1244 1282 1226 c 0,0,1
EndSplineSet
EndChar
StartChar: uni0237
Encoding: 567 567 416
Width: 498
Flags: W
LayerCount: 2
Fore
SplineSet
234 646 m 1,0,1
 242 694 242 694 242 710 c 0,2,3
 242 760 242 760 222 760 c 0,4,5
 212 760 212 760 197.5 751.5 c 128,-1,6
 183 743 183 743 168.5 731 c 128,-1,7
 154 719 154 719 138.5 704 c 128,-1,8
 123 689 123 689 112 677 c 128,-1,9
 101 665 101 665 91.5 654.5 c 2,10,-1
 82 644 l 1,11,12
 77 644 77 644 69.5 658.5 c 128,-1,13
 62 673 62 673 62 682 c 1,14,15
 88 726 88 726 170.5 798 c 128,-1,16
 253 870 253 870 314 870 c 0,17,18
 346 870 346 870 369 840 c 128,-1,19
 392 810 392 810 392 766 c 0,20,21
 392 734 392 734 378 660 c 2,22,-1
 268 90 l 2,23,24
 253 15 253 15 218 -78.5 c 128,-1,25
 183 -172 183 -172 126 -248 c 0,26,27
 68 -324 68 -324 -12 -385 c 128,-1,28
 -92 -446 -92 -446 -152 -470 c 1,29,30
 -158 -465 -158 -465 -164 -452.5 c 128,-1,31
 -170 -440 -170 -440 -170 -430 c 1,32,33
 -69 -373 -69 -373 6 -247.5 c 128,-1,34
 81 -122 81 -122 114 44 c 2,35,-1
 234 646 l 1,0,1
EndSplineSet
EndChar
StartChar: uni02BE
Encoding: 702 702 842
Width: 390
VWidth: 0
Flags: W
LayerCount: 2
Fore
SplineSet
58 944 m 1,0,1
 127 944 127 944 184 1001 c 128,-1,2
 241 1058 241 1058 256 1136 c 0,3,4
 273 1221 273 1221 239.5 1274.5 c 128,-1,5
 206 1328 206 1328 126 1328 c 1,6,7
 115 1362 115 1362 144 1396 c 1,8,9
 254 1396 254 1396 316.5 1320 c 128,-1,10
 379 1244 379 1244 358 1138 c 128,-1,11
 337 1032 337 1032 243 954 c 128,-1,12
 149 876 149 876 40 876 c 1,13,14
 37 907 37 907 58 944 c 1,0,1
EndSplineSet
EndChar
StartChar: uni02BF
Encoding: 703 703 843
Width: 390
VWidth: 0
Flags: W
LayerCount: 2
Fore
SplineSet
264 944 m 1,0,1
 270 898 270 898 258 876 c 1,2,3
 149 876 149 876 84 954.5 c 128,-1,4
 19 1033 19 1033 40 1138 c 0,5,6
 61 1244 61 1244 152.5 1320 c 128,-1,7
 244 1396 244 1396 354 1396 c 1,8,9
 368 1359 368 1359 348 1328 c 1,10,11
 268 1328 268 1328 213.5 1274.5 c 128,-1,12
 159 1221 159 1221 142 1136 c 0,13,14
 127 1058 127 1058 161 1001 c 128,-1,15
 195 944 195 944 264 944 c 1,0,1
EndSplineSet
EndChar
StartChar: gravecomb
Encoding: 768 768 229
Width: 0
VWidth: 1934
GlyphClass: 4
Flags: W
LayerCount: 2
Fore
SplineSet
-384 980 m 0,0,1
 -411 980 -411 980 -560.5 1068 c 128,-1,2
 -710 1156 -710 1156 -710 1182 c 0,3,4
 -710 1213 -710 1213 -684 1227.5 c 128,-1,5
 -658 1242 -658 1242 -632 1242 c 0,6,7
 -587 1242 -587 1242 -558 1222 c 0,8,9
 -537 1207 -537 1207 -452.5 1109.5 c 128,-1,10
 -368 1012 -368 1012 -368 1000 c 0,11,12
 -368 995 -368 995 -374 987.5 c 128,-1,13
 -380 980 -380 980 -384 980 c 0,0,1
EndSplineSet
EndChar
StartChar: uni0302
Encoding: 770 770 231
Width: 0
VWidth: 1920
GlyphClass: 4
Flags: W
LayerCount: 2
Fore
SplineSet
-480 1250 m 0,0,1
 -470 1250 -470 1250 -462 1234 c 0,2,3
 -398 1114 -398 1114 -326 1002 c 1,4,5
 -327 993 -327 993 -335.5 986.5 c 128,-1,6
 -344 980 -344 980 -352 980 c 1,7,-1
 -508 1108 l 1,8,9
 -640 1030 -640 1030 -718 980 c 1,10,11
 -726 980 -726 980 -731.5 986.5 c 128,-1,12
 -737 993 -737 993 -736 1002 c 1,13,14
 -593 1139 -593 1139 -504 1234 c 0,15,16
 -488 1250 -488 1250 -480 1250 c 0,0,1
EndSplineSet
EndChar
StartChar: tildecomb
Encoding: 771 771 232
Width: 0
VWidth: 1880
GlyphClass: 4
Flags: W
LayerCount: 2
Fore
SplineSet
-594 1136 m 0,0,1
 -534 1136 -534 1136 -482 1110 c 0,2,3
 -475 1107 -475 1107 -447.5 1092 c 128,-1,4
 -420 1077 -420 1077 -399 1070.5 c 128,-1,5
 -378 1064 -378 1064 -352 1064 c 0,6,7
 -294 1064 -294 1064 -222 1136 c 1,8,9
 -208 1131 -208 1131 -210 1118 c 0,10,11
 -216 1076 -216 1076 -252 1044 c 1,12,13
 -321 980 -321 980 -408 980 c 0,14,15
 -458 980 -458 980 -518 1008 c 0,16,17
 -522 1010 -522 1010 -545.5 1022 c 128,-1,18
 -569 1034 -569 1034 -579 1038 c 128,-1,19
 -589 1042 -589 1042 -610.5 1047 c 128,-1,20
 -632 1052 -632 1052 -652 1052 c 0,21,22
 -710 1052 -710 1052 -782 980 c 1,23,24
 -794 984 -794 984 -792 1000 c 0,25,26
 -786 1042 -786 1042 -752 1072 c 1,27,28
 -683 1136 -683 1136 -594 1136 c 0,0,1
EndSplineSet
EndChar
StartChar: uni0304
Encoding: 772 772 261
Width: 0
VWidth: 1914
GlyphClass: 4
Flags: W
LayerCount: 2
Fore
SplineSet
-314 980 m 1,0,-1
 -734 980 l 1,1,2
 -740 986 -740 986 -740 998 c 128,-1,3
 -740 1010 -740 1010 -731.5 1034 c 128,-1,4
 -723 1058 -723 1058 -715 1058 c 2,5,-1
 -303 1058 l 2,6,7
 -294 1058 -294 1058 -294 1044 c 0,8,9
 -294 1002 -294 1002 -314 980 c 1,0,-1
EndSplineSet
EndChar
StartChar: uni0307
Encoding: 775 775 264
Width: 0
VWidth: 2038
GlyphClass: 4
Flags: W
LayerCount: 2
Fore
SplineSet
-596 1080 m 0,0,1
 -589 1122 -589 1122 -555 1151 c 128,-1,2
 -521 1180 -521 1180 -482 1180 c 128,-1,3
 -443 1180 -443 1180 -422.5 1151 c 128,-1,4
 -402 1122 -402 1122 -410 1080 c 0,5,6
 -417 1038 -417 1038 -450 1009 c 128,-1,7
 -483 980 -483 980 -522 980 c 128,-1,8
 -561 980 -561 980 -582.5 1009 c 128,-1,9
 -604 1038 -604 1038 -596 1080 c 0,0,1
EndSplineSet
EndChar
StartChar: uni0308
Encoding: 776 776 265
Width: 0
VWidth: 2086
GlyphClass: 4
Flags: W
LayerCount: 2
Fore
SplineSet
-316 1164 m 27,0,1
 -282 1164 -282 1164 -262 1136 c 128,-1,2
 -242 1108 -242 1108 -250 1070 c 0,3,4
 -257 1033 -257 1033 -288 1006.5 c 128,-1,5
 -319 980 -319 980 -354 980 c 128,-1,6
 -389 980 -389 980 -410 1007.5 c 128,-1,7
 -431 1035 -431 1035 -424 1072 c 128,-1,8
 -417 1109 -417 1109 -384 1136.5 c 128,-1,9
 -351 1164 -351 1164 -316 1164 c 27,0,1
-658 1164 m 155,-1,11
 -623 1164 -623 1164 -603 1135.5 c 128,-1,12
 -583 1107 -583 1107 -590 1070 c 128,-1,13
 -597 1033 -597 1033 -628 1006.5 c 128,-1,14
 -659 980 -659 980 -694 980 c 128,-1,15
 -729 980 -729 980 -750 1007.5 c 128,-1,16
 -771 1035 -771 1035 -764 1072 c 128,-1,17
 -757 1109 -757 1109 -725 1136.5 c 128,-1,10
 -693 1164 -693 1164 -658 1164 c 155,-1,11
EndSplineSet
EndChar
StartChar: hookabovecomb
Encoding: 777 777 266
Width: 0
GlyphClass: 4
Flags: W
LayerCount: 2
Fore
SplineSet
-556 1214 m 0,0,1
 -582 1214 -582 1214 -605.5 1202.5 c 128,-1,2
 -629 1191 -629 1191 -636 1180 c 1,3,4
 -648 1184 -648 1184 -648 1202 c 0,5,6
 -648 1227 -648 1227 -604 1255.5 c 128,-1,7
 -560 1284 -560 1284 -518 1284 c 0,8,9
 -462 1284 -462 1284 -427 1255 c 128,-1,10
 -392 1226 -392 1226 -392 1180 c 0,11,12
 -392 1164 -392 1164 -396.5 1150 c 128,-1,13
 -401 1136 -401 1136 -412 1124 c 128,-1,14
 -423 1112 -423 1112 -431.5 1103.5 c 128,-1,15
 -440 1095 -440 1095 -457.5 1086 c 128,-1,16
 -475 1077 -475 1077 -482 1073.5 c 128,-1,17
 -489 1070 -489 1070 -508 1062 c 128,-1,18
 -527 1054 -527 1054 -528 1054 c 0,19,20
 -556 1042 -556 1042 -556 1020 c 0,21,22
 -556 1006 -556 1006 -545 990 c 1,23,24
 -561 974 -561 974 -584 974 c 1,25,26
 -596 979 -596 979 -608 993.5 c 128,-1,27
 -620 1008 -620 1008 -620 1030 c 0,28,29
 -620 1038 -620 1038 -616.5 1045.5 c 128,-1,30
 -613 1053 -613 1053 -609.5 1057.5 c 128,-1,31
 -606 1062 -606 1062 -597 1067.5 c 128,-1,32
 -588 1073 -588 1073 -583.5 1075.5 c 128,-1,33
 -579 1078 -579 1078 -567 1083.5 c 128,-1,34
 -555 1089 -555 1089 -552 1090 c 0,35,36
 -515 1106 -515 1106 -498.5 1120 c 128,-1,37
 -482 1134 -482 1134 -482 1158 c 0,38,39
 -482 1183 -482 1183 -505 1198.5 c 128,-1,40
 -528 1214 -528 1214 -556 1214 c 0,0,1
EndSplineSet
EndChar
StartChar: uni0312
Encoding: 786 786 270
Width: 0
GlyphClass: 4
Flags: W
LayerCount: 2
Fore
SplineSet
420 1026 m 0,0,1
 420 980 420 980 365 948 c 128,-1,2
 310 916 310 916 248 916 c 1,3,4
 222 936 222 936 222 998 c 0,5,6
 222 1073 222 1073 286 1156.5 c 128,-1,7
 350 1240 350 1240 410 1272 c 1,8,9
 414 1276 414 1276 426 1276 c 0,10,11
 462 1276 462 1276 462 1262 c 0,12,13
 462 1259 462 1259 440 1245 c 128,-1,14
 418 1231 418 1231 392.5 1203.5 c 128,-1,15
 367 1176 367 1176 360 1140 c 0,16,17
 356 1120 356 1120 364.5 1104.5 c 128,-1,18
 373 1089 373 1089 385.5 1080 c 128,-1,19
 398 1071 398 1071 409 1057 c 128,-1,20
 420 1043 420 1043 420 1026 c 0,0,1
EndSplineSet
EndChar
StartChar: dotbelowcomb
Encoding: 803 803 272
Width: 0
GlyphClass: 4
Flags: W
LayerCount: 2
Fore
SplineSet
-610 -164 m 0,0,1
 -603 -122 -603 -122 -570 -93 c 128,-1,2
 -537 -64 -537 -64 -498 -64 c 128,-1,3
 -459 -64 -459 -64 -437.5 -93 c 128,-1,4
 -416 -122 -416 -122 -424 -164 c 0,5,6
 -431 -206 -431 -206 -465 -235 c 128,-1,7
 -499 -264 -499 -264 -538 -264 c 128,-1,8
 -577 -264 -577 -264 -597.5 -235 c 128,-1,9
 -618 -206 -618 -206 -610 -164 c 0,0,1
EndSplineSet
EndChar
StartChar: uni0327
Encoding: 807 807 274
Width: 0
GlyphClass: 4
Flags: W
LayerCount: 2
Fore
SplineSet
-493 -54 m 1,0,-1
 -447 -54 l 2,1,2
 -412 -54 -412 -54 -393.5 -83 c 128,-1,3
 -375 -112 -375 -112 -383 -152 c 0,4,5
 -396 -221 -396 -221 -454.5 -262.5 c 128,-1,6
 -513 -304 -513 -304 -587 -304 c 0,7,8
 -624 -304 -624 -304 -647 -286 c 1,9,-1
 -647 -258 l 1,10,11
 -646 -248 -646 -248 -636 -239 c 128,-1,12
 -626 -230 -626 -230 -617 -230 c 0,13,14
 -607 -230 -607 -230 -588 -243 c 128,-1,15
 -569 -256 -569 -256 -553 -256 c 0,16,17
 -516 -256 -516 -256 -490 -236.5 c 128,-1,18
 -464 -217 -464 -217 -459 -190 c 0,19,20
 -452 -157 -452 -157 -467 -139.5 c 128,-1,21
 -482 -122 -482 -122 -503 -122 c 0,22,23
 -520 -122 -520 -122 -555 -136 c 1,24,25
 -559 -136 -559 -136 -566 -125.5 c 128,-1,26
 -573 -115 -573 -115 -569 -110 c 0,27,28
 -558 -96 -558 -96 -528.5 -59.5 c 128,-1,29
 -499 -23 -499 -23 -489 -8 c 1,30,-1
 -451 -8 l 1,31,-1
 -493 -54 l 1,0,-1
EndSplineSet
EndChar
StartChar: uni0328
Encoding: 808 808 275
Width: 0
GlyphClass: 4
Flags: W
LayerCount: 2
Fore
SplineSet
-145 84 m 3,0,1
 -94.6430318813 84 -94.6430318813 84 -89.2890082465 66.4987340856 c 0,2,3
 -87.0511368272 59.1835660057 -87.0511368272 59.1835660057 -97 50 c 0,4,5
 -109 40 -109 40 -160.5 6 c 128,-1,6
 -212 -28 -212 -28 -256.5 -60 c 128,-1,7
 -301 -92 -301 -92 -343 -140 c 128,-1,8
 -385 -188 -385 -188 -393 -232 c 1,9,10
 -394 -249 -394 -249 -394 -268 c 128,-1,11
 -394 -287 -394 -287 -378 -302.5 c 128,-1,12
 -362 -318 -362 -318 -333 -318 c 0,13,14
 -292 -318 -292 -318 -253.5 -299 c 128,-1,15
 -215 -280 -215 -280 -192.5 -261 c 128,-1,16
 -170 -242 -170 -242 -167 -242 c 0,17,18
 -166 -242 -166 -242 -164.5 -245 c 128,-1,19
 -163 -248 -163 -248 -162 -254 c 128,-1,20
 -161 -260 -161 -260 -163 -268 c 0,21,22
 -168 -290 -168 -290 -179 -302 c 0,23,24
 -299 -436 -299 -436 -401 -436 c 0,25,26
 -438 -436 -438 -436 -462.5 -419.5 c 128,-1,27
 -487 -403 -487 -403 -495 -379 c 128,-1,28
 -503 -355 -503 -355 -506 -328.5 c 128,-1,29
 -509 -302 -509 -302 -503 -282 c 1,30,31
 -494 -236 -494 -236 -444 -170 c 128,-1,32
 -394 -104 -394 -104 -334.5 -49 c 128,-1,33
 -275 6 -275 6 -220 45 c 128,-1,34
 -165 84 -165 84 -145 84 c 3,0,1
EndSplineSet
EndChar
StartChar: uni2010
Encoding: 8208 8208 193
Width: 740
VWidth: 0
Flags: W
LayerCount: 2
Fore
SplineSet
146 522 m 2,0,-1
 600 546 l 2,1,2
 612 546 612 546 612 522 c 0,3,4
 612 500 612 500 596 460.5 c 128,-1,5
 580 421 580 421 566 420 c 2,6,-1
 114 398 l 2,7,8
 104 398 104 398 104 428 c 0,9,10
 104 449 104 449 117.5 485 c 128,-1,11
 131 521 131 521 146 522 c 2,0,-1
EndSplineSet
EndChar
StartChar: figuredash
Encoding: 8210 8210 195
Width: 1032
Flags: W
LayerCount: 2
Fore
SplineSet
888 524 m 2,0,1
 900 524 900 524 900 498 c 0,2,3
 900 475 900 475 886.5 442.5 c 128,-1,4
 873 410 873 410 856 400 c 1,5,-1
 116 400 l 2,6,7
 104 400 104 400 104 426 c 0,8,9
 104 449 104 449 117.5 481.5 c 128,-1,10
 131 514 131 514 148 524 c 1,11,-1
 888 524 l 2,0,1
EndSplineSet
EndChar
StartChar: endash
Encoding: 8211 8211 196
Width: 1128
Flags: W
LayerCount: 2
Fore
SplineSet
982 524 m 2,0,1
 994 524 994 524 994 498 c 0,2,3
 994 475 994 475 980.5 442.5 c 128,-1,4
 967 410 967 410 950 400 c 1,5,-1
 118 400 l 2,6,7
 106 400 106 400 106 426 c 0,8,9
 106 449 106 449 119.5 481.5 c 128,-1,10
 133 514 133 514 150 524 c 1,11,-1
 982 524 l 2,0,1
EndSplineSet
EndChar
StartChar: emdash
Encoding: 8212 8212 197
Width: 1600
Flags: W
LayerCount: 2
Fore
SplineSet
1454 524 m 2,0,1
 1466 524 1466 524 1466 498 c 0,2,3
 1466 475 1466 475 1452.5 442.5 c 128,-1,4
 1439 410 1439 410 1422 400 c 1,5,-1
 118 400 l 2,6,7
 106 400 106 400 106 426 c 0,8,9
 106 449 106 449 119.5 481.5 c 128,-1,10
 133 514 133 514 150 524 c 1,11,-1
 1454 524 l 2,0,1
EndSplineSet
EndChar
StartChar: quoteleft
Encoding: 8216 8216 199
Width: 428
Flags: W
LayerCount: 2
Fore
SplineSet
203 1094 m 0,0,1
 247 1306 247 1306 484 1441 c 0,2,3
 513 1457 513 1457 520 1456 c 0,4,5
 545 1456 545 1456 553 1413 c 1,6,7
 500 1382 500 1382 460 1346 c 0,8,9
 369 1263 369 1263 354 1195 c 0,10,11
 348 1164 348 1164 384 1109.5 c 128,-1,12
 420 1055 420 1055 414 1022 c 0,13,14
 406 981 406 981 355 950 c 0,15,16
 277 903 277 903 205 926 c 1,17,18
 183 986 183 986 203 1094 c 0,0,1
EndSplineSet
EndChar
StartChar: dagger
Encoding: 8224 8224 190
Width: 716
Flags: W
LayerCount: 2
Fore
SplineSet
358 972 m 8,0,1
 379 972 379 972 391.5 980 c 128,-1,2
 404 988 404 988 424 1010 c 1,3,4
 431 1048 431 1048 435 1093.5 c 128,-1,5
 439 1139 439 1139 436 1185.5 c 128,-1,6
 433 1232 433 1232 420 1250 c 1,7,8
 426 1282 426 1282 447.5 1303 c 128,-1,9
 469 1324 469 1324 500 1324 c 0,10,11
 532 1324 532 1324 555 1302 c 128,-1,12
 578 1280 578 1280 572 1250 c 1,13,14
 543 1224 543 1224 515 1147 c 128,-1,15
 487 1070 487 1070 476 1010 c 1,16,17
 496 972 496 972 528 972 c 0,18,19
 619 972 619 972 690 1036 c 1,20,21
 718 1036 718 1036 731 1015 c 128,-1,22
 744 994 744 994 744 962 c 128,-1,23
 744 930 744 930 717 902 c 128,-1,24
 690 874 690 874 660 874 c 1,25,26
 619 930 619 930 520 930 c 0,27,28
 496 930 496 930 475.5 911.5 c 128,-1,29
 455 893 455 893 452 874 c 1,30,31
 462 815 462 815 480 730 c 1,32,33
 414 537 414 537 378 412.5 c 128,-1,34
 342 288 342 288 266 8 c 1,35,36
 255 -14 255 -14 250 -16 c 1,37,38
 247 -15 247 -15 246 -11 c 128,-1,39
 245 -7 245 -7 245 -1 c 128,-1,40
 245 5 245 5 244 8 c 1,41,42
 269 213 269 213 277.5 293 c 128,-1,43
 286 373 286 373 295 484 c 128,-1,44
 304 595 304 595 310 730 c 1,45,46
 328 759 328 759 359 812.5 c 128,-1,47
 390 866 390 866 394 874 c 1,48,49
 397 893 397 893 383.5 911.5 c 128,-1,50
 370 930 370 930 350 930 c 0,51,52
 250 930 250 930 188 874 c 1,53,54
 132 874 132 874 132 942 c 0,55,56
 132 974 132 974 161 1005 c 128,-1,57
 190 1036 190 1036 220 1036 c 1,58,59
 267 972 267 972 358 972 c 8,0,1
EndSplineSet
EndChar
StartChar: daggerdbl
Encoding: 8225 8225 191
Width: 754
Flags: W
LayerCount: 2
Fore
SplineSet
470 578 m 1,0,1
 452 548 452 548 424 499 c 128,-1,2
 396 450 396 450 386 434 c 1,3,4
 383 415 383 415 396 396.5 c 128,-1,5
 409 378 409 378 430 378 c 0,6,7
 530 378 530 378 592 434 c 1,8,9
 622 434 622 434 638 411 c 128,-1,10
 654 388 654 388 648 356 c 128,-1,11
 642 324 642 324 615.5 298 c 128,-1,12
 589 272 589 272 560 272 c 1,13,14
 513 336 513 336 422 336 c 0,15,16
 391 336 391 336 356 298 c 1,17,18
 349 259 349 259 344.5 214.5 c 128,-1,19
 340 170 340 170 342.5 123 c 128,-1,20
 345 76 345 76 358 58 c 1,21,22
 352 27 352 27 326 5.5 c 128,-1,23
 300 -16 300 -16 270 -16 c 0,24,25
 238 -16 238 -16 219 5.5 c 128,-1,26
 200 27 200 27 206 58 c 1,27,28
 235 84 235 84 264 161.5 c 128,-1,29
 293 239 293 239 304 298 c 1,30,31
 284 336 284 336 252 336 c 0,32,33
 161 336 161 336 90 272 c 1,34,35
 61 272 61 272 45.5 297.5 c 128,-1,36
 30 323 30 323 36 356 c 0,37,38
 42 388 42 388 67 411 c 128,-1,39
 92 434 92 434 122 434 c 1,40,41
 163 378 163 378 260 378 c 0,42,43
 282 378 282 378 302.5 396.5 c 128,-1,44
 323 415 323 415 326 434 c 1,45,46
 320 468 320 468 298 578 c 1,47,48
 318 601 318 601 368 654 c 1,49,50
 356 674 356 674 328 730 c 1,51,52
 346 759 346 759 377 812.5 c 128,-1,53
 408 866 408 866 412 874 c 1,54,55
 415 893 415 893 402 911.5 c 128,-1,56
 389 930 389 930 368 930 c 0,57,58
 268 930 268 930 206 874 c 1,59,60
 176 874 176 874 161 897 c 128,-1,61
 146 920 146 920 152 952 c 0,62,63
 158 985 158 985 183.5 1010.5 c 128,-1,64
 209 1036 209 1036 238 1036 c 1,65,66
 285 972 285 972 376 972 c 0,67,68
 407 972 407 972 442 1010 c 1,69,70
 449 1048 449 1048 453 1093.5 c 128,-1,71
 457 1139 457 1139 454 1185.5 c 128,-1,72
 451 1232 451 1232 438 1250 c 1,73,74
 444 1281 444 1281 471 1302.5 c 128,-1,75
 498 1324 498 1324 530 1324 c 0,76,77
 560 1324 560 1324 578 1302.5 c 128,-1,78
 596 1281 596 1281 590 1250 c 1,79,80
 561 1224 561 1224 533 1147 c 128,-1,81
 505 1070 505 1070 494 1010 c 1,82,83
 514 972 514 972 546 972 c 0,84,85
 637 972 637 972 708 1036 c 1,86,87
 737 1036 737 1036 753.5 1010 c 128,-1,88
 770 984 770 984 764 952 c 128,-1,89
 758 920 758 920 733 897 c 128,-1,90
 708 874 708 874 678 874 c 1,91,92
 637 930 637 930 538 930 c 0,93,94
 516 930 516 930 494.5 911.5 c 128,-1,95
 473 893 473 893 470 874 c 1,96,97
 480 815 480 815 498 730 c 1,98,99
 463 692 463 692 428 654 c 1,100,101
 436 640 436 640 448.5 617.5 c 128,-1,102
 461 595 461 595 470 578 c 1,0,1
EndSplineSet
EndChar
StartChar: bullet
Encoding: 8226 8226 192
Width: 668
Flags: W
LayerCount: 2
Fore
SplineSet
132 526 m 0,0,1
 148 614 148 614 219.5 678 c 128,-1,2
 291 742 291 742 374 742 c 0,3,4
 456 742 456 742 502.5 678.5 c 128,-1,5
 549 615 549 615 532 526 c 0,6,7
 516 438 516 438 444.5 374 c 128,-1,8
 373 310 373 310 290 310 c 0,9,10
 208 310 208 310 161.5 373.5 c 128,-1,11
 115 437 115 437 132 526 c 0,0,1
EndSplineSet
EndChar
StartChar: onedotenleader
Encoding: 8228 8228 205
Width: 414
Flags: W
LayerCount: 2
Fore
SplineSet
18 64 m 0,0,1
 18 119 18 119 57 161.5 c 128,-1,2
 96 204 96 204 146 204 c 0,3,4
 185 204 185 204 209.5 178.5 c 128,-1,5
 234 153 234 153 234 114 c 0,6,7
 234 59 234 59 193 15.5 c 128,-1,8
 152 -28 152 -28 102 -28 c 0,9,10
 64 -28 64 -28 41 -2 c 128,-1,11
 18 24 18 24 18 64 c 0,0,1
EndSplineSet
EndChar
StartChar: perthousand
Encoding: 8240 8240 207
Width: 1884
VWidth: 0
Flags: W
LayerCount: 2
Fore
SplineSet
1550 600 m 3,0,1
 1460 600 1460 600 1396 494 c 128,-1,2
 1332 388 1332 388 1332 264 c 0,3,4
 1332 223 1332 223 1339 185.5 c 128,-1,5
 1346 148 1346 148 1360.5 114.5 c 128,-1,6
 1375 81 1375 81 1401.5 60.5 c 128,-1,7
 1428 40 1428 40 1462 40 c 0,8,9
 1522 40 1522 40 1570 95 c 128,-1,10
 1618 150 1618 150 1642 229.5 c 128,-1,11
 1666 309 1666 309 1666 390 c 0,12,13
 1666 428 1666 428 1660.5 463 c 128,-1,14
 1655 498 1655 498 1642.5 530 c 128,-1,15
 1630 562 1630 562 1606 581 c 128,-1,16
 1582 600 1582 600 1550 600 c 3,0,1
1570 654 m 3,17,18
 1679 654 1679 654 1737.5 577 c 128,-1,19
 1796 500 1796 500 1796 390 c 0,20,21
 1796 294 1796 294 1748 200.5 c 128,-1,22
 1700 107 1700 107 1616 45.5 c 128,-1,23
 1532 -16 1532 -16 1438 -16 c 0,24,25
 1329 -16 1329 -16 1267.5 60.5 c 128,-1,26
 1206 137 1206 137 1206 246 c 0,27,28
 1206 344 1206 344 1253.5 438 c 128,-1,29
 1301 532 1301 532 1386.5 593 c 128,-1,30
 1472 654 1472 654 1570 654 c 3,17,18
502 1292 m 3,31,32
 412 1292 412 1292 348 1186 c 128,-1,33
 284 1080 284 1080 284 956 c 0,34,35
 284 915 284 915 291 877.5 c 128,-1,36
 298 840 298 840 312.5 806.5 c 128,-1,37
 327 773 327 773 353.5 752.5 c 128,-1,38
 380 732 380 732 414 732 c 0,39,40
 474 732 474 732 522 787 c 128,-1,41
 570 842 570 842 594 921.5 c 128,-1,42
 618 1001 618 1001 618 1082 c 0,43,44
 618 1120 618 1120 612.5 1155 c 128,-1,45
 607 1190 607 1190 594.5 1222 c 128,-1,46
 582 1254 582 1254 558 1273 c 128,-1,47
 534 1292 534 1292 502 1292 c 3,31,32
522 1346 m 3,48,49
 631 1346 631 1346 689.5 1269 c 128,-1,50
 748 1192 748 1192 748 1082 c 0,51,52
 748 986 748 986 700 892.5 c 128,-1,53
 652 799 652 799 568 737.5 c 128,-1,54
 484 676 484 676 390 676 c 0,55,56
 281 676 281 676 219.5 752.5 c 128,-1,57
 158 829 158 829 158 938 c 0,58,59
 158 1036 158 1036 205.5 1130 c 128,-1,60
 253 1224 253 1224 338.5 1285 c 128,-1,61
 424 1346 424 1346 522 1346 c 3,48,49
1304 1300 m 9,62,-1
 112 0 l 2,63,64
 105 -7 105 -7 84 -15.5 c 128,-1,65
 63 -24 63 -24 44 -24 c 0,66,67
 20 -24 20 -24 14 -2 c 1,68,-1
 1206 1304 l 1,69,70
 1228 1326 1228 1326 1250 1326 c 0,71,72
 1294 1326 1294 1326 1304 1300 c 9,62,-1
926 600 m 3,73,74
 836 600 836 600 772 494 c 128,-1,75
 708 388 708 388 708 264 c 0,76,77
 708 223 708 223 715 185.5 c 128,-1,78
 722 148 722 148 736.5 114.5 c 128,-1,79
 751 81 751 81 777.5 60.5 c 128,-1,80
 804 40 804 40 838 40 c 0,81,82
 898 40 898 40 946 95 c 128,-1,83
 994 150 994 150 1018 229.5 c 128,-1,84
 1042 309 1042 309 1042 390 c 0,85,86
 1042 428 1042 428 1036.5 463 c 128,-1,87
 1031 498 1031 498 1018.5 530 c 128,-1,88
 1006 562 1006 562 982 581 c 128,-1,89
 958 600 958 600 926 600 c 3,73,74
946 654 m 3,90,91
 1055 654 1055 654 1113.5 577 c 128,-1,92
 1172 500 1172 500 1172 390 c 0,93,94
 1172 294 1172 294 1124 200.5 c 128,-1,95
 1076 107 1076 107 992 45.5 c 128,-1,96
 908 -16 908 -16 814 -16 c 0,97,98
 705 -16 705 -16 643.5 60.5 c 128,-1,99
 582 137 582 137 582 246 c 0,100,101
 582 344 582 344 629.5 438 c 128,-1,102
 677 532 677 532 762.5 593 c 128,-1,103
 848 654 848 654 946 654 c 3,90,91
EndSplineSet
EndChar
StartChar: minute
Encoding: 8242 8242 208
Width: 326
Flags: W
LayerCount: 2
Fore
SplineSet
382 1398 m 0,0,1
 422 1398 422 1398 422 1364 c 0,2,3
 422 1286 422 1286 234 1004 c 0,4,5
 223 988 223 988 210 988 c 0,6,7
 201 988 201 988 196 995 c 128,-1,8
 191 1002 191 1002 192 1012 c 0,9,10
 192 1013 192 1013 197.5 1036.5 c 128,-1,11
 203 1060 203 1060 212 1096.5 c 128,-1,12
 221 1133 221 1133 231.5 1174 c 128,-1,13
 242 1215 242 1215 254 1258.5 c 128,-1,14
 266 1302 266 1302 276 1332 c 0,15,16
 282 1351 282 1351 319 1374.5 c 128,-1,17
 356 1398 356 1398 382 1398 c 0,0,1
EndSplineSet
EndChar
StartChar: second
Encoding: 8243 8243 209
Width: 566
Flags: W
LayerCount: 2
Fore
SplineSet
624 1398 m 0,0,1
 662 1398 662 1398 662 1364 c 0,2,3
 662 1283 662 1283 476 1004 c 0,4,5
 465 988 465 988 452 988 c 0,6,7
 443 988 443 988 437 995 c 128,-1,8
 431 1002 431 1002 432 1012 c 0,9,10
 432 1013 432 1013 438 1036.5 c 128,-1,11
 444 1060 444 1060 453.5 1096.5 c 128,-1,12
 463 1133 463 1133 474 1174 c 128,-1,13
 485 1215 485 1215 497.5 1258.5 c 128,-1,14
 510 1302 510 1302 520 1332 c 0,15,16
 526 1351 526 1351 562 1374.5 c 128,-1,17
 598 1398 598 1398 624 1398 c 0,0,1
382 1398 m 0,18,19
 422 1398 422 1398 422 1364 c 0,20,21
 422 1286 422 1286 234 1004 c 0,22,23
 223 988 223 988 210 988 c 0,24,25
 201 988 201 988 196 995 c 128,-1,26
 191 1002 191 1002 192 1012 c 0,27,28
 192 1013 192 1013 197.5 1036.5 c 128,-1,29
 203 1060 203 1060 212 1096.5 c 128,-1,30
 221 1133 221 1133 231.5 1174 c 128,-1,31
 242 1215 242 1215 254 1258.5 c 128,-1,32
 266 1302 266 1302 276 1332 c 0,33,34
 282 1351 282 1351 319 1374.5 c 128,-1,35
 356 1398 356 1398 382 1398 c 0,18,19
EndSplineSet
EndChar
StartChar: uni2038
Encoding: 8248 8248 210
Width: 750
Flags: W
LayerCount: 2
Fore
SplineSet
560 -72 m 0,0,1
 542 -72 542 -72 487 -17 c 128,-1,2
 432 38 432 38 392 94 c 1,3,4
 338 40 338 40 259.5 -16 c 128,-1,5
 181 -72 181 -72 162 -72 c 0,6,7
 150 -72 150 -72 150 -46 c 0,8,9
 150 -35 150 -35 184.5 -9 c 128,-1,10
 219 17 219 17 280.5 72.5 c 128,-1,11
 342 128 342 128 390 200 c 1,12,13
 400 220 400 220 412 220 c 0,14,15
 428 220 428 220 432.5 210.5 c 128,-1,16
 437 201 437 201 450.5 163.5 c 128,-1,17
 464 126 464 126 492 82 c 0,18,19
 502 65 502 65 526 36.5 c 128,-1,20
 550 8 550 8 568.5 -13 c 128,-1,21
 587 -34 587 -34 588 -36 c 1,22,23
 586 -45 586 -45 577 -58.5 c 128,-1,24
 568 -72 568 -72 560 -72 c 0,0,1
EndSplineSet
EndChar
StartChar: guilsinglleft
Encoding: 8249 8249 211
Width: 608
VWidth: 0
Flags: W
LayerCount: 2
Fore
SplineSet
440 182 m 1,0,1
 428 161 428 161 398 146 c 1,2,3
 352 206 352 206 257 297.5 c 128,-1,4
 162 389 162 389 74 456 c 1,5,6
 54 469 54 469 54 484 c 0,7,8
 54 515 54 515 84 532 c 0,9,10
 163 577 163 577 233.5 623.5 c 128,-1,11
 304 670 304 670 333 691 c 128,-1,12
 362 712 362 712 439 773 c 128,-1,13
 516 834 516 834 532 846 c 1,14,15
 563 838 563 838 568 816 c 1,16,17
 564 805 564 805 480 725.5 c 128,-1,18
 396 646 396 646 314 572 c 2,19,-1
 232 498 l 1,20,21
 440 198 440 198 440 182 c 1,0,1
EndSplineSet
EndChar
StartChar: guilsinglright
Encoding: 8250 8250 212
Width: 610
VWidth: 0
Flags: W
LayerCount: 2
Fore
SplineSet
154 810 m 1,0,1
 166 831 166 831 196 846 c 1,2,3
 242 786 242 786 337 694.5 c 128,-1,4
 432 603 432 603 520 536 c 1,5,6
 540 523 540 523 540 508 c 0,7,8
 540 477 540 477 510 460 c 0,9,10
 431 415 431 415 360.5 368.5 c 128,-1,11
 290 322 290 322 261 301 c 128,-1,12
 232 280 232 280 155 219 c 128,-1,13
 78 158 78 158 62 146 c 1,14,15
 31 154 31 154 26 176 c 1,16,17
 30 187 30 187 114 266.5 c 128,-1,18
 198 346 198 346 280 420 c 2,19,-1
 362 494 l 1,20,21
 154 794 154 794 154 810 c 1,0,1
EndSplineSet
EndChar
StartChar: Euro
Encoding: 8364 8364 214
Width: 1236
Flags: W
LayerCount: 2
Fore
SplineSet
845 1199 m 0,0,1
 746 1199 746 1199 655 1152.5 c 128,-1,2
 564 1106 564 1106 494.5 1023 c 128,-1,3
 425 940 425 940 383.5 813 c 128,-1,4
 342 686 342 686 342 536 c 0,5,6
 342 448 342 448 365.5 364.5 c 128,-1,7
 389 281 389 281 432.5 210 c 128,-1,8
 476 139 476 139 549 95.5 c 128,-1,9
 622 52 622 52 713 52 c 0,10,11
 839 52 839 52 948 149 c 0,12,13
 1029 221 1029 221 1080 328 c 1,14,15
 1090 328 1090 328 1102.5 324 c 128,-1,16
 1115 320 1115 320 1122 316.5 c 2,17,-1
 1129 313 l 1,18,19
 1123 282 1123 282 1072 175 c 128,-1,20
 1021 68 1021 68 1002 52 c 1,21,22
 932 14 932 14 855.5 -1 c 128,-1,23
 779 -16 779 -16 666 -16 c 0,24,25
 532 -16 532 -16 415.5 54.5 c 128,-1,26
 299 125 299 125 230 245 c 128,-1,27
 161 365 161 365 161 503 c 0,28,29
 161 642 161 642 203.5 766.5 c 128,-1,30
 246 891 246 891 318.5 981.5 c 128,-1,31
 391 1072 391 1072 484.5 1138 c 128,-1,32
 578 1204 578 1204 683.5 1236 c 128,-1,33
 789 1268 789 1268 894 1266 c 0,34,35
 1007 1264 1007 1264 1187 1216 c 1,36,37
 1180 1089 1180 1089 1169 939 c 0,38,39
 1168 924 1168 924 1150 924 c 0,40,41
 1117 924 1117 924 1108 939 c 1,42,43
 1115 1050 1115 1050 1035 1124.5 c 128,-1,44
 955 1199 955 1199 845 1199 c 0,0,1
94 680 m 2,45,46
 86 680 86 680 86 696 c 0,47,48
 86 708 86 708 94 729 c 128,-1,49
 102 750 102 750 112 758 c 1,50,-1
 788 758 l 2,51,52
 794 758 794 758 794 742 c 0,53,54
 794 704 794 704 770 680 c 1,55,-1
 94 680 l 2,45,46
64 484 m 2,56,57
 56 484 56 484 56 500 c 0,58,59
 56 512 56 512 64 533 c 128,-1,60
 72 554 72 554 82 562 c 1,61,-1
 758 562 l 2,62,63
 764 562 764 562 764 546 c 0,64,65
 764 508 764 508 740 484 c 1,66,-1
 64 484 l 2,56,57
EndSplineSet
EndChar
StartChar: arrowup
Encoding: 8593 8593 216
Width: 630
Flags: W
LayerCount: 2
Fore
SplineSet
304 1112 m 1,0,-1
 172 998 l 1,1,2
 43.7165878096 883.119332367 43.7165878096 883.119332367 38.458468396 879.720043083 c 0,3,4
 32.704197688 876 32.704197688 876 26 876 c 0,5,6
 15 876 15 876 10 884.5 c 128,-1,7
 5 893 5 893 3 907 c 128,-1,8
 1 921 1 921 0 922 c 1,9,10
 5 925 5 925 42.5 961.5 c 128,-1,11
 80 998 80 998 171.5 1100.5 c 128,-1,12
 263 1203 263 1203 368 1334 c 1,13,14
 376 1348 376 1348 396 1348 c 0,15,16
 430 1348 430 1348 444 1332 c 1,17,18
 487 1215 487 1215 539.5 1111.5 c 128,-1,19
 592 1008 592 1008 619 967 c 128,-1,20
 646 926 646 926 652 920 c 1,21,22
 632 874 632 874 608 874 c 0,23,24
 603 874 603 874 600 874.5 c 128,-1,25
 597 875 597 875 594 876.5 c 128,-1,26
 591 878 591 878 587.5 882.5 c 128,-1,27
 584 887 584 887 580 893 c 128,-1,28
 576 899 576 899 568 910 c 128,-1,29
 560 921 560 921 551.5 933.5 c 128,-1,30
 543 946 543 946 528 967 c 128,-1,31
 513 988 513 988 496 1010 c 2,32,-1
 420 1110 l 1,33,-1
 198 -42 l 1,34,35
 193 -56 193 -56 172 -56 c 0,36,37
 148 -56 148 -56 119.5 -47 c 128,-1,38
 91 -38 91 -38 82 -26 c 1,39,-1
 304 1112 l 1,0,-1
EndSplineSet
EndChar
StartChar: summation
Encoding: 8721 8721 219
Width: 1140
Flags: W
LayerCount: 2
Fore
SplineSet
808 1232 m 1,0,1
 628 1234 628 1234 576 1234 c 0,2,3
 456 1234 456 1234 448 1214 c 1,4,-1
 702 716 l 1,5,6
 709 675 709 675 688 654 c 0,7,8
 682 648 682 648 637.5 605.5 c 128,-1,9
 593 563 593 563 554.5 525 c 128,-1,10
 516 487 516 487 459 431 c 128,-1,11
 402 375 402 375 357 328 c 128,-1,12
 312 281 312 281 270 235.5 c 128,-1,13
 228 190 228 190 205 158 c 128,-1,14
 182 126 182 126 182 114 c 0,15,16
 182 107 182 107 191 103 c 128,-1,17
 200 99 200 99 230.5 96.5 c 128,-1,18
 261 94 261 94 318 94 c 0,19,20
 350 94 350 94 417.5 95 c 128,-1,21
 485 96 485 96 516 96 c 0,22,23
 596 96 596 96 690.5 104 c 128,-1,24
 785 112 785 112 824 132 c 0,25,26
 855 148 855 148 893.5 197.5 c 128,-1,27
 932 247 932 247 968 324 c 0,28,29
 974 336 974 336 996 336 c 0,30,31
 1034 336 1034 336 1042 324 c 1,32,33
 1029 299 1029 299 985 218 c 128,-1,34
 941 137 941 137 915 84.5 c 128,-1,35
 889 32 889 32 876 -8 c 1,36,37
 771 -8 771 -8 515 -2 c 128,-1,38
 259 4 259 4 178 4 c 0,39,40
 123 4 123 4 67.5 1.5 c 128,-1,41
 12 -1 12 -1 -16 -3.5 c 2,42,-1
 -44 -6 l 1,43,44
 -46 -4 -46 -4 -46 10 c 0,45,46
 -46 23 -46 23 -41 42.5 c 128,-1,47
 -36 62 -36 62 -32 62 c 0,48,49
 -18 62 -18 62 10.5 83.5 c 128,-1,50
 39 105 39 105 58 126 c 2,51,-1
 536 634 l 1,52,53
 543 644 543 644 538 654 c 0,54,55
 523 691 523 691 439 868.5 c 128,-1,56
 355 1046 355 1046 284 1184 c 0,57,58
 271 1209 271 1209 244 1231.5 c 128,-1,59
 217 1254 217 1254 200 1254 c 0,60,61
 197 1254 197 1254 196.5 1265.5 c 128,-1,62
 196 1277 196 1277 200 1292.5 c 128,-1,63
 204 1308 204 1308 212 1316 c 1,64,65
 304 1312 304 1312 428 1312 c 0,66,67
 510 1312 510 1312 751.5 1320 c 128,-1,68
 993 1328 993 1328 1098 1328 c 1,69,70
 1096 1296 1096 1296 1096 1234 c 0,71,72
 1096 1204 1096 1204 1097 1145 c 128,-1,73
 1098 1086 1098 1086 1098 1056 c 1,74,75
 1088 1046 1088 1046 1064 1046 c 128,-1,76
 1040 1046 1040 1046 1040 1060 c 0,77,78
 1034 1177 1034 1177 974 1214 c 1,79,80
 942 1232 942 1232 808 1232 c 1,0,1
EndSplineSet
EndChar
StartChar: radical
Encoding: 8730 8730 222
Width: 924
Flags: W
LayerCount: 2
Fore
SplineSet
-38 336 m 1,0,1
 -70 353 -70 353 -70 370 c 128,-1,2
 -70 387 -70 387 -20 412 c 1,3,4
 34 441 34 441 131.5 502 c 128,-1,5
 229 563 229 563 252 582 c 0,6,7
 265 593 265 593 282 592.5 c 128,-1,8
 299 592 299 592 300 580 c 0,9,10
 301 535 301 535 320 442 c 1,11,-1
 440 -62 l 1,12,-1
 1024 1582 l 1,13,-1
 1092 1582 l 1,14,-1
 418 -306 l 1,15,16
 380 -346 380 -346 350 -346 c 0,17,18
 332 -346 332 -346 332 -336 c 1,19,-1
 154 440 l 1,20,-1
 -38 336 l 1,0,1
EndSplineSet
EndChar
StartChar: infinity
Encoding: 8734 8734 224
Width: 1642
Flags: W
LayerCount: 2
Fore
SplineSet
1228 734 m 0,0,1
 1204 734 1204 734 1178.5 725.5 c 128,-1,2
 1153 717 1153 717 1124.5 699 c 128,-1,3
 1096 681 1096 681 1073.5 665 c 128,-1,4
 1051 649 1051 649 1020 620 c 128,-1,5
 989 591 989 591 973 575.5 c 128,-1,6
 957 560 957 560 927 529.5 c 128,-1,7
 897 499 897 499 890 492 c 0,8,9
 886 488 886 488 888 486 c 0,10,11
 895 472 895 472 915 434.5 c 128,-1,12
 935 397 935 397 946.5 377.5 c 128,-1,13
 958 358 958 358 978 325.5 c 128,-1,14
 998 293 998 293 1015 275 c 128,-1,15
 1032 257 1032 257 1054.5 237.5 c 128,-1,16
 1077 218 1077 218 1101 209 c 128,-1,17
 1125 200 1125 200 1152 200 c 0,18,19
 1225 200 1225 200 1285.5 254.5 c 128,-1,20
 1346 309 1346 309 1377 383.5 c 128,-1,21
 1408 458 1408 458 1408 528 c 0,22,23
 1408 617 1408 617 1359 675.5 c 128,-1,24
 1310 734 1310 734 1228 734 c 0,0,1
470 724 m 0,25,26
 365 724 365 724 283.5 622 c 128,-1,27
 202 520 202 520 202 398 c 0,28,29
 202 310 202 310 250.5 252 c 128,-1,30
 299 194 299 194 380 194 c 0,31,32
 415 194 415 194 451.5 208.5 c 128,-1,33
 488 223 488 223 528 254.5 c 128,-1,34
 568 286 568 286 595 309.5 c 128,-1,35
 622 333 622 333 666 377 c 128,-1,36
 710 421 710 421 726 436 c 0,37,38
 728 438 728 438 726 440 c 0,39,40
 719 453 719 453 695.5 498 c 128,-1,41
 672 543 672 543 652.5 575 c 128,-1,42
 633 607 633 607 604 645 c 128,-1,43
 575 683 575 683 541 703.5 c 128,-1,44
 507 724 507 724 470 724 c 0,25,26
514 844 m 0,45,46
 563 844 563 844 609 825.5 c 128,-1,47
 655 807 655 807 687 782 c 128,-1,48
 719 757 719 757 751.5 717 c 128,-1,49
 784 677 784 677 802 649.5 c 128,-1,50
 820 622 820 622 842.63323336 584.240660478 c 0,51,52
 848 576 848 576 850 572 c 0,53,54
 852 569 852 569 856 568 c 128,-1,55
 860 567 860 567 862 570 c 0,56,57
 901 612 901 612 928.5 640.5 c 128,-1,58
 956 669 956 669 1005.5 711.5 c 128,-1,59
 1055 754 1055 754 1097 779.5 c 128,-1,60
 1139 805 1139 805 1194 824.5 c 128,-1,61
 1249 844 1249 844 1300 844 c 0,62,63
 1411 844 1411 844 1478.5 763 c 128,-1,64
 1546 682 1546 682 1546 562 c 0,65,66
 1546 471 1546 471 1507 382.5 c 128,-1,67
 1468 294 1468 294 1405 229.5 c 128,-1,68
 1342 165 1342 165 1259 125.5 c 128,-1,69
 1176 86 1176 86 1092 86 c 0,70,71
 1034 86 1034 86 984 106.5 c 128,-1,72
 934 127 934 127 901 157 c 128,-1,73
 868 187 868 187 840.5 223 c 128,-1,74
 813 259 813 259 797.5 289 c 128,-1,75
 782 319 782 319 771 339.5 c 128,-1,76
 760 360 760 360 756 360 c 2,77,-1
 754 360 l 1,78,79
 634.745273782 238.821810456 634.745273782 238.821810456 578.107340043 193.833907258 c 0,80,81
 437.313015816 82 437.313015816 82 306 82 c 0,82,83
 197 82 197 82 132.5 162.5 c 128,-1,84
 68 243 68 243 68 364 c 0,85,86
 68 456 68 456 106 545 c 128,-1,87
 144 634 144 634 206 699 c 128,-1,88
 268 764 268 764 349.5 804 c 128,-1,89
 431 844 431 844 514 844 c 0,45,46
EndSplineSet
EndChar
StartChar: lessequal
Encoding: 8804 8804 226
Width: 928
Flags: W
LayerCount: 2
Fore
SplineSet
4 124 m 1,0,-1
 708 124 l 2,1,2
 716 124 716 124 716 106 c 0,3,4
 716 58 716 58 674 12 c 1,5,-1
 -30 12 l 2,6,7
 -40 12 -40 12 -40 30 c 0,8,9
 -40 68 -40 68 4 124 c 1,0,-1
870 1058 m 17,10,11
 878 1048 878 1048 887 1023.5 c 128,-1,12
 896 999 896 999 896 976 c 0,13,14
 896 955 896 955 886 950 c 2,15,-1
 214 620 l 1,16,-1
 766 284 l 1,17,18
 766 258 766 258 747 216 c 128,-1,19
 728 174 728 174 718 174 c 0,20,21
 714 174 714 174 710 176 c 2,22,-1
 88 558 l 2,23,24
 66 572 66 572 66 604 c 0,25,26
 66 661 66 661 112 684 c 2,27,-1
 870 1058 l 17,10,11
EndSplineSet
EndChar
StartChar: uni2619
Encoding: 9753 9753 593
Width: 1678
VWidth: 0
Flags: W
LayerCount: 2
Fore
SplineSet
954 466 m 1,0,1
 1003 466 1003 466 1047.5 425.5 c 128,-1,2
 1092 385 1092 385 1092 322 c 0,3,4
 1092 197 1092 197 977.5 124.5 c 128,-1,5
 863 52 863 52 692 52 c 0,6,7
 514 52 514 52 372.5 94 c 128,-1,8
 231 136 231 136 144.5 223 c 128,-1,9
 58 310 58 310 58 430 c 0,10,11
 58 517 58 517 125 580.5 c 128,-1,12
 192 644 192 644 260 644 c 0,13,14
 274 644 274 644 285 622.5 c 128,-1,15
 296 601 296 601 296 582 c 0,16,17
 296 551 296 551 276.5 536.5 c 128,-1,18
 257 522 257 522 229.5 517.5 c 128,-1,19
 202 513 202 513 174.5 507 c 128,-1,20
 147 501 147 501 127.5 479 c 128,-1,21
 108 457 108 457 108 416 c 0,22,23
 108 364 108 364 148 329 c 128,-1,24
 188 294 188 294 234 294 c 0,25,26
 277 294 277 294 306.5 324 c 128,-1,27
 336 354 336 354 355 401.5 c 128,-1,28
 374 449 374 449 392 507 c 128,-1,29
 410 565 410 565 437 623 c 128,-1,30
 464 681 464 681 502 728.5 c 128,-1,31
 540 776 540 776 607 806 c 128,-1,32
 674 836 674 836 764 836 c 0,33,34
 794 836 794 836 826.5 827 c 128,-1,35
 859 818 859 818 894.5 798.5 c 128,-1,36
 930 779 930 779 953 739 c 128,-1,37
 976 699 976 699 976 646 c 0,38,39
 976 595 976 595 926 534 c 1,40,41
 1037 639 1037 639 1162 646 c 1,42,43
 1180 670 1180 670 1213.5 702 c 128,-1,44
 1247 734 1247 734 1272 757 c 128,-1,45
 1297 780 1297 780 1316.5 810 c 128,-1,46
 1336 840 1336 840 1336 868 c 0,47,48
 1336 912 1336 912 1298.5 944 c 128,-1,49
 1261 976 1261 976 1222 986 c 1,50,51
 1222 992 1222 992 1232.5 997 c 128,-1,52
 1243 1002 1243 1002 1254 1002 c 0,53,54
 1326 1002 1326 1002 1385 968.5 c 128,-1,55
 1444 935 1444 935 1444 866 c 0,56,57
 1444 829 1444 829 1418.5 796.5 c 128,-1,58
 1393 764 1393 764 1361 743.5 c 128,-1,59
 1329 723 1329 723 1286 694.5 c 128,-1,60
 1243 666 1243 666 1220 644 c 1,61,62
 1343 632 1343 632 1418.5 554 c 128,-1,63
 1494 476 1494 476 1494 362 c 0,64,65
 1494 357 1494 357 1493 348 c 128,-1,66
 1492 339 1492 339 1492 334 c 1,67,-1
 1494 334 l 2,68,69
 1514 334 1514 334 1546 306 c 128,-1,70
 1578 278 1578 278 1578 266 c 0,71,72
 1578 260 1578 260 1563 255 c 128,-1,73
 1548 250 1548 250 1534 250 c 0,74,75
 1516 250 1516 250 1480 254 c 1,76,77
 1459 168 1459 168 1408.5 113 c 128,-1,78
 1358 58 1358 58 1282 58 c 0,79,80
 1225 58 1225 58 1182.5 93 c 128,-1,81
 1140 128 1140 128 1140 182 c 0,82,83
 1140 210 1140 210 1170 248 c 1,84,85
 1171 246 1171 246 1180 232.5 c 128,-1,86
 1189 219 1189 219 1193.5 213.5 c 128,-1,87
 1198 208 1198 208 1208.5 197 c 128,-1,88
 1219 186 1219 186 1228 180.5 c 128,-1,89
 1237 175 1237 175 1250.5 170.5 c 128,-1,90
 1264 166 1264 166 1278 166 c 0,91,92
 1374 166 1374 166 1416 268 c 1,93,94
 1298 302 1298 302 1212 381 c 128,-1,95
 1126 460 1126 460 1126 554 c 0,96,97
 1126 579 1126 579 1134 598 c 1,98,99
 1119 594 1119 594 1104 587.5 c 128,-1,100
 1089 581 1089 581 1076.5 574.5 c 128,-1,101
 1064 568 1064 568 1049.5 557 c 128,-1,102
 1035 546 1035 546 1026 538.5 c 128,-1,103
 1017 531 1017 531 1004 518 c 128,-1,104
 991 505 991 505 985.5 499.5 c 128,-1,105
 980 494 980 494 968 481 c 128,-1,106
 956 468 956 468 954 466 c 1,0,1
838 478 m 1,107,108
 867 514 867 514 880.5 546 c 128,-1,109
 894 578 894 578 894 632 c 0,110,111
 894 697 894 697 851 728.5 c 128,-1,112
 808 760 808 760 752 762 c 0,113,114
 686 764 686 764 635 736 c 128,-1,115
 584 708 584 708 554.5 663.5 c 128,-1,116
 525 619 525 619 500.5 564.5 c 128,-1,117
 476 510 476 510 462 461 c 128,-1,118
 448 412 448 412 429 371.5 c 128,-1,119
 410 331 410 331 390 318 c 1,120,121
 417 325 417 325 483 340.5 c 128,-1,122
 549 356 549 356 585 365.5 c 128,-1,123
 621 375 621 375 673 392 c 128,-1,124
 725 409 725 409 765 430 c 128,-1,125
 805 451 805 451 838 478 c 1,107,108
1432 340 m 1,126,127
 1432 344 1432 344 1433 351 c 128,-1,128
 1434 358 1434 358 1434 362 c 0,129,130
 1434 461 1434 461 1362.5 530 c 128,-1,131
 1291 599 1291 599 1190 604 c 1,132,133
 1178 583 1178 583 1178 554 c 0,134,135
 1178 510 1178 510 1202 472 c 128,-1,136
 1226 434 1226 434 1265.5 408.5 c 128,-1,137
 1305 383 1305 383 1347 366 c 128,-1,138
 1389 349 1389 349 1432 340 c 1,126,127
EndSplineSet
EndChar
StartChar: uni2767
Encoding: 10087 10087 594
Width: 1642
VWidth: 0
Flags: W
LayerCount: 2
Fore
SplineSet
660 466 m 1,0,1
 658 468 658 468 646 481 c 128,-1,2
 634 494 634 494 628.5 499.5 c 128,-1,3
 623 505 623 505 610 518 c 128,-1,4
 597 531 597 531 588 538.5 c 128,-1,5
 579 546 579 546 564.5 557 c 128,-1,6
 550 568 550 568 537.5 574.5 c 128,-1,7
 525 581 525 581 510 587.5 c 128,-1,8
 495 594 495 594 480 598 c 1,9,10
 488 579 488 579 488 554 c 0,11,12
 488 460 488 460 402 381 c 128,-1,13
 316 302 316 302 198 268 c 1,14,15
 240 166 240 166 336 166 c 0,16,17
 350 166 350 166 363.5 170.5 c 128,-1,18
 377 175 377 175 386 180.5 c 128,-1,19
 395 186 395 186 405.5 197 c 128,-1,20
 416 208 416 208 420.5 213.5 c 128,-1,21
 425 219 425 219 434 232.5 c 128,-1,22
 443 246 443 246 444 248 c 1,23,24
 474 210 474 210 474 182 c 0,25,26
 474 128 474 128 431.5 93 c 128,-1,27
 389 58 389 58 332 58 c 0,28,29
 256 58 256 58 205.5 113 c 128,-1,30
 155 168 155 168 134 254 c 1,31,32
 98 250 98 250 80 250 c 0,33,34
 66 250 66 250 51 255 c 128,-1,35
 36 260 36 260 36 266 c 0,36,37
 36 278 36 278 68 306 c 128,-1,38
 100 334 100 334 120 334 c 2,39,-1
 122 334 l 1,40,41
 122 339 122 339 121 348 c 128,-1,42
 120 357 120 357 120 362 c 0,43,44
 120 476 120 476 195.5 554 c 128,-1,45
 271 632 271 632 394 644 c 1,46,47
 371 666 371 666 328 694.5 c 128,-1,48
 285 723 285 723 253 743.5 c 128,-1,49
 221 764 221 764 195.5 796.5 c 128,-1,50
 170 829 170 829 170 866 c 0,51,52
 170 935 170 935 229 968.5 c 128,-1,53
 288 1002 288 1002 360 1002 c 0,54,55
 371 1002 371 1002 381.5 997 c 128,-1,56
 392 992 392 992 392 986 c 1,57,58
 353 976 353 976 315.5 944 c 128,-1,59
 278 912 278 912 278 868 c 0,60,61
 278 840 278 840 297.5 810 c 128,-1,62
 317 780 317 780 342 757 c 128,-1,63
 367 734 367 734 400.5 702 c 128,-1,64
 434 670 434 670 452 646 c 1,65,66
 577 639 577 639 688 534 c 1,67,68
 638 595 638 595 638 646 c 0,69,70
 638 699 638 699 661 739 c 128,-1,71
 684 779 684 779 719.5 798.5 c 128,-1,72
 755 818 755 818 787.5 827 c 128,-1,73
 820 836 820 836 850 836 c 0,74,75
 940 836 940 836 1007 806 c 128,-1,76
 1074 776 1074 776 1112 728.5 c 128,-1,77
 1150 681 1150 681 1177 623 c 128,-1,78
 1204 565 1204 565 1222 507 c 128,-1,79
 1240 449 1240 449 1259 401.5 c 128,-1,80
 1278 354 1278 354 1307.5 324 c 128,-1,81
 1337 294 1337 294 1380 294 c 0,82,83
 1426 294 1426 294 1466 329 c 128,-1,84
 1506 364 1506 364 1506 416 c 0,85,86
 1506 457 1506 457 1486.5 479 c 128,-1,87
 1467 501 1467 501 1439.5 507 c 128,-1,88
 1412 513 1412 513 1384.5 517.5 c 128,-1,89
 1357 522 1357 522 1337.5 536.5 c 128,-1,90
 1318 551 1318 551 1318 582 c 0,91,92
 1318 601 1318 601 1329 622.5 c 128,-1,93
 1340 644 1340 644 1354 644 c 0,94,95
 1422 644 1422 644 1489 580.5 c 128,-1,96
 1556 517 1556 517 1556 430 c 0,97,98
 1556 310 1556 310 1469.5 223 c 128,-1,99
 1383 136 1383 136 1241.5 94 c 128,-1,100
 1100 52 1100 52 922 52 c 0,101,102
 751 52 751 52 636.5 124.5 c 128,-1,103
 522 197 522 197 522 322 c 0,104,105
 522 385 522 385 566.5 425.5 c 128,-1,106
 611 466 611 466 660 466 c 1,0,1
776 478 m 1,107,108
 809 451 809 451 849 430 c 128,-1,109
 889 409 889 409 941 392 c 128,-1,110
 993 375 993 375 1029 365.5 c 128,-1,111
 1065 356 1065 356 1131 340.5 c 128,-1,112
 1197 325 1197 325 1224 318 c 1,113,114
 1204 331 1204 331 1185 371.5 c 128,-1,115
 1166 412 1166 412 1152 461 c 128,-1,116
 1138 510 1138 510 1113.5 564.5 c 128,-1,117
 1089 619 1089 619 1059.5 663.5 c 128,-1,118
 1030 708 1030 708 979 736 c 128,-1,119
 928 764 928 764 862 762 c 0,120,121
 806 760 806 760 763 728.5 c 128,-1,122
 720 697 720 697 720 632 c 0,123,124
 720 578 720 578 733.5 546 c 128,-1,125
 747 514 747 514 776 478 c 1,107,108
182 340 m 1,126,127
 225 349 225 349 267 366 c 128,-1,128
 309 383 309 383 348.5 408.5 c 128,-1,129
 388 434 388 434 412 472 c 128,-1,130
 436 510 436 510 436 554 c 0,131,132
 436 583 436 583 424 604 c 1,133,134
 323 599 323 599 251.5 530 c 128,-1,135
 180 461 180 461 180 362 c 0,136,137
 180 358 180 358 181 351 c 128,-1,138
 182 344 182 344 182 340 c 1,126,127
EndSplineSet
EndChar
StartChar: NameMe.65756
Encoding: 65756 -1 876
Width: 1582
VWidth: 0
Flags: W
LayerCount: 2
Fore
SplineSet
1366 1178 m 3,0,1
 1366 1240 1366 1240 1310 1281 c 128,-1,2
 1254 1322 1254 1322 1180 1322 c 0,3,4
 980 1322 980 1322 896 826 c 1,5,-1
 896 822 l 2,6,7
 896 814 896 814 902 814 c 2,8,-1
 1132 814 l 2,9,10
 1142 814 1142 814 1142 790 c 0,11,12
 1142 757 1142 757 1120 722 c 1,13,-1
 886 722 l 2,14,15
 878 722 878 722 874 706 c 2,16,-1
 778 212 l 2,17,18
 751 72 751 72 699.5 -44.5 c 128,-1,19
 648 -161 648 -161 589 -233.5 c 128,-1,20
 530 -306 530 -306 465 -356.5 c 128,-1,21
 400 -407 400 -407 346 -427.5 c 128,-1,22
 292 -448 292 -448 250 -448 c 0,23,24
 180 -448 180 -448 131 -416 c 128,-1,25
 82 -384 82 -384 58 -350 c 1,26,27
 8 -407 8 -407 -57.5 -436.5 c 128,-1,28
 -123 -466 -123 -466 -186 -466 c 0,29,30
 -307 -466 -307 -466 -352 -382 c 1,31,32
 -352 -337 -352 -337 -332 -299.5 c 128,-1,33
 -312 -262 -312 -262 -272 -262 c 0,34,35
 -254 -262 -254 -262 -240 -274.5 c 128,-1,36
 -226 -287 -226 -287 -216.5 -305 c 128,-1,37
 -207 -323 -207 -323 -196 -341 c 128,-1,38
 -185 -359 -185 -359 -167.5 -371.5 c 128,-1,39
 -150 -384 -150 -384 -126 -384 c 0,40,41
 -84 -384 -84 -384 -36.5 -318.5 c 128,-1,42
 11 -253 11 -253 43.5 -170 c 128,-1,43
 76 -87 76 -87 88 -20 c 0,44,45
 89 -16 89 -16 106 92 c 1,46,-1
 212 708 l 1,47,-1
 212 712 l 2,48,49
 212 722 212 722 206 722 c 2,50,-1
 76 722 l 2,51,52
 72 722 72 722 72 728 c 0,53,54
 72 746 72 746 104.5 780 c 128,-1,55
 137 814 137 814 168 814 c 2,56,-1
 226 814 l 2,57,58
 234 814 234 814 238 832 c 0,59,60
 284 1065 284 1065 437.5 1215.5 c 128,-1,61
 591 1366 591 1366 742 1366 c 0,62,63
 817 1366 817 1366 877.5 1347.5 c 128,-1,64
 938 1329 938 1329 962 1306 c 1,65,66
 998 1340 998 1340 1077.5 1369 c 128,-1,67
 1157 1398 1157 1398 1216 1398 c 0,68,69
 1280 1398 1280 1398 1342 1377 c 128,-1,70
 1404 1356 1404 1356 1406 1356 c 0,71,72
 1431 1356 1431 1356 1493 1372 c 128,-1,73
 1555 1388 1555 1388 1562 1388 c 0,74,75
 1572 1388 1572 1388 1572 1356 c 1,76,77
 1534 1292 1534 1292 1512 1182 c 2,78,-1
 1322 212 l 1,79,80
 1314 180 1314 180 1314 148 c 0,81,82
 1314 98 1314 98 1334 98 c 0,83,84
 1344 98 1344 98 1358.5 106.5 c 128,-1,85
 1373 115 1373 115 1387.5 127 c 128,-1,86
 1402 139 1402 139 1417.5 154 c 128,-1,87
 1433 169 1433 169 1444 181 c 128,-1,88
 1455 193 1455 193 1464.5 203.5 c 2,89,-1
 1474 214 l 1,90,91
 1479 214 1479 214 1486.5 199.5 c 128,-1,92
 1494 185 1494 185 1494 176 c 1,93,94
 1469 134 1469 134 1381.5 61 c 128,-1,95
 1294 -12 1294 -12 1232 -12 c 0,96,97
 1200 -12 1200 -12 1182 17 c 128,-1,98
 1164 46 1164 46 1164 92 c 0,99,100
 1164 124 1164 124 1178 198 c 2,101,-1
 1358 1118 l 1,102,103
 1366 1150 1366 1150 1366 1178 c 3,0,1
272 -354 m 0,104,105
 317 -354 317 -354 366.5 -324.5 c 128,-1,106
 416 -295 416 -295 464.5 -239 c 128,-1,107
 513 -183 513 -183 555.5 -89.5 c 128,-1,108
 598 4 598 4 622 120 c 1,109,-1
 724 708 l 1,110,-1
 724 712 l 2,111,112
 724 722 724 722 718 722 c 2,113,-1
 364 722 l 2,114,115
 360 722 360 722 358.5 721.5 c 128,-1,116
 357 721 357 721 355 717.5 c 128,-1,117
 353 714 353 714 352 706 c 2,118,-1
 242 86 l 1,119,120
 207 -97 207 -97 152 -206 c 0,121,122
 150 -208 150 -208 150 -216 c 0,123,124
 150 -220 150 -220 151 -226 c 2,125,-1
 152 -232 l 2,126,127
 156 -251 156 -251 162.5 -268.5 c 128,-1,128
 169 -286 169 -286 182 -307 c 128,-1,129
 195 -328 195 -328 218.5 -341 c 128,-1,130
 242 -354 242 -354 272 -354 c 0,104,105
700 1290 m 0,131,132
 589 1290 589 1290 505.5 1183 c 128,-1,133
 422 1076 422 1076 388 908 c 1,134,135
 381 868 381 868 374 826 c 1,136,-1
 374 822 l 2,137,138
 374 814 374 814 382 814 c 2,139,-1
 738 814 l 2,140,141
 746 814 746 814 750 832 c 0,142,143
 767 922 767 922 799.5 1019.5 c 128,-1,144
 832 1117 832 1117 860 1168 c 0,145,146
 862 1170 862 1170 862 1178 c 0,147,148
 862 1182 862 1182 861 1188 c 2,149,-1
 860 1194 l 1,150,151
 853 1227 853 1227 806.5 1258.5 c 128,-1,152
 760 1290 760 1290 700 1290 c 0,131,132
EndSplineSet
EndChar
StartChar: NameMe.65757
Encoding: 65757 -1 877
Width: 1446
VWidth: 0
Flags: W
LayerCount: 2
Fore
SplineSet
1124 760 m 0,0,1
 1092 760 1092 760 1044.5 720.5 c 128,-1,2
 997 681 997 681 950.5 619.5 c 128,-1,3
 904 558 904 558 864.5 474.5 c 128,-1,4
 825 391 825 391 810 312 c 1,5,6
 785 190 785 190 808.5 122 c 128,-1,7
 832 54 832 54 902 54 c 0,8,9
 961 54 961 54 1019 117 c 128,-1,10
 1077 180 1077 180 1115.5 268.5 c 128,-1,11
 1154 357 1154 357 1178 449 c 128,-1,12
 1202 541 1202 541 1202 604 c 0,13,14
 1202 637 1202 637 1199.5 660.5 c 128,-1,15
 1197 684 1197 684 1189.5 709 c 128,-1,16
 1182 734 1182 734 1165.5 747 c 128,-1,17
 1149 760 1149 760 1124 760 c 0,0,1
830 1118 m 2,18,19
 840 1168 840 1168 840 1178 c 0,20,21
 840 1241 840 1241 785.5 1281.5 c 128,-1,22
 731 1322 731 1322 658 1322 c 0,23,24
 458 1322 458 1322 374 826 c 1,25,-1
 374 822 l 2,26,27
 374 814 374 814 380 814 c 2,28,-1
 610 814 l 2,29,30
 620 814 620 814 620 790 c 0,31,32
 620 757 620 757 598 722 c 1,33,-1
 364 722 l 2,34,35
 354 722 354 722 352 706 c 2,36,-1
 242 108 l 1,37,38
 217 -34 217 -34 170.5 -145.5 c 128,-1,39
 124 -257 124 -257 65.5 -325 c 128,-1,40
 7 -393 7 -393 -58 -427.5 c 128,-1,41
 -123 -462 -123 -462 -190 -462 c 0,42,43
 -259 -462 -259 -462 -300 -436.5 c 128,-1,44
 -341 -411 -341 -411 -352 -380 c 1,45,46
 -354 -334 -354 -334 -329.5 -298 c 128,-1,47
 -305 -262 -305 -262 -270 -262 c 0,48,49
 -252 -262 -252 -262 -235.5 -281 c 128,-1,50
 -219 -300 -219 -300 -207 -323 c 128,-1,51
 -195 -346 -195 -346 -172.5 -365 c 128,-1,52
 -150 -384 -150 -384 -122 -384 c 0,53,54
 -83 -384 -83 -384 -45.5 -336.5 c 128,-1,55
 -8 -289 -8 -289 19.5 -218.5 c 128,-1,56
 47 -148 47 -148 65 -84 c 128,-1,57
 83 -20 83 -20 92 30 c 2,58,-1
 212 708 l 1,59,-1
 212 712 l 2,60,61
 212 722 212 722 206 722 c 2,62,-1
 76 722 l 2,63,64
 72 722 72 722 72 728 c 0,65,66
 72 746 72 746 104.5 780 c 128,-1,67
 137 814 137 814 168 814 c 2,68,-1
 226 814 l 2,69,70
 234 814 234 814 238 832 c 1,71,72
 278 1077 278 1077 410 1237.5 c 128,-1,73
 542 1398 542 1398 694 1398 c 0,74,75
 758 1398 758 1398 820 1377 c 128,-1,76
 882 1356 882 1356 884 1356 c 0,77,78
 909 1356 909 1356 966 1372 c 128,-1,79
 1023 1388 1023 1388 1030 1388 c 0,80,81
 1040 1388 1040 1388 1040 1356 c 1,82,83
 1006 1290 1006 1290 984 1182 c 2,84,-1
 860 570 l 1,85,86
 910 653 910 653 964 715 c 128,-1,87
 1018 777 1018 777 1064.5 808.5 c 128,-1,88
 1111 840 1111 840 1147 855 c 128,-1,89
 1183 870 1183 870 1210 870 c 0,90,91
 1278 870 1278 870 1314 809.5 c 128,-1,92
 1350 749 1350 749 1350 644 c 0,93,94
 1350 515 1350 515 1301.5 391 c 128,-1,95
 1253 267 1253 267 1178.5 180.5 c 128,-1,96
 1104 94 1104 94 1015 41 c 128,-1,97
 926 -12 926 -12 846 -12 c 0,98,99
 761 -12 761 -12 710.5 50 c 128,-1,100
 660 112 660 112 660 222 c 0,101,102
 660 244 660 244 672 316 c 1,103,-1
 830 1118 l 2,18,19
EndSplineSet
EndChar
StartChar: a.sc
Encoding: 65589 -1 444
Width: 876
Flags: W
LayerCount: 2
Fore
SplineSet
756 -6 m 1,0,1
 664 2 664 2 588 2 c 128,-1,2
 512 2 512 2 404 -6 c 1,3,4
 400 -0 400 -0 405 23 c 128,-1,5
 410 46 410 46 416 52 c 1,6,7
 433 52 433 52 468.5 56.5 c 128,-1,8
 504 61 504 61 512 68 c 0,9,10
 517 73 517 73 520 86 c 0,11,12
 524 103 524 103 516.5 163.5 c 128,-1,13
 509 224 509 224 499.5 276 c 2,14,-1
 490 328 l 1,15,16
 488 332 488 332 484 332 c 0,17,18
 469 334 469 334 370 334 c 0,19,20
 306 334 306 334 252 328 c 1,21,-1
 248 326 l 1,22,23
 196 232 196 232 166 172 c 0,24,25
 140 120 140 120 132 88 c 0,26,27
 130 78 130 78 141 70 c 128,-1,28
 152 62 152 62 169 58.5 c 128,-1,29
 186 55 186 55 198.5 53.5 c 128,-1,30
 211 52 211 52 216 52 c 1,31,32
 219 48 219 48 216 25 c 128,-1,33
 213 2 213 2 208 -6 c 1,34,35
 116 2 116 2 76 2 c 0,36,37
 30 2 30 2 -78 -6 c 1,38,39
 -82 -1 -82 -1 -78 21 c 128,-1,40
 -74 43 -74 43 -68 52 c 1,41,42
 -51 52 -51 52 -17.5 59 c 128,-1,43
 16 66 16 66 26 78 c 0,44,45
 63 123 63 123 104 198 c 0,46,47
 342 628 342 628 454 838 c 0,48,49
 462 853 462 853 497 878.5 c 128,-1,50
 532 904 532 904 540 904 c 0,51,52
 542 904 542 904 544 901.5 c 128,-1,53
 546 899 546 899 548 898 c 1,54,55
 652 124 652 124 658 98 c 0,56,57
 662 78 662 78 705 65 c 128,-1,58
 748 52 748 52 766 52 c 1,59,60
 771 38 771 38 756 -6 c 1,0,1
292 414 m 0,61,62
 352 410 352 410 384 410 c 0,63,64
 426 410 426 410 480 416 c 1,65,-1
 484 420 l 1,66,-1
 444 702 l 1,67,-1
 290 418 l 1,68,69
 290 414 290 414 292 414 c 0,61,62
EndSplineSet
EndChar
StartChar: acutecomb.cap
Encoding: 65551 -1 285
Width: 450
GlyphClass: 4
Flags: W
LayerCount: 2
Fore
SplineSet
312 1388 m 0,0,1
 310 1388 310 1388 305 1396 c 128,-1,2
 300 1404 300 1404 300 1408 c 0,3,4
 300 1418 300 1418 386.5 1493.5 c 128,-1,5
 473 1569 473 1569 512 1594 c 0,6,7
 516 1597 516 1597 535.5 1600.5 c 128,-1,8
 555 1604 555 1604 566 1604 c 0,9,10
 608 1604 608 1604 635 1590.5 c 128,-1,11
 662 1577 662 1577 662 1560 c 0,12,13
 662 1527 662 1527 503.5 1457.5 c 128,-1,14
 345 1388 345 1388 312 1388 c 0,0,1
EndSplineSet
EndChar
StartChar: aogonek.sc
Encoding: 65660 -1 515
Width: 876
Flags: W
LayerCount: 2
Fore
SplineSet
288 414 m 0,0,1
 348 410 348 410 380 410 c 0,2,3
 424 410 424 410 478 416 c 1,4,5
 480 420 l 1,6,-1
 440 702 l 1,7,-1
 286 418 l 1,8,9
 286 414 286 414 288 414 c 0,0,1
756 -6 m 1,10,11
 724 -4 l 2,12,13
 667 -1 667 -1 576.5 -88 c 128,-1,14
 486 -175 486 -175 472 -242 c 1,15,16
 470 -259 470 -259 470 -278 c 128,-1,17
 470 -297 470 -297 484.5 -312.5 c 128,-1,18
 499 -328 499 -328 526 -328 c 0,19,20
 565 -328 565 -328 601 -309 c 128,-1,21
 637 -290 637 -290 657.5 -271 c 128,-1,22
 678 -252 678 -252 680 -252 c 0,23,24
 681 -252 681 -252 682.5 -255 c 128,-1,25
 684 -258 684 -258 685 -264 c 128,-1,26
 686 -270 686 -270 684 -278 c 0,27,28
 680 -298 680 -298 668 -314 c 1,29,30
 554 -446 554 -446 460 -446 c 0,31,32
 416 -446 416 -446 391.5 -418 c 128,-1,33
 367 -390 367 -390 366 -356 c 128,-1,34
 365 -322 365 -322 368 -292 c 1,35,36
 382 -217 382 -217 473.5 -119 c 128,-1,37
 565 -21 565 -21 630 2 c 1,38,-1
 588 2 l 2,39,40
 508 2 508 2 400 -6 c 1,41,42
 396 -0 396 -0 402 23 c 128,-1,43
 408 46 408 46 414 52 c 1,44,45
 431 52 431 52 467.5 56.5 c 128,-1,46
 504 61 504 61 512 68 c 0,47,48
 517 73 517 73 520 86 c 0,49,50
 524 103 524 103 516 163.5 c 128,-1,51
 508 224 508 224 498 276 c 2,52,-1
 488 328 l 1,53,54
 486 332 486 332 482 332 c 0,55,56
 467 334 467 334 368 334 c 0,57,58
 302 334 302 334 248 328 c 1,59,-1
 244 326 l 1,60,61
 194 232 194 232 164 172 c 128,-1,62
 134 112 134 112 128 88 c 0,63,64
 126 78 126 78 137.5 70 c 128,-1,65
 149 62 149 62 166 58.5 c 128,-1,66
 183 55 183 55 195.5 53.5 c 128,-1,67
 208 52 208 52 214 52 c 1,68,69
 217 48 217 48 213 25 c 128,-1,70
 209 2 209 2 204 -6 c 1,71,72
 112 2 112 2 72 2 c 0,73,74
 26 2 26 2 -82 -6 c 1,75,76
 -77 8 -77 8 -70 52 c 1,77,78
 -53 52 -53 52 -20.5 59 c 128,-1,79
 12 66 12 66 22 78 c 0,80,81
 59 123 59 123 100 198 c 0,82,83
 338 628 338 628 450 838 c 0,84,85
 458 853 458 853 493 878.5 c 128,-1,86
 528 904 528 904 536 904 c 0,87,88
 538 904 538 904 540 901.5 c 128,-1,89
 542 899 542 899 544 898 c 1,90,91
 652 124 652 124 658 98 c 0,92,93
 662 78 662 78 705 65 c 128,-1,94
 748 52 748 52 766 52 c 1,95,96
 771 38 771 38 756 -6 c 1,10,11
EndSplineSet
EndChar
StartChar: backslash.sc
Encoding: 65616 -1 471
Width: 586
Flags: W
LayerCount: 2
Fore
SplineSet
144 974 m 1,0,1
 168 982 168 982 176 982 c 0,2,3
 186 982 186 982 192.5 981 c 128,-1,4
 199 980 199 980 203 979 c 128,-1,5
 207 978 207 978 210 974 c 128,-1,6
 213 970 213 970 213.5 968.5 c 128,-1,7
 214 967 214 967 215.5 960.5 c 128,-1,8
 217 954 217 954 218 952 c 2,9,-1
 400 -54 l 1,10,11
 384 -106 384 -106 360 -106 c 0,12,13
 350 -106 350 -106 347 -103 c 128,-1,14
 344 -100 344 -100 342 -92 c 2,15,-1
 144 974 l 1,0,1
EndSplineSet
EndChar
StartChar: d.sc
Encoding: 65592 -1 447
Width: 1014
Flags: W
LayerCount: 2
Fore
SplineSet
379 722 m 1,0,-1
 271 170 l 2,1,2
 267 153 267 153 262.5 116 c 128,-1,3
 258 79 258 79 261 74 c 0,4,5
 269 56 269 56 351 56 c 0,6,7
 485 56 485 56 591 150 c 128,-1,8
 697 244 697 244 733 426 c 1,9,10
 752 538 752 538 743 615.5 c 128,-1,11
 734 693 734 693 696.5 741.5 c 128,-1,12
 659 790 659 790 607 812 c 128,-1,13
 555 834 555 834 489 834 c 0,14,15
 411 834 411 834 405 820 c 0,16,17
 395 798 395 798 379 722 c 1,0,-1
527 894 m 2,18,19
 735 894 735 894 833.5 770 c 128,-1,20
 932 646 932 646 895 452 c 0,21,22
 877 359 877 359 839 281.5 c 128,-1,23
 801 204 801 204 737 137 c 128,-1,24
 673 70 673 70 571 32 c 128,-1,25
 469 -6 469 -6 337 -6 c 2,26,-1
 1 -6 l 1,27,28
 -1 -1 -1 -1 2 20 c 128,-1,29
 5 41 5 41 11 52 c 1,30,31
 31 52 31 52 67 57.5 c 128,-1,32
 103 63 103 63 107 72 c 0,33,34
 118 97 118 97 133 170 c 1,35,-1
 239 724 l 2,36,37
 253 794 253 794 253 822 c 0,38,39
 253 836 253 836 165 836 c 1,40,41
 159 845 159 845 162.5 865 c 128,-1,42
 166 885 166 885 175 896 c 1,43,44
 213 894 213 894 369 894 c 2,45,-1
 527 894 l 2,18,19
EndSplineSet
EndChar
StartChar: eogonek.sc
Encoding: 65670 -1 525
Width: 858
Flags: W
LayerCount: 2
Fore
SplineSet
338 892 m 0,0,1
 397 892 397 892 539.5 899 c 128,-1,2
 682 906 682 906 754 906 c 1,3,4
 752 863 752 863 757 792 c 128,-1,5
 762 721 762 721 762 710 c 1,6,7
 753 704 753 704 734 704 c 0,8,9
 708 704 708 704 708 712 c 0,10,11
 704 782 704 782 675 805 c 128,-1,12
 646 828 646 828 590 828 c 2,13,-1
 486 828 l 2,14,15
 407 828 407 828 400 814 c 0,16,17
 385 784 385 784 374 722 c 2,18,-1
 328 484 l 2,19,20
 327 482 327 482 331 480.5 c 128,-1,21
 335 479 335 479 342.5 478 c 128,-1,22
 350 477 350 477 359 476.5 c 128,-1,23
 368 476 368 476 378 476 c 2,24,-1
 442 476 l 2,25,26
 520 476 520 476 539 487.5 c 128,-1,27
 558 499 558 499 583.47464658 556.763590961 c 0,28,29
 588 567 588 567 590 572 c 0,30,31
 593 582 593 582 614 582 c 0,32,33
 631 582 631 582 638 572 c 1,34,-1
 588 310 l 1,35,36
 580 306 580 306 562 306 c 0,37,38
 543 306 543 306 540 316 c 1,39,40
 538 350 538 350 535.5 367 c 128,-1,41
 533 384 533 384 531 388.5 c 128,-1,42
 529 393 529 393 524 398 c 0,43,44
 512 408 512 408 398 408 c 0,45,46
 314 408 314 408 312 396 c 2,47,-1
 266 164 l 1,48,49
 249 87 249 87 258 78 c 1,50,51
 268 70 268 70 283 68 c 128,-1,52
 298 66 298 66 342 66 c 2,53,-1
 406 66 l 2,54,55
 509 66 509 66 564 96 c 1,56,57
 615 122 615 122 670 222 c 0,58,59
 673 228 673 228 690 228 c 0,60,61
 717 228 717 228 720 222 c 1,62,63
 711 205 711 205 681 149 c 128,-1,64
 651 93 651 93 633 56 c 128,-1,65
 615 19 615 19 606 -8 c 1,66,-1
 600 -8 l 1,67,68
 539 -11 539 -11 452.5 -94 c 128,-1,69
 366 -177 366 -177 354 -242 c 1,70,71
 352 -259 352 -259 352 -278 c 128,-1,72
 352 -297 352 -297 366 -312.5 c 128,-1,73
 380 -328 380 -328 408 -328 c 0,74,75
 447 -328 447 -328 483.5 -309 c 128,-1,76
 520 -290 520 -290 541 -271 c 128,-1,77
 562 -252 562 -252 564 -252 c 0,78,79
 565 -252 565 -252 566.5 -255 c 128,-1,80
 568 -258 568 -258 569 -264 c 128,-1,81
 570 -270 570 -270 568 -278 c 0,82,83
 564 -298 564 -298 552 -314 c 1,84,85
 438 -446 438 -446 342 -446 c 0,86,87
 297 -446 297 -446 272 -418 c 128,-1,88
 247 -390 247 -390 246 -356 c 128,-1,89
 245 -322 245 -322 248 -292 c 1,90,91
 264 -214 264 -214 351.5 -118 c 128,-1,92
 439 -22 439 -22 500 -6 c 1,93,94
 194 0 194 0 164 0 c 0,95,96
 132 0 132 0 77 -3 c 128,-1,97
 22 -6 22 -6 -2 -6 c 1,98,99
 -1 -2 -1 -2 3 23 c 128,-1,100
 7 48 7 48 8 52 c 1,101,102
 26 52 26 52 65 58.5 c 128,-1,103
 104 65 104 65 108 74 c 0,104,105
 116 91 116 91 132 172 c 2,106,-1
 238 724 l 2,107,108
 252 794 252 794 252 822 c 0,109,110
 252 831 252 831 216 837.5 c 128,-1,111
 180 844 180 844 162 844 c 1,112,113
 163 848 163 848 168 873 c 128,-1,114
 173 898 173 898 174 902 c 1,115,116
 304 892 304 892 338 892 c 0,0,1
EndSplineSet
EndChar
StartChar: equal.sc
Encoding: 65585 -1 440
Width: 888
Flags: W
LayerCount: 2
Fore
SplineSet
721 382 m 0,0,1
 710 337 710 337 695 300 c 1,2,3
 685 290 l 1,4,-1
 101 290 l 2,5,6
 100 290 100 290 98.5 290.5 c 128,-1,7
 97 291 97 291 94.5 295 c 128,-1,8
 92 299 92 299 95 308 c 0,9,10
 100 329 100 329 123 382 c 0,11,12
 125 386 125 386 127 388 c 128,-1,13
 129 390 129 390 130 390 c 2,14,-1
 131 390 l 1,15,-1
 715 390 l 2,16,17
 721.493055556 390 721.493055556 390 721.5625 389.8046875 c 0,18,19
 722.065159574 388.390957447 722.065159574 388.390957447 721 382 c 0,0,1
143 552 m 0,20,21
 165 634 165 634 179 634 c 2,22,-1
 767 634 l 2,23,24
 771 634 771 634 769 626 c 0,25,26
 758 581 758 581 743 544 c 1,27,-1
 733 534 l 1,28,-1
 149 534 l 2,29,30
 148 534 148 534 146.5 534.5 c 128,-1,31
 145 535 145 535 142.5 539 c 128,-1,32
 140 543 140 543 143 552 c 0,20,21
EndSplineSet
EndChar
StartChar: exclam.sc
Encoding: 65577 -1 432
Width: 462
Flags: W
LayerCount: 2
Fore
SplineSet
302 874 m 0,0,1
 338 874 338 874 353 850 c 128,-1,2
 368 826 368 826 362 794 c 0,3,4
 360 781 360 781 342 726 c 128,-1,5
 324 671 324 671 287 549.5 c 128,-1,6
 250 428 250 428 212 284 c 0,7,8
 208 265 208 265 199 258 c 128,-1,9
 190 251 190 251 162 242 c 1,10,11
 154 238 154 238 150 247.5 c 128,-1,12
 146 257 146 257 148 270 c 0,13,14
 166 433 166 433 178.5 558 c 128,-1,15
 191 683 191 683 195 724.5 c 128,-1,16
 199 766 199 766 204 794 c 0,17,18
 210 826 210 826 237.5 850 c 128,-1,19
 265 874 265 874 302 874 c 0,0,1
52 84 m 0,20,21
 59 126 59 126 92 155 c 128,-1,22
 125 184 125 184 164 184 c 128,-1,23
 203 184 203 184 224.5 155 c 128,-1,24
 246 126 246 126 238 84 c 128,-1,25
 230 42 230 42 197.5 12 c 128,-1,26
 165 -18 165 -18 126 -18 c 128,-1,27
 87 -18 87 -18 65.5 12 c 128,-1,28
 44 42 44 42 52 84 c 0,20,21
EndSplineSet
EndChar
StartChar: f.ffi
Encoding: 65754 -1 874
Width: 486
VWidth: 0
Flags: W
LayerCount: 2
Back
SplineSet
-365 -226 m 0,0,1
 -345 -272.5 -345 -272.5 -313.5 -298 c 0,2,3
 -274.448242188 -330 -274.448242188 -330 -210 -330 c 0,4,5
 -93 -330 -93 -330 -19 -225.5 c 128,-1,6
 55 -121 55 -121 106 120 c 1,7,-1
 208 708 l 2,8,9
 210.428710938 722 210.428710938 722 202 722 c 2,10,-1
 46 722 l 25,11,-1
 46 814 l 25,12,-1
 222 814 l 2,13,14
 230 814 230 814 234 832 c 0,15,16
 251 922 251 922 283.5 1019.5 c 0,17,18
 317.4765625 1121.4296875 317.4765625 1121.4296875 344 1168 c 0,19,20
 431.158203125 1321.03320312 431.158203125 1321.03320312 557 1369.5 c 0,21,22
 631 1398 631 1398 690 1398 c 0,23,24
 818 1398 818 1398 854 1330 c 1,25,26
 854 1200 854 1200 782 1200 c 0,27,28
 760 1200 760 1200 739.5 1219 c 128,-1,29
 719 1238 719 1238 705 1261 c 128,-1,30
 691 1284 691 1284 670.5 1303 c 128,-1,31
 650 1322 650 1322 628 1322 c 0,32,33
 587 1322 587 1322 549.5 1290 c 128,-1,34
 512 1258 512 1258 485 1203.5 c 0,35,36
 456.592773438 1146.16015625 456.592773438 1146.16015625 437 1094 c 0,37,38
 403.828125 1003.1875 403.828125 1003.1875 370 826 c 0,39,40
 367.708984375 814 367.708984375 814 376 814 c 2,41,-1
 606 814 l 2,42,43
 616 814 616 814 616 790 c 0,44,45
 616 757 616 757 594 722 c 1,46,-1
 360 722 l 2,47,48
 350.78515625 722 350.78515625 722 348 706 c 2,49,-1
 262 212 l 1,50,51
 235 72 235 72 183 -44.5 c 128,-1,52
 131 -161 131 -161 72.5 -233.5 c 128,-1,53
 14 -306 14 -306 -51.5 -356.5 c 128,-1,54
 -117 -407 -117 -407 -170.5 -427.5 c 128,-1,55
 -224 -448 -224 -448 -266 -448 c 0,56,57
 -336 -448 -336 -448 -385 -416 c 0,58,59
 -434.216796875 -383.858398438 -434.216796875 -383.858398438 -457.659179688 -349.629882812 c 8,60,61
 -480.623046875 -316.099609375 -480.623046875 -316.099609375 -466.5 -297 c 18,62,-1
 -414 -226 l 26,63,64
 -383.395507812 -184.610351562 -383.395507812 -184.610351562 -365 -226 c 0,0,1
EndSplineSet
Fore
SplineSet
46 814 m 25,0,-1
 223 814 l 2,1,2
 231 814 231 814 235 832 c 1,3,4
 275 1077 275 1077 407 1237.5 c 128,-1,5
 539 1398 539 1398 691 1398 c 0,6,7
 764 1398 764 1398 799.5 1384 c 128,-1,8
 835 1370 835 1370 872.5 1335 c 128,-1,9
 910 1300 910 1300 927 1260 c 1,10,11
 927 1212 927 1212 903.5 1172 c 128,-1,12
 880 1132 880 1132 837 1132 c 0,13,14
 821 1132 821 1132 809 1138 c 0,15,16
 783 1150 783 1150 743 1221 c 1,17,18
 688 1322 688 1322 624 1322 c 128,-1,19
 560 1322 560 1322 493.5 1211 c 0,20,21
 418.907752699 1086.49263984 418.907752699 1086.49263984 385 900 c 0,22,23
 383 889 383 889 378 864.5 c 128,-1,24
 373 840 373 840 371 826 c 1,25,26
 371 814 371 814 377 814 c 0,27,28
 452 815 452 815 514 817 c 1,29,-1
 514 729 l 1,30,31
 484 727.125 484 727.125 409 724 c 2,32,-1
 361 722 l 2,33,34
 351.873204304 721.619716846 351.873204304 721.619716846 349 706 c 2,35,-1
 257.778320312 210.087890625 l 2,36,37
 232.732314872 73.9292775425 232.732314872 73.9292775425 182.5 -44.5 c 0,38,39
 135.397697812 -155.549861686 135.397697812 -155.549861686 72.5 -233.5 c 0,40,41
 14 -306 14 -306 -51.5 -356.5 c 128,-1,42
 -117 -407 -117 -407 -170.5 -427.5 c 128,-1,43
 -224 -448 -224 -448 -266 -448 c 0,44,45
 -336 -448 -336 -448 -385 -416 c 0,46,47
 -434.216796875 -383.858398438 -434.216796875 -383.858398438 -457.659179688 -349.629882812 c 0,48,49
 -480.623000579 -316.099676973 -480.623000579 -316.099676973 -466.5 -297 c 2,50,-1
 -414 -226 l 2,51,52
 -383.395309014 -184.610798857 -383.395309014 -184.610798857 -365 -226 c 0,53,54
 -345 -272.5 -345 -272.5 -313.5 -298 c 0,55,56
 -274.448242188 -330 -274.448242188 -330 -210 -330 c 0,57,58
 -98.9293379605 -330 -98.9293379605 -330 -19 -225.5 c 0,59,60
 62.6787541547 -118.712804873 62.6787541547 -118.712804873 100.271484375 93.685546875 c 2,61,-1
 209 708 l 1,62,63
 209 722 209 722 203 722 c 2,64,-1
 46 722 l 25,65,66
 46 814 l 25,0,-1
EndSplineSet
EndChar
StartChar: f.sc
Encoding: 65594 -1 449
Width: 790
Flags: W
LayerCount: 2
Fore
SplineSet
338 892 m 0,0,1
 397 892 397 892 539 899 c 128,-1,2
 681 906 681 906 752 906 c 1,3,4
 750 863 750 863 755 792 c 128,-1,5
 760 721 760 721 760 710 c 1,6,7
 751 704 751 704 732 704 c 0,8,9
 706 704 706 704 706 712 c 0,10,11
 702 782 702 782 673.5 805 c 128,-1,12
 645 828 645 828 590 828 c 2,13,-1
 486 828 l 2,14,15
 408 828 408 828 402 814 c 0,16,17
 386 782 386 782 376 722 c 1,18,-1
 330 482 l 2,19,20
 329 480 329 480 333 478.5 c 128,-1,21
 337 477 337 477 344.5 476 c 128,-1,22
 352 475 352 475 361 474.5 c 128,-1,23
 370 474 370 474 380 474 c 2,24,-1
 442 474 l 2,25,26
 519 474 519 474 538 486 c 128,-1,27
 557 498 557 498 581.432198918 556.316346329 c 0,28,29
 586 566 586 566 588 572 c 0,30,31
 591 582 591 582 612 582 c 0,32,33
 631 582 631 582 638 572 c 1,34,-1
 586 308 l 1,35,36
 574 302 574 302 560 302 c 0,37,38
 539 302 539 302 536 312 c 1,39,40
 534 347 534 347 531.5 364.5 c 128,-1,41
 529 382 529 382 527 386.5 c 128,-1,42
 525 391 525 391 520 396 c 0,43,44
 508 406 508 406 400 406 c 0,45,46
 316 406 316 406 314 394 c 2,47,-1
 268 166 l 2,48,49
 255 104 255 104 258 72 c 0,50,51
 258 63 258 63 296.5 57.5 c 128,-1,52
 335 52 335 52 356 52 c 1,53,54
 357 40 357 40 354 21 c 128,-1,55
 351 2 351 2 346 -6 c 1,56,57
 238 2 238 2 168 2 c 0,58,59
 137 2 137 2 80.5 -2 c 128,-1,60
 24 -6 24 -6 0 -6 c 1,61,62
 -3 3 -3 3 0 24.5 c 128,-1,63
 3 46 3 46 10 52 c 1,64,65
 28 52 28 52 67 58.5 c 128,-1,66
 106 65 106 65 110 74 c 0,67,68
 118 91 118 91 134 172 c 2,69,-1
 240 724 l 2,70,71
 254 794 254 794 254 822 c 0,72,73
 254 831 254 831 218 837.5 c 128,-1,74
 182 844 182 844 164 844 c 1,75,76
 162 854 162 854 166 874.5 c 128,-1,77
 170 895 170 895 176 902 c 1,78,79
 306 892 306 892 338 892 c 0,0,1
EndSplineSet
EndChar
